<?xml version="1.0" encoding="UTF-8" standalone="no"?>
<!DOCTYPE svg PUBLIC "-//W3C//DTD SVG 1.1//EN"
 "http://www.w3.org/Graphics/SVG/1.1/DTD/svg11.dtd">
<!-- Generated by graphviz version 2.43.0 (0)
 -->
<!-- Pages: 1 -->
<svg width="585pt" height="836pt"
 viewBox="0.00 0.00 584.60 836.00" xmlns="http://www.w3.org/2000/svg" xmlns:xlink="http://www.w3.org/1999/xlink">
<g id="graph0" class="graph" transform="scale(1 1) rotate(0) translate(4 832)">
<polygon fill="white" stroke="transparent" points="-4,4 -4,-832 580.6,-832 580.6,4 -4,4"/>
<!-- NAND_4_ -->
<g id="node1" class="node">
<title>NAND_4_</title>
<ellipse fill="none" stroke="black" cx="137" cy="-810" rx="54.69" ry="18"/>
<text text-anchor="middle" x="137" y="-806.3" font-family="Times,serif" font-size="14.00">NAND_4_</text>
</g>
<!-- _2_ -->
<g id="node2" class="node">
<title>_2_</title>
<ellipse fill="none" stroke="black" cx="137" cy="-738" rx="27" ry="18"/>
<text text-anchor="middle" x="137" y="-734.3" font-family="Times,serif" font-size="14.00">_2_</text>
</g>
<!-- NAND_4_&#45;&gt;_2_ -->
<g id="edge1" class="edge">
<title>NAND_4_&#45;&gt;_2_</title>
<path fill="none" stroke="black" d="M137,-791.7C137,-783.98 137,-774.71 137,-766.11"/>
<polygon fill="black" stroke="black" points="140.5,-766.1 137,-756.1 133.5,-766.1 140.5,-766.1"/>
</g>
<!-- NAND_5_ -->
<g id="node3" class="node">
<title>NAND_5_</title>
<ellipse fill="none" stroke="black" cx="270" cy="-666" rx="54.69" ry="18"/>
<text text-anchor="middle" x="270" y="-662.3" font-family="Times,serif" font-size="14.00">NAND_5_</text>
</g>
<!-- _2_&#45;&gt;NAND_5_ -->
<g id="edge2" class="edge">
<title>_2_&#45;&gt;NAND_5_</title>
<path fill="none" stroke="black" d="M157.49,-726.22C177.65,-715.61 208.87,-699.17 233.32,-686.31"/>
<polygon fill="black" stroke="black" points="235.1,-689.33 242.32,-681.57 231.84,-683.13 235.1,-689.33"/>
</g>
<!-- NAND_6_ -->
<g id="node4" class="node">
<title>NAND_6_</title>
<ellipse fill="none" stroke="black" cx="83" cy="-234" rx="54.69" ry="18"/>
<text text-anchor="middle" x="83" y="-230.3" font-family="Times,serif" font-size="14.00">NAND_6_</text>
</g>
<!-- _2_&#45;&gt;NAND_6_ -->
<g id="edge3" class="edge">
<title>_2_&#45;&gt;NAND_6_</title>
<path fill="none" stroke="black" d="M119.3,-723.86C90.82,-701.06 38,-651.2 38,-595 38,-595 38,-595 38,-377 38,-336.55 43.77,-326.22 57,-288 60.17,-278.85 64.54,-269.24 68.79,-260.75"/>
<polygon fill="black" stroke="black" points="71.97,-262.22 73.47,-251.73 65.76,-258.99 71.97,-262.22"/>
</g>
<!-- _3_ -->
<g id="node8" class="node">
<title>_3_</title>
<ellipse fill="none" stroke="black" cx="270" cy="-594" rx="27" ry="18"/>
<text text-anchor="middle" x="270" y="-590.3" font-family="Times,serif" font-size="14.00">_3_</text>
</g>
<!-- NAND_5_&#45;&gt;_3_ -->
<g id="edge7" class="edge">
<title>NAND_5_&#45;&gt;_3_</title>
<path fill="none" stroke="black" d="M270,-647.7C270,-639.98 270,-630.71 270,-622.11"/>
<polygon fill="black" stroke="black" points="273.5,-622.1 270,-612.1 266.5,-622.1 273.5,-622.1"/>
</g>
<!-- _0_ -->
<g id="node12" class="node">
<title>_0_</title>
<ellipse fill="none" stroke="black" cx="42" cy="-162" rx="27" ry="18"/>
<text text-anchor="middle" x="42" y="-158.3" font-family="Times,serif" font-size="14.00">_0_</text>
</g>
<!-- NAND_6_&#45;&gt;_0_ -->
<g id="edge11" class="edge">
<title>NAND_6_&#45;&gt;_0_</title>
<path fill="none" stroke="black" d="M73.08,-216.05C68.17,-207.68 62.15,-197.4 56.72,-188.13"/>
<polygon fill="black" stroke="black" points="59.63,-186.17 51.55,-179.31 53.59,-189.7 59.63,-186.17"/>
</g>
<!-- N6 -->
<g id="node5" class="node">
<title>N6</title>
<ellipse fill="none" stroke="black" cx="93" cy="-306" rx="27" ry="18"/>
<text text-anchor="middle" x="93" y="-302.3" font-family="Times,serif" font-size="14.00">N6</text>
</g>
<!-- N6&#45;&gt;NAND_4_ -->
<g id="edge4" class="edge">
<title>N6&#45;&gt;NAND_4_</title>
<path fill="none" stroke="black" d="M81.03,-322.37C55.91,-356.21 0,-440.59 0,-521 0,-667 0,-667 0,-667 0,-724.01 57.89,-766.9 98.41,-789.95"/>
<polygon fill="black" stroke="black" points="96.83,-793.07 107.27,-794.83 100.2,-786.94 96.83,-793.07"/>
</g>
<!-- N3 -->
<g id="node6" class="node">
<title>N3</title>
<ellipse fill="none" stroke="black" cx="494" cy="-306" rx="27" ry="18"/>
<text text-anchor="middle" x="494" y="-302.3" font-family="Times,serif" font-size="14.00">N3</text>
</g>
<!-- N3&#45;&gt;NAND_4_ -->
<g id="edge5" class="edge">
<title>N3&#45;&gt;NAND_4_</title>
<path fill="none" stroke="black" d="M492.22,-324.03C489.6,-350.66 485,-403.79 485,-449 485,-667 485,-667 485,-667 485,-729.23 291.79,-777.56 193.3,-798.16"/>
<polygon fill="black" stroke="black" points="192.3,-794.79 183.21,-800.24 193.71,-801.65 192.3,-794.79"/>
</g>
<!-- NAND_8_ -->
<g id="node7" class="node">
<title>NAND_8_</title>
<ellipse fill="none" stroke="black" cx="522" cy="-234" rx="54.69" ry="18"/>
<text text-anchor="middle" x="522" y="-230.3" font-family="Times,serif" font-size="14.00">NAND_8_</text>
</g>
<!-- N3&#45;&gt;NAND_8_ -->
<g id="edge6" class="edge">
<title>N3&#45;&gt;NAND_8_</title>
<path fill="none" stroke="black" d="M500.64,-288.41C503.87,-280.34 507.83,-270.43 511.46,-261.35"/>
<polygon fill="black" stroke="black" points="514.75,-262.54 515.22,-251.96 508.25,-259.94 514.75,-262.54"/>
</g>
<!-- _1_ -->
<g id="node16" class="node">
<title>_1_</title>
<ellipse fill="none" stroke="black" cx="508" cy="-162" rx="27" ry="18"/>
<text text-anchor="middle" x="508" y="-158.3" font-family="Times,serif" font-size="14.00">_1_</text>
</g>
<!-- NAND_8_&#45;&gt;_1_ -->
<g id="edge16" class="edge">
<title>NAND_8_&#45;&gt;_1_</title>
<path fill="none" stroke="black" d="M518.54,-215.7C517,-207.98 515.14,-198.71 513.42,-190.11"/>
<polygon fill="black" stroke="black" points="516.81,-189.22 511.42,-180.1 509.95,-190.6 516.81,-189.22"/>
</g>
<!-- NAND_7_ -->
<g id="node9" class="node">
<title>NAND_7_</title>
<ellipse fill="none" stroke="black" cx="234" cy="-522" rx="54.69" ry="18"/>
<text text-anchor="middle" x="234" y="-518.3" font-family="Times,serif" font-size="14.00">NAND_7_</text>
</g>
<!-- _3_&#45;&gt;NAND_7_ -->
<g id="edge8" class="edge">
<title>_3_&#45;&gt;NAND_7_</title>
<path fill="none" stroke="black" d="M261.65,-576.76C257.46,-568.61 252.27,-558.53 247.53,-549.31"/>
<polygon fill="black" stroke="black" points="250.49,-547.42 242.81,-540.12 244.27,-550.62 250.49,-547.42"/>
</g>
<!-- NAND_9_ -->
<g id="node10" class="node">
<title>NAND_9_</title>
<ellipse fill="none" stroke="black" cx="439" cy="-90" rx="54.69" ry="18"/>
<text text-anchor="middle" x="439" y="-86.3" font-family="Times,serif" font-size="14.00">NAND_9_</text>
</g>
<!-- _3_&#45;&gt;NAND_9_ -->
<g id="edge9" class="edge">
<title>_3_&#45;&gt;NAND_9_</title>
<path fill="none" stroke="black" d="M293.86,-585.51C340.44,-569.23 439,-525.92 439,-451 439,-451 439,-451 439,-233 439,-193 439,-146.65 439,-118.08"/>
<polygon fill="black" stroke="black" points="442.5,-118.05 439,-108.05 435.5,-118.05 442.5,-118.05"/>
</g>
<!-- N23 -->
<g id="node14" class="node">
<title>N23</title>
<ellipse fill="none" stroke="black" cx="234" cy="-450" rx="30.59" ry="18"/>
<text text-anchor="middle" x="234" y="-446.3" font-family="Times,serif" font-size="14.00">N23</text>
</g>
<!-- NAND_7_&#45;&gt;N23 -->
<g id="edge14" class="edge">
<title>NAND_7_&#45;&gt;N23</title>
<path fill="none" stroke="black" d="M234,-503.7C234,-495.98 234,-486.71 234,-478.11"/>
<polygon fill="black" stroke="black" points="237.5,-478.1 234,-468.1 230.5,-478.1 237.5,-478.1"/>
</g>
<!-- N22 -->
<g id="node18" class="node">
<title>N22</title>
<ellipse fill="none" stroke="black" cx="329" cy="-18" rx="30.59" ry="18"/>
<text text-anchor="middle" x="329" y="-14.3" font-family="Times,serif" font-size="14.00">N22</text>
</g>
<!-- NAND_9_&#45;&gt;N22 -->
<g id="edge19" class="edge">
<title>NAND_9_&#45;&gt;N22</title>
<path fill="none" stroke="black" d="M415.13,-73.81C398.34,-63.13 375.79,-48.77 357.97,-37.43"/>
<polygon fill="black" stroke="black" points="359.45,-34.23 349.14,-31.81 355.69,-40.14 359.45,-34.23"/>
</g>
<!-- tin[1] -->
<g id="node11" class="node">
<title>tin[1]</title>
<ellipse fill="none" stroke="black" cx="375" cy="-306" rx="36.29" ry="18"/>
<text text-anchor="middle" x="375" y="-302.3" font-family="Times,serif" font-size="14.00">tin[1]</text>
</g>
<!-- tin[1]&#45;&gt;NAND_5_ -->
<g id="edge10" class="edge">
<title>tin[1]&#45;&gt;NAND_5_</title>
<path fill="none" stroke="black" d="M369.47,-323.84C361.31,-350.21 347,-403.02 347,-449 347,-523 347,-523 347,-523 347,-569 315.39,-614.35 292.67,-641"/>
<polygon fill="black" stroke="black" points="289.92,-638.82 285.95,-648.65 295.18,-643.44 289.92,-638.82"/>
</g>
<!-- _0_&#45;&gt;NAND_7_ -->
<g id="edge12" class="edge">
<title>_0_&#45;&gt;NAND_7_</title>
<path fill="none" stroke="black" d="M32.93,-179.13C27.72,-189.35 21.69,-203.04 19,-216 15.75,-231.67 15.15,-236.47 19,-252 46.43,-362.72 152.39,-457.82 204.6,-499.08"/>
<polygon fill="black" stroke="black" points="202.45,-501.85 212.49,-505.24 206.76,-496.33 202.45,-501.85"/>
</g>
<!-- N7 -->
<g id="node13" class="node">
<title>N7</title>
<ellipse fill="none" stroke="black" cx="165" cy="-306" rx="27" ry="18"/>
<text text-anchor="middle" x="165" y="-302.3" font-family="Times,serif" font-size="14.00">N7</text>
</g>
<!-- N7&#45;&gt;NAND_6_ -->
<g id="edge13" class="edge">
<title>N7&#45;&gt;NAND_6_</title>
<path fill="none" stroke="black" d="M148.8,-291.17C137.59,-281.6 122.42,-268.65 109.47,-257.6"/>
<polygon fill="black" stroke="black" points="111.63,-254.84 101.75,-251.01 107.08,-260.16 111.63,-254.84"/>
</g>
<!-- module#c17 -->
<g id="node15" class="node">
<title>module#c17</title>
<ellipse fill="none" stroke="black" cx="234" cy="-378" rx="69.59" ry="18"/>
<text text-anchor="middle" x="234" y="-374.3" font-family="Times,serif" font-size="14.00">module#c17</text>
</g>
<!-- N23&#45;&gt;module#c17 -->
<g id="edge15" class="edge">
<title>N23&#45;&gt;module#c17</title>
<path fill="none" stroke="black" d="M234,-431.7C234,-423.98 234,-414.71 234,-406.11"/>
<polygon fill="black" stroke="black" points="237.5,-406.1 234,-396.1 230.5,-406.1 237.5,-406.1"/>
</g>
<!-- module#c17&#45;&gt;N6 -->
<g id="edge21" class="edge">
<title>module#c17&#45;&gt;N6</title>
<path fill="none" stroke="black" d="M203.41,-361.81C179.63,-350.01 146.82,-333.72 123.16,-321.97"/>
<polygon fill="black" stroke="black" points="124.46,-318.71 113.94,-317.4 121.35,-324.98 124.46,-318.71"/>
</g>
<!-- module#c17&#45;&gt;N3 -->
<g id="edge22" class="edge">
<title>module#c17&#45;&gt;N3</title>
<path fill="none" stroke="black" d="M280.48,-364.49C331.95,-350.63 413.7,-328.62 459.68,-316.24"/>
<polygon fill="black" stroke="black" points="460.72,-319.58 469.47,-313.6 458.9,-312.82 460.72,-319.58"/>
</g>
<!-- module#c17&#45;&gt;tin[1] -->
<g id="edge23" class="edge">
<title>module#c17&#45;&gt;tin[1]</title>
<path fill="none" stroke="black" d="M264.59,-361.81C287.09,-350.64 317.67,-335.46 340.94,-323.91"/>
<polygon fill="black" stroke="black" points="342.7,-326.94 350.1,-319.36 339.59,-320.67 342.7,-326.94"/>
</g>
<!-- module#c17&#45;&gt;N7 -->
<g id="edge24" class="edge">
<title>module#c17&#45;&gt;N7</title>
<path fill="none" stroke="black" d="M217.65,-360.41C208.37,-351 196.66,-339.12 186.63,-328.94"/>
<polygon fill="black" stroke="black" points="188.87,-326.24 179.36,-321.57 183.89,-331.15 188.87,-326.24"/>
</g>
<!-- tin[0] -->
<g id="node17" class="node">
<title>tin[0]</title>
<ellipse fill="none" stroke="black" cx="284" cy="-306" rx="36.29" ry="18"/>
<text text-anchor="middle" x="284" y="-302.3" font-family="Times,serif" font-size="14.00">tin[0]</text>
</g>
<!-- module#c17&#45;&gt;tin[0] -->
<g id="edge25" class="edge">
<title>module#c17&#45;&gt;tin[0]</title>
<path fill="none" stroke="black" d="M246.1,-360.05C252.21,-351.5 259.73,-340.97 266.46,-331.56"/>
<polygon fill="black" stroke="black" points="269.39,-333.48 272.35,-323.31 263.69,-329.41 269.39,-333.48"/>
</g>
<!-- _1_&#45;&gt;NAND_9_ -->
<g id="edge17" class="edge">
<title>_1_&#45;&gt;NAND_9_</title>
<path fill="none" stroke="black" d="M493.7,-146.5C484.68,-137.34 472.82,-125.31 462.44,-114.78"/>
<polygon fill="black" stroke="black" points="464.73,-112.11 455.21,-107.45 459.74,-117.03 464.73,-112.11"/>
</g>
<!-- tin[0]&#45;&gt;NAND_8_ -->
<g id="edge18" class="edge">
<title>tin[0]&#45;&gt;NAND_8_</title>
<path fill="none" stroke="black" d="M312.09,-294.19C317.97,-292.05 324.17,-289.88 330,-288 376.83,-272.91 430.92,-258.22 469.73,-248.15"/>
<polygon fill="black" stroke="black" points="470.94,-251.45 479.75,-245.56 469.19,-244.67 470.94,-251.45"/>
</g>
<!-- N22&#45;&gt;module#c17 -->
<g id="edge20" class="edge">
<title>N22&#45;&gt;module#c17</title>
<path fill="none" stroke="black" d="M309.26,-31.9C277.85,-54.16 220,-103.04 220,-161 220,-235 220,-235 220,-235 220,-275.2 225.62,-321.49 229.74,-350"/>
<polygon fill="black" stroke="black" points="226.3,-350.63 231.23,-360 233.22,-349.6 226.3,-350.63"/>
</g>
</g>
</svg>
