<?xml version="1.0" encoding="UTF-8" standalone="no"?>
<!DOCTYPE svg PUBLIC "-//W3C//DTD SVG 1.1//EN"
 "http://www.w3.org/Graphics/SVG/1.1/DTD/svg11.dtd">
<!-- Generated by graphviz version 2.43.0 (0)
 -->
<!-- Pages: 1 -->
<svg width="724pt" height="1124pt"
 viewBox="0.00 0.00 723.84 1124.00" xmlns="http://www.w3.org/2000/svg" xmlns:xlink="http://www.w3.org/1999/xlink">
<g id="graph0" class="graph" transform="scale(1 1) rotate(0) translate(4 1120)">
<polygon fill="white" stroke="transparent" points="-4,4 -4,-1120 719.84,-1120 719.84,4 -4,4"/>
<!-- NAND_4_ -->
<g id="node1" class="node">
<title>NAND_4_</title>
<ellipse fill="none" stroke="black" cx="533" cy="-1098" rx="54.69" ry="18"/>
<text text-anchor="middle" x="533" y="-1094.3" font-family="Times,serif" font-size="14.00">NAND_4_</text>
</g>
<!-- _2_ -->
<g id="node2" class="node">
<title>_2_</title>
<ellipse fill="none" stroke="black" cx="193" cy="-1026" rx="27" ry="18"/>
<text text-anchor="middle" x="193" y="-1022.3" font-family="Times,serif" font-size="14.00">_2_</text>
</g>
<!-- NAND_4_&#45;&gt;_2_ -->
<g id="edge1" class="edge">
<title>NAND_4_&#45;&gt;_2_</title>
<path fill="none" stroke="black" d="M487.85,-1087.7C419.38,-1073.61 290.67,-1047.11 228.46,-1034.3"/>
<polygon fill="black" stroke="black" points="228.85,-1030.81 218.35,-1032.22 227.44,-1037.66 228.85,-1030.81"/>
</g>
<!-- NAND_5_ -->
<g id="node3" class="node">
<title>NAND_5_</title>
<ellipse fill="none" stroke="black" cx="193" cy="-954" rx="54.69" ry="18"/>
<text text-anchor="middle" x="193" y="-950.3" font-family="Times,serif" font-size="14.00">NAND_5_</text>
</g>
<!-- _2_&#45;&gt;NAND_5_ -->
<g id="edge2" class="edge">
<title>_2_&#45;&gt;NAND_5_</title>
<path fill="none" stroke="black" d="M193,-1007.7C193,-999.98 193,-990.71 193,-982.11"/>
<polygon fill="black" stroke="black" points="196.5,-982.1 193,-972.1 189.5,-982.1 196.5,-982.1"/>
</g>
<!-- NAND_6_ -->
<g id="node4" class="node">
<title>NAND_6_</title>
<ellipse fill="none" stroke="black" cx="119" cy="-522" rx="54.69" ry="18"/>
<text text-anchor="middle" x="119" y="-518.3" font-family="Times,serif" font-size="14.00">NAND_6_</text>
</g>
<!-- _2_&#45;&gt;NAND_6_ -->
<g id="edge3" class="edge">
<title>_2_&#45;&gt;NAND_6_</title>
<path fill="none" stroke="black" d="M172.85,-1013.87C138.2,-993.06 71,-944.75 71,-883 71,-883 71,-883 71,-665 71,-624.55 75.92,-613.92 90,-576 93.4,-566.86 98.15,-557.36 102.83,-548.98"/>
<polygon fill="black" stroke="black" points="106.01,-550.47 108,-540.06 99.96,-546.95 106.01,-550.47"/>
</g>
<!-- _3_ -->
<g id="node8" class="node">
<title>_3_</title>
<ellipse fill="none" stroke="black" cx="247" cy="-882" rx="27" ry="18"/>
<text text-anchor="middle" x="247" y="-878.3" font-family="Times,serif" font-size="14.00">_3_</text>
</g>
<!-- NAND_5_&#45;&gt;_3_ -->
<g id="edge7" class="edge">
<title>NAND_5_&#45;&gt;_3_</title>
<path fill="none" stroke="black" d="M205.8,-936.41C212.65,-927.53 221.2,-916.44 228.74,-906.67"/>
<polygon fill="black" stroke="black" points="231.7,-908.57 235.03,-898.51 226.16,-904.29 231.7,-908.57"/>
</g>
<!-- keywire5 -->
<g id="node12" class="node">
<title>keywire5</title>
<ellipse fill="none" stroke="black" cx="119" cy="-450" rx="53.09" ry="18"/>
<text text-anchor="middle" x="119" y="-446.3" font-family="Times,serif" font-size="14.00">keywire5</text>
</g>
<!-- NAND_6_&#45;&gt;keywire5 -->
<g id="edge11" class="edge">
<title>NAND_6_&#45;&gt;keywire5</title>
<path fill="none" stroke="black" d="M119,-503.7C119,-495.98 119,-486.71 119,-478.11"/>
<polygon fill="black" stroke="black" points="122.5,-478.1 119,-468.1 115.5,-478.1 122.5,-478.1"/>
</g>
<!-- N6 -->
<g id="node5" class="node">
<title>N6</title>
<ellipse fill="none" stroke="black" cx="602" cy="-594" rx="27" ry="18"/>
<text text-anchor="middle" x="602" y="-590.3" font-family="Times,serif" font-size="14.00">N6</text>
</g>
<!-- N6&#45;&gt;NAND_4_ -->
<g id="edge4" class="edge">
<title>N6&#45;&gt;NAND_4_</title>
<path fill="none" stroke="black" d="M603.38,-612.04C605.42,-638.68 609,-691.83 609,-737 609,-955 609,-955 609,-955 609,-1000.87 577.8,-1046.25 555.38,-1072.95"/>
<polygon fill="black" stroke="black" points="552.64,-1070.76 548.75,-1080.61 557.94,-1075.34 552.64,-1070.76"/>
</g>
<!-- N3 -->
<g id="node6" class="node">
<title>N3</title>
<ellipse fill="none" stroke="black" cx="530" cy="-594" rx="27" ry="18"/>
<text text-anchor="middle" x="530" y="-590.3" font-family="Times,serif" font-size="14.00">N3</text>
</g>
<!-- N3&#45;&gt;NAND_4_ -->
<g id="edge5" class="edge">
<title>N3&#45;&gt;NAND_4_</title>
<path fill="none" stroke="black" d="M530.59,-612.05C531.47,-638.7 533,-691.88 533,-737 533,-955 533,-955 533,-955 533,-995 533,-1041.35 533,-1069.92"/>
<polygon fill="black" stroke="black" points="529.5,-1069.95 533,-1079.95 536.5,-1069.95 529.5,-1069.95"/>
</g>
<!-- NAND_8_ -->
<g id="node7" class="node">
<title>NAND_8_</title>
<ellipse fill="none" stroke="black" cx="536" cy="-522" rx="54.69" ry="18"/>
<text text-anchor="middle" x="536" y="-518.3" font-family="Times,serif" font-size="14.00">NAND_8_</text>
</g>
<!-- N3&#45;&gt;NAND_8_ -->
<g id="edge6" class="edge">
<title>N3&#45;&gt;NAND_8_</title>
<path fill="none" stroke="black" d="M531.48,-575.7C532.14,-567.98 532.94,-558.71 533.68,-550.11"/>
<polygon fill="black" stroke="black" points="537.17,-550.37 534.53,-540.1 530.19,-549.77 537.17,-550.37"/>
</g>
<!-- keywire6 -->
<g id="node17" class="node">
<title>keywire6</title>
<ellipse fill="none" stroke="black" cx="534" cy="-450" rx="53.09" ry="18"/>
<text text-anchor="middle" x="534" y="-446.3" font-family="Times,serif" font-size="14.00">keywire6</text>
</g>
<!-- NAND_8_&#45;&gt;keywire6 -->
<g id="edge16" class="edge">
<title>NAND_8_&#45;&gt;keywire6</title>
<path fill="none" stroke="black" d="M535.51,-503.7C535.29,-495.98 535.02,-486.71 534.77,-478.11"/>
<polygon fill="black" stroke="black" points="538.27,-478 534.49,-468.1 531.28,-478.2 538.27,-478"/>
</g>
<!-- NAND_7_ -->
<g id="node9" class="node">
<title>NAND_7_</title>
<ellipse fill="none" stroke="black" cx="247" cy="-810" rx="54.69" ry="18"/>
<text text-anchor="middle" x="247" y="-806.3" font-family="Times,serif" font-size="14.00">NAND_7_</text>
</g>
<!-- _3_&#45;&gt;NAND_7_ -->
<g id="edge8" class="edge">
<title>_3_&#45;&gt;NAND_7_</title>
<path fill="none" stroke="black" d="M247,-863.7C247,-855.98 247,-846.71 247,-838.11"/>
<polygon fill="black" stroke="black" points="250.5,-838.1 247,-828.1 243.5,-838.1 250.5,-838.1"/>
</g>
<!-- NAND_9_ -->
<g id="node10" class="node">
<title>NAND_9_</title>
<ellipse fill="none" stroke="black" cx="450" cy="-234" rx="54.69" ry="18"/>
<text text-anchor="middle" x="450" y="-230.3" font-family="Times,serif" font-size="14.00">NAND_9_</text>
</g>
<!-- _3_&#45;&gt;NAND_9_ -->
<g id="edge9" class="edge">
<title>_3_&#45;&gt;NAND_9_</title>
<path fill="none" stroke="black" d="M270.98,-873.42C342.92,-849.23 556.9,-766.24 638,-612 708,-478.88 544.23,-316.36 477.09,-257.57"/>
<polygon fill="black" stroke="black" points="479.26,-254.82 469.4,-250.93 474.68,-260.11 479.26,-254.82"/>
</g>
<!-- N23 -->
<g id="node15" class="node">
<title>N23</title>
<ellipse fill="none" stroke="black" cx="280" cy="-738" rx="30.59" ry="18"/>
<text text-anchor="middle" x="280" y="-734.3" font-family="Times,serif" font-size="14.00">N23</text>
</g>
<!-- NAND_7_&#45;&gt;N23 -->
<g id="edge14" class="edge">
<title>NAND_7_&#45;&gt;N23</title>
<path fill="none" stroke="black" d="M254.99,-792.05C258.8,-783.97 263.44,-774.12 267.69,-765.11"/>
<polygon fill="black" stroke="black" points="270.99,-766.33 272.09,-755.79 264.66,-763.34 270.99,-766.33"/>
</g>
<!-- keywire4 -->
<g id="node20" class="node">
<title>keywire4</title>
<ellipse fill="none" stroke="black" cx="450" cy="-162" rx="53.09" ry="18"/>
<text text-anchor="middle" x="450" y="-158.3" font-family="Times,serif" font-size="14.00">keywire4</text>
</g>
<!-- NAND_9_&#45;&gt;keywire4 -->
<g id="edge19" class="edge">
<title>NAND_9_&#45;&gt;keywire4</title>
<path fill="none" stroke="black" d="M450,-215.7C450,-207.98 450,-198.71 450,-190.11"/>
<polygon fill="black" stroke="black" points="453.5,-190.1 450,-180.1 446.5,-190.1 453.5,-190.1"/>
</g>
<!-- tin[1] -->
<g id="node11" class="node">
<title>tin[1]</title>
<ellipse fill="none" stroke="black" cx="135" cy="-594" rx="36.29" ry="18"/>
<text text-anchor="middle" x="135" y="-590.3" font-family="Times,serif" font-size="14.00">tin[1]</text>
</g>
<!-- tin[1]&#45;&gt;NAND_5_ -->
<g id="edge10" class="edge">
<title>tin[1]&#45;&gt;NAND_5_</title>
<path fill="none" stroke="black" d="M137.37,-612.01C140.87,-638.62 147,-691.72 147,-737 147,-811 147,-811 147,-811 147,-853.19 165.6,-899.15 179.15,-927.02"/>
<polygon fill="black" stroke="black" points="176.08,-928.71 183.69,-936.09 182.34,-925.58 176.08,-928.71"/>
</g>
<!-- keygate_XNOR_1 -->
<g id="node26" class="node">
<title>keygate_XNOR_1</title>
<ellipse fill="none" stroke="black" cx="156" cy="-378" rx="90.18" ry="18"/>
<text text-anchor="middle" x="156" y="-374.3" font-family="Times,serif" font-size="14.00">keygate_XNOR_1</text>
</g>
<!-- keywire5&#45;&gt;keygate_XNOR_1 -->
<g id="edge33" class="edge">
<title>keywire5&#45;&gt;keygate_XNOR_1</title>
<path fill="none" stroke="black" d="M127.96,-432.05C132.21,-424.01 137.39,-414.2 142.14,-405.23"/>
<polygon fill="black" stroke="black" points="145.29,-406.75 146.87,-396.28 139.1,-403.48 145.29,-406.75"/>
</g>
<!-- _0_ -->
<g id="node13" class="node">
<title>_0_</title>
<ellipse fill="none" stroke="black" cx="106" cy="-306" rx="27" ry="18"/>
<text text-anchor="middle" x="106" y="-302.3" font-family="Times,serif" font-size="14.00">_0_</text>
</g>
<!-- _0_&#45;&gt;NAND_7_ -->
<g id="edge12" class="edge">
<title>_0_&#45;&gt;NAND_7_</title>
<path fill="none" stroke="black" d="M88.45,-320.16C77.15,-329.79 63.42,-343.94 57,-360 23.77,-443.17 45.97,-500.78 55,-540 79.52,-646.51 173.85,-743.44 220.53,-786.09"/>
<polygon fill="black" stroke="black" points="218.35,-788.84 228.13,-792.94 223.04,-783.64 218.35,-788.84"/>
</g>
<!-- N7 -->
<g id="node14" class="node">
<title>N7</title>
<ellipse fill="none" stroke="black" cx="216" cy="-594" rx="27" ry="18"/>
<text text-anchor="middle" x="216" y="-590.3" font-family="Times,serif" font-size="14.00">N7</text>
</g>
<!-- N7&#45;&gt;NAND_6_ -->
<g id="edge13" class="edge">
<title>N7&#45;&gt;NAND_6_</title>
<path fill="none" stroke="black" d="M198.21,-580.16C184.55,-570.3 165.37,-556.46 149.3,-544.87"/>
<polygon fill="black" stroke="black" points="150.91,-541.71 140.75,-538.7 146.81,-547.39 150.91,-541.71"/>
</g>
<!-- module#c17 -->
<g id="node16" class="node">
<title>module#c17</title>
<ellipse fill="none" stroke="black" cx="331" cy="-666" rx="69.59" ry="18"/>
<text text-anchor="middle" x="331" y="-662.3" font-family="Times,serif" font-size="14.00">module#c17</text>
</g>
<!-- N23&#45;&gt;module#c17 -->
<g id="edge15" class="edge">
<title>N23&#45;&gt;module#c17</title>
<path fill="none" stroke="black" d="M291.57,-721.12C297.85,-712.51 305.74,-701.67 312.82,-691.96"/>
<polygon fill="black" stroke="black" points="315.7,-693.94 318.76,-683.8 310.04,-689.82 315.7,-693.94"/>
</g>
<!-- module#c17&#45;&gt;N6 -->
<g id="edge21" class="edge">
<title>module#c17&#45;&gt;N6</title>
<path fill="none" stroke="black" d="M388.48,-655.68C436.67,-647.01 506.88,-632.35 566,-612 567.91,-611.34 569.86,-610.61 571.8,-609.84"/>
<polygon fill="black" stroke="black" points="573.6,-612.87 581.38,-605.68 570.82,-606.45 573.6,-612.87"/>
</g>
<!-- module#c17&#45;&gt;N3 -->
<g id="edge22" class="edge">
<title>module#c17&#45;&gt;N3</title>
<path fill="none" stroke="black" d="M373.53,-651.62C405.49,-641.35 450.25,-626.51 489,-612 492.1,-610.84 495.32,-609.59 498.53,-608.31"/>
<polygon fill="black" stroke="black" points="500.04,-611.47 507.98,-604.46 497.4,-604.99 500.04,-611.47"/>
</g>
<!-- module#c17&#45;&gt;tin[1] -->
<g id="edge23" class="edge">
<title>module#c17&#45;&gt;tin[1]</title>
<path fill="none" stroke="black" d="M290.85,-651.2C260.37,-640.65 217.46,-625.65 180,-612 177.6,-611.12 175.12,-610.22 172.63,-609.29"/>
<polygon fill="black" stroke="black" points="173.64,-605.93 163.05,-605.71 171.19,-612.49 173.64,-605.93"/>
</g>
<!-- module#c17&#45;&gt;N7 -->
<g id="edge24" class="edge">
<title>module#c17&#45;&gt;N7</title>
<path fill="none" stroke="black" d="M304.9,-649.12C286.68,-638.02 262.39,-623.23 243.8,-611.92"/>
<polygon fill="black" stroke="black" points="245.55,-608.89 235.18,-606.68 241.91,-614.87 245.55,-608.89"/>
</g>
<!-- tin[0] -->
<g id="node19" class="node">
<title>tin[0]</title>
<ellipse fill="none" stroke="black" cx="411" cy="-594" rx="36.29" ry="18"/>
<text text-anchor="middle" x="411" y="-590.3" font-family="Times,serif" font-size="14.00">tin[0]</text>
</g>
<!-- module#c17&#45;&gt;tin[0] -->
<g id="edge25" class="edge">
<title>module#c17&#45;&gt;tin[0]</title>
<path fill="none" stroke="black" d="M349.96,-648.41C360.77,-638.95 374.45,-626.98 386.12,-616.77"/>
<polygon fill="black" stroke="black" points="388.59,-619.26 393.81,-610.04 383.98,-613.99 388.59,-619.26"/>
</g>
<!-- lockingkeyinput[0] -->
<g id="node22" class="node">
<title>lockingkeyinput[0]</title>
<ellipse fill="none" stroke="black" cx="619" cy="-234" rx="96.68" ry="18"/>
<text text-anchor="middle" x="619" y="-230.3" font-family="Times,serif" font-size="14.00">lockingkeyinput[0]</text>
</g>
<!-- module#c17&#45;&gt;lockingkeyinput[0] -->
<g id="edge26" class="edge">
<title>module#c17&#45;&gt;lockingkeyinput[0]</title>
<path fill="none" stroke="black" d="M372.83,-651.53C398.04,-642.4 430.17,-628.91 456,-612 475.46,-599.26 474.08,-588.02 494,-576 536.6,-550.3 566.94,-577.18 600,-540 626.88,-509.78 619,-491.45 619,-451 619,-451 619,-451 619,-377 619,-337 619,-290.65 619,-262.08"/>
<polygon fill="black" stroke="black" points="622.5,-262.05 619,-252.05 615.5,-262.05 622.5,-262.05"/>
</g>
<!-- lockingkeyinput[1] -->
<g id="node23" class="node">
<title>lockingkeyinput[1]</title>
<ellipse fill="none" stroke="black" cx="287" cy="-450" rx="96.68" ry="18"/>
<text text-anchor="middle" x="287" y="-446.3" font-family="Times,serif" font-size="14.00">lockingkeyinput[1]</text>
</g>
<!-- module#c17&#45;&gt;lockingkeyinput[1] -->
<g id="edge27" class="edge">
<title>module#c17&#45;&gt;lockingkeyinput[1]</title>
<path fill="none" stroke="black" d="M322.9,-647.97C314.11,-629.83 299.39,-600.43 285,-576 275.24,-559.43 266.57,-558.4 261,-540 256.36,-524.69 257.38,-519.59 261,-504 263.15,-494.72 267.18,-485.18 271.42,-476.81"/>
<polygon fill="black" stroke="black" points="274.55,-478.38 276.22,-467.92 268.39,-475.05 274.55,-478.38"/>
</g>
<!-- lockingkeyinput[2] -->
<g id="node24" class="node">
<title>lockingkeyinput[2]</title>
<ellipse fill="none" stroke="black" cx="367" cy="-522" rx="96.68" ry="18"/>
<text text-anchor="middle" x="367" y="-518.3" font-family="Times,serif" font-size="14.00">lockingkeyinput[2]</text>
</g>
<!-- module#c17&#45;&gt;lockingkeyinput[2] -->
<g id="edge28" class="edge">
<title>module#c17&#45;&gt;lockingkeyinput[2]</title>
<path fill="none" stroke="black" d="M335.34,-647.87C341.5,-623.56 352.85,-578.82 360.15,-550.01"/>
<polygon fill="black" stroke="black" points="363.58,-550.74 362.64,-540.19 356.79,-549.02 363.58,-550.74"/>
</g>
<!-- keygate_XNOR_2 -->
<g id="node27" class="node">
<title>keygate_XNOR_2</title>
<ellipse fill="none" stroke="black" cx="450" cy="-378" rx="90.18" ry="18"/>
<text text-anchor="middle" x="450" y="-374.3" font-family="Times,serif" font-size="14.00">keygate_XNOR_2</text>
</g>
<!-- keywire6&#45;&gt;keygate_XNOR_2 -->
<g id="edge36" class="edge">
<title>keywire6&#45;&gt;keygate_XNOR_2</title>
<path fill="none" stroke="black" d="M514.94,-433.12C503.98,-423.98 490.01,-412.35 477.85,-402.2"/>
<polygon fill="black" stroke="black" points="480.08,-399.51 470.16,-395.8 475.6,-404.89 480.08,-399.51"/>
</g>
<!-- _1_ -->
<g id="node18" class="node">
<title>_1_</title>
<ellipse fill="none" stroke="black" cx="450" cy="-306" rx="27" ry="18"/>
<text text-anchor="middle" x="450" y="-302.3" font-family="Times,serif" font-size="14.00">_1_</text>
</g>
<!-- _1_&#45;&gt;NAND_9_ -->
<g id="edge17" class="edge">
<title>_1_&#45;&gt;NAND_9_</title>
<path fill="none" stroke="black" d="M450,-287.7C450,-279.98 450,-270.71 450,-262.11"/>
<polygon fill="black" stroke="black" points="453.5,-262.1 450,-252.1 446.5,-262.1 453.5,-262.1"/>
</g>
<!-- tin[0]&#45;&gt;NAND_8_ -->
<g id="edge18" class="edge">
<title>tin[0]&#45;&gt;NAND_8_</title>
<path fill="none" stroke="black" d="M434.22,-580C452.88,-569.55 479.39,-554.7 500.67,-542.78"/>
<polygon fill="black" stroke="black" points="502.42,-545.81 509.44,-537.87 499,-539.71 502.42,-545.81"/>
</g>
<!-- keygate_XNOR_0 -->
<g id="node25" class="node">
<title>keygate_XNOR_0</title>
<ellipse fill="none" stroke="black" cx="450" cy="-90" rx="90.18" ry="18"/>
<text text-anchor="middle" x="450" y="-86.3" font-family="Times,serif" font-size="14.00">keygate_XNOR_0</text>
</g>
<!-- keywire4&#45;&gt;keygate_XNOR_0 -->
<g id="edge30" class="edge">
<title>keywire4&#45;&gt;keygate_XNOR_0</title>
<path fill="none" stroke="black" d="M450,-143.7C450,-135.98 450,-126.71 450,-118.11"/>
<polygon fill="black" stroke="black" points="453.5,-118.1 450,-108.1 446.5,-118.1 453.5,-118.1"/>
</g>
<!-- N22 -->
<g id="node21" class="node">
<title>N22</title>
<ellipse fill="none" stroke="black" cx="225" cy="-18" rx="30.59" ry="18"/>
<text text-anchor="middle" x="225" y="-14.3" font-family="Times,serif" font-size="14.00">N22</text>
</g>
<!-- N22&#45;&gt;module#c17 -->
<g id="edge20" class="edge">
<title>N22&#45;&gt;module#c17</title>
<path fill="none" stroke="black" d="M195.59,-23.48C134.6,-34.61 0,-69.54 0,-161 0,-379 0,-379 0,-379 0,-425.97 19.32,-439.96 57,-468 103.72,-502.77 133.12,-473.93 183,-504 220.96,-526.88 221.95,-543.42 252,-576 271.8,-597.47 293.82,-622.36 309.57,-640.35"/>
<polygon fill="black" stroke="black" points="307.12,-642.87 316.34,-648.1 312.39,-638.26 307.12,-642.87"/>
</g>
<!-- lockingkeyinput[0]&#45;&gt;keygate_XNOR_0 -->
<g id="edge31" class="edge">
<title>lockingkeyinput[0]&#45;&gt;keygate_XNOR_0</title>
<path fill="none" stroke="black" d="M598.95,-216.15C568.76,-190.78 511.54,-142.71 477.48,-114.09"/>
<polygon fill="black" stroke="black" points="479.67,-111.36 469.76,-107.61 475.17,-116.72 479.67,-111.36"/>
</g>
<!-- lockingkeyinput[1]&#45;&gt;keygate_XNOR_1 -->
<g id="edge34" class="edge">
<title>lockingkeyinput[1]&#45;&gt;keygate_XNOR_1</title>
<path fill="none" stroke="black" d="M256.62,-432.76C238.35,-423 214.9,-410.47 195.24,-399.97"/>
<polygon fill="black" stroke="black" points="196.69,-396.77 186.22,-395.15 193.39,-402.95 196.69,-396.77"/>
</g>
<!-- lockingkeyinput[2]&#45;&gt;keygate_XNOR_2 -->
<g id="edge37" class="edge">
<title>lockingkeyinput[2]&#45;&gt;keygate_XNOR_2</title>
<path fill="none" stroke="black" d="M377.01,-503.87C391.41,-479.24 418.06,-433.64 434.87,-404.88"/>
<polygon fill="black" stroke="black" points="437.93,-406.59 439.95,-396.19 431.88,-403.06 437.93,-406.59"/>
</g>
<!-- keygate_XNOR_0&#45;&gt;N22 -->
<g id="edge29" class="edge">
<title>keygate_XNOR_0&#45;&gt;N22</title>
<path fill="none" stroke="black" d="M403.38,-74.5C361.2,-61.37 299.93,-42.31 261.3,-30.29"/>
<polygon fill="black" stroke="black" points="262.1,-26.88 251.51,-27.25 260.02,-33.56 262.1,-26.88"/>
</g>
<!-- keygate_XNOR_1&#45;&gt;_0_ -->
<g id="edge32" class="edge">
<title>keygate_XNOR_1&#45;&gt;_0_</title>
<path fill="none" stroke="black" d="M143.9,-360.05C137.7,-351.38 130.05,-340.67 123.25,-331.15"/>
<polygon fill="black" stroke="black" points="125.97,-328.93 117.31,-322.83 120.27,-333 125.97,-328.93"/>
</g>
<!-- keygate_XNOR_2&#45;&gt;_1_ -->
<g id="edge35" class="edge">
<title>keygate_XNOR_2&#45;&gt;_1_</title>
<path fill="none" stroke="black" d="M450,-359.7C450,-351.98 450,-342.71 450,-334.11"/>
<polygon fill="black" stroke="black" points="453.5,-334.1 450,-324.1 446.5,-334.1 453.5,-334.1"/>
</g>
</g>
</svg>
