<?xml version="1.0" encoding="UTF-8" standalone="no"?>
<!DOCTYPE svg PUBLIC "-//W3C//DTD SVG 1.1//EN"
 "http://www.w3.org/Graphics/SVG/1.1/DTD/svg11.dtd">
<!-- Generated by graphviz version 2.43.0 (0)
 -->
<!-- Pages: 1 -->
<svg width="1663pt" height="1412pt"
 viewBox="0.00 0.00 1662.65 1412.00" xmlns="http://www.w3.org/2000/svg" xmlns:xlink="http://www.w3.org/1999/xlink">
<g id="graph0" class="graph" transform="scale(1 1) rotate(0) translate(4 1408)">
<polygon fill="white" stroke="transparent" points="-4,4 -4,-1408 1658.65,-1408 1658.65,4 -4,4"/>
<!-- AND#_12_ -->
<g id="node1" class="node">
<title>AND#_12_</title>
<ellipse fill="none" stroke="black" cx="114" cy="-1386" rx="60.39" ry="18"/>
<text text-anchor="middle" x="114" y="-1382.3" font-family="Times,serif" font-size="14.00">AND#_12_</text>
</g>
<!-- wire#_00_ -->
<g id="node2" class="node">
<title>wire#_00_</title>
<ellipse fill="none" stroke="black" cx="1514" cy="-1314" rx="59.59" ry="18"/>
<text text-anchor="middle" x="1514" y="-1310.3" font-family="Times,serif" font-size="14.00">wire#_00_</text>
</g>
<!-- AND#_12_&#45;&gt;wire#_00_ -->
<g id="edge1" class="edge">
<title>AND#_12_&#45;&gt;wire#_00_</title>
<path fill="none" stroke="black" d="M173.26,-1382.04C399.02,-1370.75 1204.58,-1330.47 1445.47,-1318.43"/>
<polygon fill="black" stroke="black" points="1445.69,-1321.92 1455.5,-1317.92 1445.34,-1314.93 1445.69,-1321.92"/>
</g>
<!-- NAND#_15_ -->
<g id="node3" class="node">
<title>NAND#_15_</title>
<ellipse fill="none" stroke="black" cx="1514" cy="-1242" rx="68.49" ry="18"/>
<text text-anchor="middle" x="1514" y="-1238.3" font-family="Times,serif" font-size="14.00">NAND#_15_</text>
</g>
<!-- wire#_00_&#45;&gt;NAND#_15_ -->
<g id="edge2" class="edge">
<title>wire#_00_&#45;&gt;NAND#_15_</title>
<path fill="none" stroke="black" d="M1514,-1295.7C1514,-1287.98 1514,-1278.71 1514,-1270.11"/>
<polygon fill="black" stroke="black" points="1517.5,-1270.1 1514,-1260.1 1510.5,-1270.1 1517.5,-1270.1"/>
</g>
<!-- XOR#_16_ -->
<g id="node4" class="node">
<title>XOR#_16_</title>
<ellipse fill="none" stroke="black" cx="1566" cy="-90" rx="59.59" ry="18"/>
<text text-anchor="middle" x="1566" y="-86.3" font-family="Times,serif" font-size="14.00">XOR#_16_</text>
</g>
<!-- wire#_00_&#45;&gt;XOR#_16_ -->
<g id="edge3" class="edge">
<title>wire#_00_&#45;&gt;XOR#_16_</title>
<path fill="none" stroke="black" d="M1545.42,-1298.47C1586.7,-1276.95 1654,-1232.45 1654,-1171 1654,-1171 1654,-1171 1654,-233 1654,-192.55 1656.59,-178.2 1635,-144 1626.95,-131.25 1614.7,-120.39 1602.74,-111.88"/>
<polygon fill="black" stroke="black" points="1604.39,-108.78 1594.14,-106.11 1600.49,-114.59 1604.39,-108.78"/>
</g>
<!-- wire#_03_ -->
<g id="node14" class="node">
<title>wire#_03_</title>
<ellipse fill="none" stroke="black" cx="1474" cy="-1170" rx="59.59" ry="18"/>
<text text-anchor="middle" x="1474" y="-1166.3" font-family="Times,serif" font-size="14.00">wire#_03_</text>
</g>
<!-- NAND#_15_&#45;&gt;wire#_03_ -->
<g id="edge14" class="edge">
<title>NAND#_15_&#45;&gt;wire#_03_</title>
<path fill="none" stroke="black" d="M1504.32,-1224.05C1499.6,-1215.8 1493.83,-1205.7 1488.59,-1196.54"/>
<polygon fill="black" stroke="black" points="1491.59,-1194.73 1483.59,-1187.79 1485.52,-1198.21 1491.59,-1194.73"/>
</g>
<!-- output#c[1] -->
<g id="node40" class="node">
<title>output#c[1]</title>
<ellipse fill="none" stroke="black" cx="1170" cy="-18" rx="66.89" ry="18"/>
<text text-anchor="middle" x="1170" y="-14.3" font-family="Times,serif" font-size="14.00">output#c[1]</text>
</g>
<!-- XOR#_16_&#45;&gt;output#c[1] -->
<g id="edge47" class="edge">
<title>XOR#_16_&#45;&gt;output#c[1]</title>
<path fill="none" stroke="black" d="M1515.85,-80.13C1444.34,-67.49 1313.07,-44.29 1234.44,-30.39"/>
<polygon fill="black" stroke="black" points="1234.63,-26.87 1224.18,-28.58 1233.41,-33.76 1234.63,-26.87"/>
</g>
<!-- input#b[0] -->
<g id="node5" class="node">
<title>input#b[0]</title>
<ellipse fill="none" stroke="black" cx="128" cy="-306" rx="61.99" ry="18"/>
<text text-anchor="middle" x="128" y="-302.3" font-family="Times,serif" font-size="14.00">input#b[0]</text>
</g>
<!-- input#b[0]&#45;&gt;AND#_12_ -->
<g id="edge4" class="edge">
<title>input#b[0]&#45;&gt;AND#_12_</title>
<path fill="none" stroke="black" d="M117.48,-323.76C102.28,-349.6 76,-401.22 76,-449 76,-1243 76,-1243 76,-1243 76,-1284.37 91.23,-1330.28 102.41,-1358.39"/>
<polygon fill="black" stroke="black" points="99.28,-1359.98 106.31,-1367.91 105.76,-1357.33 99.28,-1359.98"/>
</g>
<!-- XOR#_27_ -->
<g id="node6" class="node">
<title>XOR#_27_</title>
<ellipse fill="none" stroke="black" cx="259" cy="-234" rx="59.59" ry="18"/>
<text text-anchor="middle" x="259" y="-230.3" font-family="Times,serif" font-size="14.00">XOR#_27_</text>
</g>
<!-- input#b[0]&#45;&gt;XOR#_27_ -->
<g id="edge5" class="edge">
<title>input#b[0]&#45;&gt;XOR#_27_</title>
<path fill="none" stroke="black" d="M156.43,-289.81C175.7,-279.51 201.35,-265.8 222.19,-254.67"/>
<polygon fill="black" stroke="black" points="223.91,-257.72 231.08,-249.92 220.61,-251.54 223.91,-257.72"/>
</g>
<!-- output#c[0] -->
<g id="node43" class="node">
<title>output#c[0]</title>
<ellipse fill="none" stroke="black" cx="346" cy="-162" rx="66.89" ry="18"/>
<text text-anchor="middle" x="346" y="-158.3" font-family="Times,serif" font-size="14.00">output#c[0]</text>
</g>
<!-- XOR#_27_&#45;&gt;output#c[0] -->
<g id="edge55" class="edge">
<title>XOR#_27_&#45;&gt;output#c[0]</title>
<path fill="none" stroke="black" d="M279.18,-216.76C290.63,-207.55 305.13,-195.88 317.7,-185.77"/>
<polygon fill="black" stroke="black" points="320.03,-188.39 325.63,-179.39 315.64,-182.93 320.03,-188.39"/>
</g>
<!-- input#a[0] -->
<g id="node7" class="node">
<title>input#a[0]</title>
<ellipse fill="none" stroke="black" cx="269" cy="-306" rx="61.19" ry="18"/>
<text text-anchor="middle" x="269" y="-302.3" font-family="Times,serif" font-size="14.00">input#a[0]</text>
</g>
<!-- input#a[0]&#45;&gt;AND#_12_ -->
<g id="edge6" class="edge">
<title>input#a[0]&#45;&gt;AND#_12_</title>
<path fill="none" stroke="black" d="M233.83,-320.77C188.1,-341.25 114,-384.4 114,-449 114,-1243 114,-1243 114,-1243 114,-1283 114,-1329.35 114,-1357.92"/>
<polygon fill="black" stroke="black" points="110.5,-1357.95 114,-1367.95 117.5,-1357.95 110.5,-1357.95"/>
</g>
<!-- input#a[0]&#45;&gt;XOR#_27_ -->
<g id="edge7" class="edge">
<title>input#a[0]&#45;&gt;XOR#_27_</title>
<path fill="none" stroke="black" d="M266.53,-287.7C265.43,-279.98 264.1,-270.71 262.87,-262.11"/>
<polygon fill="black" stroke="black" points="266.32,-261.51 261.44,-252.1 259.39,-262.5 266.32,-261.51"/>
</g>
<!-- NAND#_13_ -->
<g id="node8" class="node">
<title>NAND#_13_</title>
<ellipse fill="none" stroke="black" cx="1256" cy="-234" rx="68.49" ry="18"/>
<text text-anchor="middle" x="1256" y="-230.3" font-family="Times,serif" font-size="14.00">NAND#_13_</text>
</g>
<!-- wire#_01_ -->
<g id="node9" class="node">
<title>wire#_01_</title>
<ellipse fill="none" stroke="black" cx="1323" cy="-162" rx="59.59" ry="18"/>
<text text-anchor="middle" x="1323" y="-158.3" font-family="Times,serif" font-size="14.00">wire#_01_</text>
</g>
<!-- NAND#_13_&#45;&gt;wire#_01_ -->
<g id="edge8" class="edge">
<title>NAND#_13_&#45;&gt;wire#_01_</title>
<path fill="none" stroke="black" d="M1271.88,-216.41C1280.31,-207.61 1290.81,-196.63 1300.11,-186.92"/>
<polygon fill="black" stroke="black" points="1302.85,-189.11 1307.24,-179.47 1297.79,-184.27 1302.85,-189.11"/>
</g>
<!-- NAND#_17_ -->
<g id="node10" class="node">
<title>NAND#_17_</title>
<ellipse fill="none" stroke="black" cx="1470" cy="-1098" rx="68.49" ry="18"/>
<text text-anchor="middle" x="1470" y="-1094.3" font-family="Times,serif" font-size="14.00">NAND#_17_</text>
</g>
<!-- wire#_01_&#45;&gt;NAND#_17_ -->
<g id="edge9" class="edge">
<title>wire#_01_&#45;&gt;NAND#_17_</title>
<path fill="none" stroke="black" d="M1363.75,-175.35C1404.97,-188.19 1463.63,-207.58 1471,-216 1497.63,-246.44 1490,-264.55 1490,-305 1490,-955 1490,-955 1490,-955 1490,-995.18 1482.05,-1041.13 1476.18,-1069.61"/>
<polygon fill="black" stroke="black" points="1472.7,-1069.11 1474.05,-1079.62 1479.55,-1070.57 1472.7,-1069.11"/>
</g>
<!-- wire#_04_ -->
<g id="node16" class="node">
<title>wire#_04_</title>
<ellipse fill="none" stroke="black" cx="630" cy="-1026" rx="59.59" ry="18"/>
<text text-anchor="middle" x="630" y="-1022.3" font-family="Times,serif" font-size="14.00">wire#_04_</text>
</g>
<!-- NAND#_17_&#45;&gt;wire#_04_ -->
<g id="edge18" class="edge">
<title>NAND#_17_&#45;&gt;wire#_04_</title>
<path fill="none" stroke="black" d="M1405.83,-1091.65C1250.46,-1078.71 855.26,-1045.77 697.01,-1032.58"/>
<polygon fill="black" stroke="black" points="697.19,-1029.09 686.94,-1031.74 696.61,-1036.06 697.19,-1029.09"/>
</g>
<!-- input#b[1] -->
<g id="node11" class="node">
<title>input#b[1]</title>
<ellipse fill="none" stroke="black" cx="1394" cy="-306" rx="61.99" ry="18"/>
<text text-anchor="middle" x="1394" y="-302.3" font-family="Times,serif" font-size="14.00">input#b[1]</text>
</g>
<!-- input#b[1]&#45;&gt;NAND#_13_ -->
<g id="edge10" class="edge">
<title>input#b[1]&#45;&gt;NAND#_13_</title>
<path fill="none" stroke="black" d="M1364.4,-289.98C1344.16,-279.72 1317.13,-266.01 1295.12,-254.84"/>
<polygon fill="black" stroke="black" points="1296.53,-251.64 1286.03,-250.23 1293.37,-257.88 1296.53,-251.64"/>
</g>
<!-- XOR#_14_ -->
<g id="node12" class="node">
<title>XOR#_14_</title>
<ellipse fill="none" stroke="black" cx="1402" cy="-234" rx="59.59" ry="18"/>
<text text-anchor="middle" x="1402" y="-230.3" font-family="Times,serif" font-size="14.00">XOR#_14_</text>
</g>
<!-- input#b[1]&#45;&gt;XOR#_14_ -->
<g id="edge11" class="edge">
<title>input#b[1]&#45;&gt;XOR#_14_</title>
<path fill="none" stroke="black" d="M1395.98,-287.7C1396.86,-279.98 1397.92,-270.71 1398.9,-262.11"/>
<polygon fill="black" stroke="black" points="1402.39,-262.44 1400.05,-252.1 1395.43,-261.64 1402.39,-262.44"/>
</g>
<!-- wire#_02_ -->
<g id="node15" class="node">
<title>wire#_02_</title>
<ellipse fill="none" stroke="black" cx="1566" cy="-162" rx="59.59" ry="18"/>
<text text-anchor="middle" x="1566" y="-158.3" font-family="Times,serif" font-size="14.00">wire#_02_</text>
</g>
<!-- XOR#_14_&#45;&gt;wire#_02_ -->
<g id="edge46" class="edge">
<title>XOR#_14_&#45;&gt;wire#_02_</title>
<path fill="none" stroke="black" d="M1435.19,-218.83C1460.64,-207.97 1495.96,-192.9 1523.48,-181.15"/>
<polygon fill="black" stroke="black" points="1525.04,-184.29 1532.86,-177.14 1522.29,-177.85 1525.04,-184.29"/>
</g>
<!-- input#a[1] -->
<g id="node13" class="node">
<title>input#a[1]</title>
<ellipse fill="none" stroke="black" cx="1253" cy="-306" rx="61.19" ry="18"/>
<text text-anchor="middle" x="1253" y="-302.3" font-family="Times,serif" font-size="14.00">input#a[1]</text>
</g>
<!-- input#a[1]&#45;&gt;NAND#_13_ -->
<g id="edge12" class="edge">
<title>input#a[1]&#45;&gt;NAND#_13_</title>
<path fill="none" stroke="black" d="M1253.74,-287.7C1254.07,-279.98 1254.47,-270.71 1254.84,-262.11"/>
<polygon fill="black" stroke="black" points="1258.34,-262.25 1255.27,-252.1 1251.34,-261.95 1258.34,-262.25"/>
</g>
<!-- input#a[1]&#45;&gt;XOR#_14_ -->
<g id="edge13" class="edge">
<title>input#a[1]&#45;&gt;XOR#_14_</title>
<path fill="none" stroke="black" d="M1284.24,-290.33C1306.76,-279.74 1337.36,-265.37 1361.72,-253.92"/>
<polygon fill="black" stroke="black" points="1363.5,-256.95 1371.06,-249.53 1360.52,-250.62 1363.5,-256.95"/>
</g>
<!-- wire#_03_&#45;&gt;NAND#_17_ -->
<g id="edge15" class="edge">
<title>wire#_03_&#45;&gt;NAND#_17_</title>
<path fill="none" stroke="black" d="M1473.01,-1151.7C1472.57,-1143.98 1472.04,-1134.71 1471.55,-1126.11"/>
<polygon fill="black" stroke="black" points="1475.04,-1125.89 1470.98,-1116.1 1468.05,-1126.29 1475.04,-1125.89"/>
</g>
<!-- wire#_02_&#45;&gt;NAND#_15_ -->
<g id="edge16" class="edge">
<title>wire#_02_&#45;&gt;NAND#_15_</title>
<path fill="none" stroke="black" d="M1566,-180.05C1566,-206.71 1566,-259.89 1566,-305 1566,-1099 1566,-1099 1566,-1099 1566,-1141.51 1545.2,-1187.05 1529.91,-1214.78"/>
<polygon fill="black" stroke="black" points="1526.67,-1213.39 1524.77,-1223.81 1532.76,-1216.85 1526.67,-1213.39"/>
</g>
<!-- wire#_02_&#45;&gt;XOR#_16_ -->
<g id="edge17" class="edge">
<title>wire#_02_&#45;&gt;XOR#_16_</title>
<path fill="none" stroke="black" d="M1566,-143.7C1566,-135.98 1566,-126.71 1566,-118.11"/>
<polygon fill="black" stroke="black" points="1569.5,-118.1 1566,-108.1 1562.5,-118.1 1569.5,-118.1"/>
</g>
<!-- NAND#_20_ -->
<g id="node17" class="node">
<title>NAND#_20_</title>
<ellipse fill="none" stroke="black" cx="630" cy="-954" rx="68.49" ry="18"/>
<text text-anchor="middle" x="630" y="-950.3" font-family="Times,serif" font-size="14.00">NAND#_20_</text>
</g>
<!-- wire#_04_&#45;&gt;NAND#_20_ -->
<g id="edge19" class="edge">
<title>wire#_04_&#45;&gt;NAND#_20_</title>
<path fill="none" stroke="black" d="M630,-1007.7C630,-999.98 630,-990.71 630,-982.11"/>
<polygon fill="black" stroke="black" points="633.5,-982.1 630,-972.1 626.5,-982.1 633.5,-982.1"/>
</g>
<!-- XOR#_21_ -->
<g id="node18" class="node">
<title>XOR#_21_</title>
<ellipse fill="none" stroke="black" cx="528" cy="-90" rx="59.59" ry="18"/>
<text text-anchor="middle" x="528" y="-86.3" font-family="Times,serif" font-size="14.00">XOR#_21_</text>
</g>
<!-- wire#_04_&#45;&gt;XOR#_21_ -->
<g id="edge20" class="edge">
<title>wire#_04_&#45;&gt;XOR#_21_</title>
<path fill="none" stroke="black" d="M573.29,-1020.2C446.67,-1007.92 152,-970 152,-883 152,-883 152,-883 152,-665 152,-548.34 0,-567.66 0,-451 0,-451 0,-451 0,-233 0,-186.03 17.12,-168.82 57,-144 122.36,-103.33 343.78,-93.8 458.22,-91.61"/>
<polygon fill="black" stroke="black" points="458.35,-95.11 468.28,-91.43 458.22,-88.11 458.35,-95.11"/>
</g>
<!-- wire#_07_ -->
<g id="node25" class="node">
<title>wire#_07_</title>
<ellipse fill="none" stroke="black" cx="586" cy="-882" rx="59.59" ry="18"/>
<text text-anchor="middle" x="586" y="-878.3" font-family="Times,serif" font-size="14.00">wire#_07_</text>
</g>
<!-- NAND#_20_&#45;&gt;wire#_07_ -->
<g id="edge27" class="edge">
<title>NAND#_20_&#45;&gt;wire#_07_</title>
<path fill="none" stroke="black" d="M619.35,-936.05C614.16,-927.8 607.81,-917.7 602.05,-908.54"/>
<polygon fill="black" stroke="black" points="604.84,-906.39 596.55,-899.79 598.91,-910.12 604.84,-906.39"/>
</g>
<!-- output#c[2] -->
<g id="node41" class="node">
<title>output#c[2]</title>
<ellipse fill="none" stroke="black" cx="641" cy="-18" rx="66.89" ry="18"/>
<text text-anchor="middle" x="641" y="-14.3" font-family="Times,serif" font-size="14.00">output#c[2]</text>
</g>
<!-- XOR#_21_&#45;&gt;output#c[2] -->
<g id="edge50" class="edge">
<title>XOR#_21_&#45;&gt;output#c[2]</title>
<path fill="none" stroke="black" d="M553.08,-73.46C568.91,-63.66 589.58,-50.85 606.89,-40.13"/>
<polygon fill="black" stroke="black" points="608.94,-42.98 615.6,-34.73 605.26,-37.02 608.94,-42.98"/>
</g>
<!-- NAND#_18_ -->
<g id="node19" class="node">
<title>NAND#_18_</title>
<ellipse fill="none" stroke="black" cx="405" cy="-234" rx="68.49" ry="18"/>
<text text-anchor="middle" x="405" y="-230.3" font-family="Times,serif" font-size="14.00">NAND#_18_</text>
</g>
<!-- wire#_05_ -->
<g id="node20" class="node">
<title>wire#_05_</title>
<ellipse fill="none" stroke="black" cx="126" cy="-162" rx="59.59" ry="18"/>
<text text-anchor="middle" x="126" y="-158.3" font-family="Times,serif" font-size="14.00">wire#_05_</text>
</g>
<!-- NAND#_18_&#45;&gt;wire#_05_ -->
<g id="edge21" class="edge">
<title>NAND#_18_&#45;&gt;wire#_05_</title>
<path fill="none" stroke="black" d="M357.36,-221.05C308.33,-208.75 232.06,-189.61 180.62,-176.7"/>
<polygon fill="black" stroke="black" points="181.23,-173.25 170.68,-174.21 179.53,-180.04 181.23,-173.25"/>
</g>
<!-- NAND#_22_ -->
<g id="node21" class="node">
<title>NAND#_22_</title>
<ellipse fill="none" stroke="black" cx="582" cy="-810" rx="68.49" ry="18"/>
<text text-anchor="middle" x="582" y="-806.3" font-family="Times,serif" font-size="14.00">NAND#_22_</text>
</g>
<!-- wire#_05_&#45;&gt;NAND#_22_ -->
<g id="edge22" class="edge">
<title>wire#_05_&#45;&gt;NAND#_22_</title>
<path fill="none" stroke="black" d="M107.34,-179.31C81.51,-203.8 38,-252.79 38,-305 38,-451 38,-451 38,-451 38,-511.67 420.48,-722.3 544.02,-788.75"/>
<polygon fill="black" stroke="black" points="542.67,-792 553.14,-793.65 545.98,-785.83 542.67,-792"/>
</g>
<!-- wire#_08_ -->
<g id="node27" class="node">
<title>wire#_08_</title>
<ellipse fill="none" stroke="black" cx="582" cy="-738" rx="59.59" ry="18"/>
<text text-anchor="middle" x="582" y="-734.3" font-family="Times,serif" font-size="14.00">wire#_08_</text>
</g>
<!-- NAND#_22_&#45;&gt;wire#_08_ -->
<g id="edge31" class="edge">
<title>NAND#_22_&#45;&gt;wire#_08_</title>
<path fill="none" stroke="black" d="M582,-791.7C582,-783.98 582,-774.71 582,-766.11"/>
<polygon fill="black" stroke="black" points="585.5,-766.1 582,-756.1 578.5,-766.1 585.5,-766.1"/>
</g>
<!-- input#b[2] -->
<g id="node22" class="node">
<title>input#b[2]</title>
<ellipse fill="none" stroke="black" cx="410" cy="-306" rx="61.99" ry="18"/>
<text text-anchor="middle" x="410" y="-302.3" font-family="Times,serif" font-size="14.00">input#b[2]</text>
</g>
<!-- input#b[2]&#45;&gt;NAND#_18_ -->
<g id="edge23" class="edge">
<title>input#b[2]&#45;&gt;NAND#_18_</title>
<path fill="none" stroke="black" d="M408.76,-287.7C408.21,-279.98 407.55,-270.71 406.94,-262.11"/>
<polygon fill="black" stroke="black" points="410.43,-261.83 406.22,-252.1 403.44,-262.33 410.43,-261.83"/>
</g>
<!-- XOR#_19_ -->
<g id="node23" class="node">
<title>XOR#_19_</title>
<ellipse fill="none" stroke="black" cx="551" cy="-234" rx="59.59" ry="18"/>
<text text-anchor="middle" x="551" y="-230.3" font-family="Times,serif" font-size="14.00">XOR#_19_</text>
</g>
<!-- input#b[2]&#45;&gt;XOR#_19_ -->
<g id="edge24" class="edge">
<title>input#b[2]&#45;&gt;XOR#_19_</title>
<path fill="none" stroke="black" d="M439.9,-290.15C460.93,-279.71 489.28,-265.64 512.07,-254.33"/>
<polygon fill="black" stroke="black" points="513.74,-257.41 521.14,-249.82 510.63,-251.14 513.74,-257.41"/>
</g>
<!-- wire#_06_ -->
<g id="node26" class="node">
<title>wire#_06_</title>
<ellipse fill="none" stroke="black" cx="528" cy="-162" rx="59.59" ry="18"/>
<text text-anchor="middle" x="528" y="-158.3" font-family="Times,serif" font-size="14.00">wire#_06_</text>
</g>
<!-- XOR#_19_&#45;&gt;wire#_06_ -->
<g id="edge49" class="edge">
<title>XOR#_19_&#45;&gt;wire#_06_</title>
<path fill="none" stroke="black" d="M545.43,-216.05C542.84,-208.18 539.7,-198.62 536.8,-189.79"/>
<polygon fill="black" stroke="black" points="540.12,-188.68 533.68,-180.28 533.47,-190.87 540.12,-188.68"/>
</g>
<!-- input#a[2] -->
<g id="node24" class="node">
<title>input#a[2]</title>
<ellipse fill="none" stroke="black" cx="551" cy="-306" rx="61.19" ry="18"/>
<text text-anchor="middle" x="551" y="-302.3" font-family="Times,serif" font-size="14.00">input#a[2]</text>
</g>
<!-- input#a[2]&#45;&gt;NAND#_18_ -->
<g id="edge25" class="edge">
<title>input#a[2]&#45;&gt;NAND#_18_</title>
<path fill="none" stroke="black" d="M520.39,-290.33C498.62,-279.88 469.14,-265.75 445.43,-254.38"/>
<polygon fill="black" stroke="black" points="446.85,-251.18 436.32,-250.02 443.83,-257.5 446.85,-251.18"/>
</g>
<!-- input#a[2]&#45;&gt;XOR#_19_ -->
<g id="edge26" class="edge">
<title>input#a[2]&#45;&gt;XOR#_19_</title>
<path fill="none" stroke="black" d="M551,-287.7C551,-279.98 551,-270.71 551,-262.11"/>
<polygon fill="black" stroke="black" points="554.5,-262.1 551,-252.1 547.5,-262.1 554.5,-262.1"/>
</g>
<!-- wire#_07_&#45;&gt;NAND#_22_ -->
<g id="edge28" class="edge">
<title>wire#_07_&#45;&gt;NAND#_22_</title>
<path fill="none" stroke="black" d="M585.01,-863.7C584.57,-855.98 584.04,-846.71 583.55,-838.11"/>
<polygon fill="black" stroke="black" points="587.04,-837.89 582.98,-828.1 580.05,-838.29 587.04,-837.89"/>
</g>
<!-- wire#_06_&#45;&gt;NAND#_20_ -->
<g id="edge29" class="edge">
<title>wire#_06_&#45;&gt;NAND#_20_</title>
<path fill="none" stroke="black" d="M564,-176.55C582.93,-185.28 605.21,-198.33 620,-216 668.82,-274.32 678,-300.94 678,-377 678,-811 678,-811 678,-811 678,-853.37 658.59,-899.28 644.45,-927.09"/>
<polygon fill="black" stroke="black" points="641.25,-925.65 639.71,-936.14 647.45,-928.9 641.25,-925.65"/>
</g>
<!-- wire#_06_&#45;&gt;XOR#_21_ -->
<g id="edge30" class="edge">
<title>wire#_06_&#45;&gt;XOR#_21_</title>
<path fill="none" stroke="black" d="M528,-143.7C528,-135.98 528,-126.71 528,-118.11"/>
<polygon fill="black" stroke="black" points="531.5,-118.1 528,-108.1 524.5,-118.1 531.5,-118.1"/>
</g>
<!-- NAND#_25_ -->
<g id="node28" class="node">
<title>NAND#_25_</title>
<ellipse fill="none" stroke="black" cx="582" cy="-666" rx="68.49" ry="18"/>
<text text-anchor="middle" x="582" y="-662.3" font-family="Times,serif" font-size="14.00">NAND#_25_</text>
</g>
<!-- wire#_08_&#45;&gt;NAND#_25_ -->
<g id="edge32" class="edge">
<title>wire#_08_&#45;&gt;NAND#_25_</title>
<path fill="none" stroke="black" d="M582,-719.7C582,-711.98 582,-702.71 582,-694.11"/>
<polygon fill="black" stroke="black" points="585.5,-694.1 582,-684.1 578.5,-694.1 585.5,-694.1"/>
</g>
<!-- XOR#_26_ -->
<g id="node29" class="node">
<title>XOR#_26_</title>
<ellipse fill="none" stroke="black" cx="1034" cy="-90" rx="59.59" ry="18"/>
<text text-anchor="middle" x="1034" y="-86.3" font-family="Times,serif" font-size="14.00">XOR#_26_</text>
</g>
<!-- wire#_08_&#45;&gt;XOR#_26_ -->
<g id="edge33" class="edge">
<title>wire#_08_&#45;&gt;XOR#_26_</title>
<path fill="none" stroke="black" d="M640.1,-733.67C834.78,-721.76 1452,-677.5 1452,-595 1452,-595 1452,-595 1452,-521 1452,-383.49 1569.89,-336.7 1504,-216 1475.64,-164.06 1447.4,-164.8 1392,-144 1296.22,-108.04 1177.43,-96.38 1103.67,-92.66"/>
<polygon fill="black" stroke="black" points="1103.72,-89.16 1093.56,-92.19 1103.39,-96.15 1103.72,-89.16"/>
</g>
<!-- wire#_11_ -->
<g id="node36" class="node">
<title>wire#_11_</title>
<ellipse fill="none" stroke="black" cx="582" cy="-594" rx="59.59" ry="18"/>
<text text-anchor="middle" x="582" y="-590.3" font-family="Times,serif" font-size="14.00">wire#_11_</text>
</g>
<!-- NAND#_25_&#45;&gt;wire#_11_ -->
<g id="edge40" class="edge">
<title>NAND#_25_&#45;&gt;wire#_11_</title>
<path fill="none" stroke="black" d="M582,-647.7C582,-639.98 582,-630.71 582,-622.11"/>
<polygon fill="black" stroke="black" points="585.5,-622.1 582,-612.1 578.5,-622.1 585.5,-622.1"/>
</g>
<!-- output#c[3] -->
<g id="node42" class="node">
<title>output#c[3]</title>
<ellipse fill="none" stroke="black" cx="986" cy="-18" rx="66.89" ry="18"/>
<text text-anchor="middle" x="986" y="-14.3" font-family="Times,serif" font-size="14.00">output#c[3]</text>
</g>
<!-- XOR#_26_&#45;&gt;output#c[3] -->
<g id="edge53" class="edge">
<title>XOR#_26_&#45;&gt;output#c[3]</title>
<path fill="none" stroke="black" d="M1022.38,-72.05C1016.66,-63.71 1009.65,-53.49 1003.32,-44.25"/>
<polygon fill="black" stroke="black" points="1006.05,-42.06 997.51,-35.79 1000.28,-46.02 1006.05,-42.06"/>
</g>
<!-- NAND#_23_ -->
<g id="node30" class="node">
<title>NAND#_23_</title>
<ellipse fill="none" stroke="black" cx="888" cy="-234" rx="68.49" ry="18"/>
<text text-anchor="middle" x="888" y="-230.3" font-family="Times,serif" font-size="14.00">NAND#_23_</text>
</g>
<!-- wire#_09_ -->
<g id="node31" class="node">
<title>wire#_09_</title>
<ellipse fill="none" stroke="black" cx="666" cy="-162" rx="59.59" ry="18"/>
<text text-anchor="middle" x="666" y="-158.3" font-family="Times,serif" font-size="14.00">wire#_09_</text>
</g>
<!-- NAND#_23_&#45;&gt;wire#_09_ -->
<g id="edge34" class="edge">
<title>NAND#_23_&#45;&gt;wire#_09_</title>
<path fill="none" stroke="black" d="M845.98,-219.75C808.78,-208.02 754.46,-190.89 715.24,-178.52"/>
<polygon fill="black" stroke="black" points="716.2,-175.16 705.61,-175.49 714.09,-181.83 716.2,-175.16"/>
</g>
<!-- NAND#_28_ -->
<g id="node32" class="node">
<title>NAND#_28_</title>
<ellipse fill="none" stroke="black" cx="582" cy="-522" rx="68.49" ry="18"/>
<text text-anchor="middle" x="582" y="-518.3" font-family="Times,serif" font-size="14.00">NAND#_28_</text>
</g>
<!-- wire#_09_&#45;&gt;NAND#_28_ -->
<g id="edge35" class="edge">
<title>wire#_09_&#45;&gt;NAND#_28_</title>
<path fill="none" stroke="black" d="M661.99,-180.09C648.52,-237.49 604.84,-423.66 588.37,-493.87"/>
<polygon fill="black" stroke="black" points="584.93,-493.2 586.05,-503.73 591.74,-494.8 584.93,-493.2"/>
</g>
<!-- output#c[4] -->
<g id="node38" class="node">
<title>output#c[4]</title>
<ellipse fill="none" stroke="black" cx="773" cy="-450" rx="66.89" ry="18"/>
<text text-anchor="middle" x="773" y="-446.3" font-family="Times,serif" font-size="14.00">output#c[4]</text>
</g>
<!-- NAND#_28_&#45;&gt;output#c[4] -->
<g id="edge44" class="edge">
<title>NAND#_28_&#45;&gt;output#c[4]</title>
<path fill="none" stroke="black" d="M620.19,-507C650.38,-495.94 692.7,-480.43 725.14,-468.54"/>
<polygon fill="black" stroke="black" points="726.69,-471.7 734.87,-464.97 724.28,-465.13 726.69,-471.7"/>
</g>
<!-- input#b[3] -->
<g id="node33" class="node">
<title>input#b[3]</title>
<ellipse fill="none" stroke="black" cx="885" cy="-306" rx="61.99" ry="18"/>
<text text-anchor="middle" x="885" y="-302.3" font-family="Times,serif" font-size="14.00">input#b[3]</text>
</g>
<!-- input#b[3]&#45;&gt;NAND#_23_ -->
<g id="edge36" class="edge">
<title>input#b[3]&#45;&gt;NAND#_23_</title>
<path fill="none" stroke="black" d="M885.74,-287.7C886.07,-279.98 886.47,-270.71 886.84,-262.11"/>
<polygon fill="black" stroke="black" points="890.34,-262.25 887.27,-252.1 883.34,-261.95 890.34,-262.25"/>
</g>
<!-- XOR#_24_ -->
<g id="node34" class="node">
<title>XOR#_24_</title>
<ellipse fill="none" stroke="black" cx="1034" cy="-234" rx="59.59" ry="18"/>
<text text-anchor="middle" x="1034" y="-230.3" font-family="Times,serif" font-size="14.00">XOR#_24_</text>
</g>
<!-- input#b[3]&#45;&gt;XOR#_24_ -->
<g id="edge37" class="edge">
<title>input#b[3]&#45;&gt;XOR#_24_</title>
<path fill="none" stroke="black" d="M916.24,-290.33C938.76,-279.74 969.36,-265.37 993.72,-253.92"/>
<polygon fill="black" stroke="black" points="995.5,-256.95 1003.06,-249.53 992.52,-250.62 995.5,-256.95"/>
</g>
<!-- wire#_10_ -->
<g id="node37" class="node">
<title>wire#_10_</title>
<ellipse fill="none" stroke="black" cx="1034" cy="-162" rx="59.59" ry="18"/>
<text text-anchor="middle" x="1034" y="-158.3" font-family="Times,serif" font-size="14.00">wire#_10_</text>
</g>
<!-- XOR#_24_&#45;&gt;wire#_10_ -->
<g id="edge52" class="edge">
<title>XOR#_24_&#45;&gt;wire#_10_</title>
<path fill="none" stroke="black" d="M1034,-215.7C1034,-207.98 1034,-198.71 1034,-190.11"/>
<polygon fill="black" stroke="black" points="1037.5,-190.1 1034,-180.1 1030.5,-190.1 1037.5,-190.1"/>
</g>
<!-- input#a[3] -->
<g id="node35" class="node">
<title>input#a[3]</title>
<ellipse fill="none" stroke="black" cx="1026" cy="-306" rx="61.19" ry="18"/>
<text text-anchor="middle" x="1026" y="-302.3" font-family="Times,serif" font-size="14.00">input#a[3]</text>
</g>
<!-- input#a[3]&#45;&gt;NAND#_23_ -->
<g id="edge38" class="edge">
<title>input#a[3]&#45;&gt;NAND#_23_</title>
<path fill="none" stroke="black" d="M996.73,-290.15C976.52,-279.9 949.4,-266.15 927.31,-254.94"/>
<polygon fill="black" stroke="black" points="928.68,-251.71 918.18,-250.31 925.51,-257.95 928.68,-251.71"/>
</g>
<!-- input#a[3]&#45;&gt;XOR#_24_ -->
<g id="edge39" class="edge">
<title>input#a[3]&#45;&gt;XOR#_24_</title>
<path fill="none" stroke="black" d="M1027.98,-287.7C1028.86,-279.98 1029.92,-270.71 1030.9,-262.11"/>
<polygon fill="black" stroke="black" points="1034.39,-262.44 1032.05,-252.1 1027.43,-261.64 1034.39,-262.44"/>
</g>
<!-- wire#_11_&#45;&gt;NAND#_28_ -->
<g id="edge41" class="edge">
<title>wire#_11_&#45;&gt;NAND#_28_</title>
<path fill="none" stroke="black" d="M582,-575.7C582,-567.98 582,-558.71 582,-550.11"/>
<polygon fill="black" stroke="black" points="585.5,-550.1 582,-540.1 578.5,-550.1 585.5,-550.1"/>
</g>
<!-- wire#_10_&#45;&gt;NAND#_25_ -->
<g id="edge42" class="edge">
<title>wire#_10_&#45;&gt;NAND#_25_</title>
<path fill="none" stroke="black" d="M1061.65,-177.99C1098.74,-200.34 1160,-246.17 1160,-305 1160,-523 1160,-523 1160,-523 1160,-624.93 816.7,-654.09 659.25,-662.1"/>
<polygon fill="black" stroke="black" points="658.97,-658.61 649.15,-662.6 659.31,-665.6 658.97,-658.61"/>
</g>
<!-- wire#_10_&#45;&gt;XOR#_26_ -->
<g id="edge43" class="edge">
<title>wire#_10_&#45;&gt;XOR#_26_</title>
<path fill="none" stroke="black" d="M1034,-143.7C1034,-135.98 1034,-126.71 1034,-118.11"/>
<polygon fill="black" stroke="black" points="1037.5,-118.1 1034,-108.1 1030.5,-118.1 1037.5,-118.1"/>
</g>
<!-- module#ckt -->
<g id="node39" class="node">
<title>module#ckt</title>
<ellipse fill="none" stroke="black" cx="773" cy="-378" rx="66.89" ry="18"/>
<text text-anchor="middle" x="773" y="-374.3" font-family="Times,serif" font-size="14.00">module#ckt</text>
</g>
<!-- output#c[4]&#45;&gt;module#ckt -->
<g id="edge45" class="edge">
<title>output#c[4]&#45;&gt;module#ckt</title>
<path fill="none" stroke="black" d="M773,-431.7C773,-423.98 773,-414.71 773,-406.11"/>
<polygon fill="black" stroke="black" points="776.5,-406.1 773,-396.1 769.5,-406.1 776.5,-406.1"/>
</g>
<!-- module#ckt&#45;&gt;input#b[0] -->
<g id="edge57" class="edge">
<title>module#ckt&#45;&gt;input#b[0]</title>
<path fill="none" stroke="black" d="M707.62,-374.01C600.68,-368.44 381.92,-354.18 199,-324 193.53,-323.1 187.85,-322.01 182.2,-320.82"/>
<polygon fill="black" stroke="black" points="182.63,-317.33 172.11,-318.59 181.13,-324.16 182.63,-317.33"/>
</g>
<!-- module#ckt&#45;&gt;input#a[0] -->
<g id="edge58" class="edge">
<title>module#ckt&#45;&gt;input#a[0]</title>
<path fill="none" stroke="black" d="M710.13,-371.64C625.4,-363.9 470.07,-347.83 339,-324 333.9,-323.07 328.62,-322 323.35,-320.85"/>
<polygon fill="black" stroke="black" points="323.8,-317.37 313.27,-318.58 322.25,-324.2 323.8,-317.37"/>
</g>
<!-- module#ckt&#45;&gt;input#b[1] -->
<g id="edge59" class="edge">
<title>module#ckt&#45;&gt;input#b[1]</title>
<path fill="none" stroke="black" d="M838.15,-373.66C941.51,-367.7 1149.14,-353.05 1323,-324 1328.39,-323.1 1333.98,-322.02 1339.55,-320.85"/>
<polygon fill="black" stroke="black" points="1340.49,-324.22 1349.5,-318.65 1338.98,-317.39 1340.49,-324.22"/>
</g>
<!-- module#ckt&#45;&gt;input#a[1] -->
<g id="edge60" class="edge">
<title>module#ckt&#45;&gt;input#a[1]</title>
<path fill="none" stroke="black" d="M830.42,-368.63C920.82,-355.44 1095.66,-329.94 1189.62,-316.24"/>
<polygon fill="black" stroke="black" points="1190.17,-319.7 1199.56,-314.79 1189.16,-312.77 1190.17,-319.7"/>
</g>
<!-- module#ckt&#45;&gt;input#b[2] -->
<g id="edge61" class="edge">
<title>module#ckt&#45;&gt;input#b[2]</title>
<path fill="none" stroke="black" d="M717.39,-367.85C658.5,-357.94 562.93,-341.23 481,-324 475.94,-322.94 470.68,-321.78 465.43,-320.58"/>
<polygon fill="black" stroke="black" points="465.9,-317.1 455.37,-318.26 464.32,-323.92 465.9,-317.1"/>
</g>
<!-- module#ckt&#45;&gt;input#a[2] -->
<g id="edge62" class="edge">
<title>module#ckt&#45;&gt;input#a[2]</title>
<path fill="none" stroke="black" d="M731.24,-363.83C694.19,-352.15 640,-335.06 600.72,-322.68"/>
<polygon fill="black" stroke="black" points="601.66,-319.31 591.07,-319.64 599.56,-325.98 601.66,-319.31"/>
</g>
<!-- module#ckt&#45;&gt;input#b[3] -->
<g id="edge63" class="edge">
<title>module#ckt&#45;&gt;input#b[3]</title>
<path fill="none" stroke="black" d="M798.13,-361.29C813.84,-351.47 834.26,-338.71 851.36,-328.03"/>
<polygon fill="black" stroke="black" points="853.32,-330.92 859.95,-322.66 849.61,-324.99 853.32,-330.92"/>
</g>
<!-- module#ckt&#45;&gt;input#a[3] -->
<g id="edge64" class="edge">
<title>module#ckt&#45;&gt;input#a[3]</title>
<path fill="none" stroke="black" d="M817.94,-364.57C861.46,-352.52 927.44,-334.27 973.39,-321.56"/>
<polygon fill="black" stroke="black" points="974.46,-324.89 983.17,-318.85 972.59,-318.14 974.46,-324.89"/>
</g>
<!-- output#c[1]&#45;&gt;module#ckt -->
<g id="edge48" class="edge">
<title>output#c[1]&#45;&gt;module#ckt</title>
<path fill="none" stroke="black" d="M1160.29,-35.86C1146.26,-61.85 1122,-113.64 1122,-161 1122,-235 1122,-235 1122,-235 1122,-276.21 1126.86,-296.69 1096,-324 1060.27,-355.63 932.44,-368.57 848.71,-373.73"/>
<polygon fill="black" stroke="black" points="848.5,-370.23 838.72,-374.32 848.91,-377.22 848.5,-370.23"/>
</g>
<!-- output#c[2]&#45;&gt;module#ckt -->
<g id="edge51" class="edge">
<title>output#c[2]&#45;&gt;module#ckt</title>
<path fill="none" stroke="black" d="M666.08,-34.9C699.37,-58.17 754,-104.92 754,-161 754,-235 754,-235 754,-235 754,-275.14 761.55,-321.1 767.13,-349.6"/>
<polygon fill="black" stroke="black" points="763.74,-350.5 769.16,-359.61 770.61,-349.12 763.74,-350.5"/>
</g>
<!-- output#c[3]&#45;&gt;module#ckt -->
<g id="edge54" class="edge">
<title>output#c[3]&#45;&gt;module#ckt</title>
<path fill="none" stroke="black" d="M939.04,-31.02C881.62,-48.87 792,-88.37 792,-161 792,-235 792,-235 792,-235 792,-275.14 784.45,-321.1 778.87,-349.6"/>
<polygon fill="black" stroke="black" points="775.39,-349.12 776.84,-359.61 782.26,-350.5 775.39,-349.12"/>
</g>
<!-- output#c[0]&#45;&gt;module#ckt -->
<g id="edge56" class="edge">
<title>output#c[0]&#45;&gt;module#ckt</title>
<path fill="none" stroke="black" d="M401.86,-171.93C476.36,-184.13 601.12,-205.66 620,-216 680.8,-249.29 731.65,-315.22 756.55,-351.53"/>
<polygon fill="black" stroke="black" points="753.82,-353.74 762.31,-360.08 759.63,-349.83 753.82,-353.74"/>
</g>
</g>
</svg>
