<?xml version="1.0" encoding="UTF-8" standalone="no"?>
<!DOCTYPE svg PUBLIC "-//W3C//DTD SVG 1.1//EN"
 "http://www.w3.org/Graphics/SVG/1.1/DTD/svg11.dtd">
<!-- Generated by graphviz version 2.43.0 (0)
 -->
<!-- Pages: 1 -->
<svg width="2820pt" height="260pt"
 viewBox="0.00 0.00 2820.46 260.00" xmlns="http://www.w3.org/2000/svg" xmlns:xlink="http://www.w3.org/1999/xlink">
<g id="graph0" class="graph" transform="scale(1 1) rotate(0) translate(4 256)">
<polygon fill="white" stroke="transparent" points="-4,4 -4,-256 2816.46,-256 2816.46,4 -4,4"/>
<!-- module#locked -->
<g id="node1" class="node">
<title>module#locked</title>
<ellipse fill="none" stroke="black" cx="1406.23" cy="-234" rx="82.59" ry="18"/>
<text text-anchor="middle" x="1406.23" y="-230.3" font-family="Times,serif" font-size="14.00">module#locked</text>
</g>
<!-- input#inputs[0] -->
<g id="node2" class="node">
<title>input#inputs[0]</title>
<ellipse fill="none" stroke="black" cx="748.23" cy="-162" rx="85.29" ry="18"/>
<text text-anchor="middle" x="748.23" y="-158.3" font-family="Times,serif" font-size="14.00">input#inputs[0]</text>
</g>
<!-- module#locked&#45;&gt;input#inputs[0] -->
<g id="edge1" class="edge">
<title>module#locked&#45;&gt;input#inputs[0]</title>
<path fill="none" stroke="black" d="M1328.44,-227.8C1219.44,-220.03 1015.18,-203.72 842.23,-180 834.6,-178.95 826.65,-177.73 818.75,-176.42"/>
<polygon fill="black" stroke="black" points="819.23,-172.96 808.79,-174.73 818.06,-179.86 819.23,-172.96"/>
</g>
<!-- input#inputs[1] -->
<g id="node3" class="node">
<title>input#inputs[1]</title>
<ellipse fill="none" stroke="black" cx="936.23" cy="-162" rx="85.29" ry="18"/>
<text text-anchor="middle" x="936.23" y="-158.3" font-family="Times,serif" font-size="14.00">input#inputs[1]</text>
</g>
<!-- module#locked&#45;&gt;input#inputs[1] -->
<g id="edge2" class="edge">
<title>module#locked&#45;&gt;input#inputs[1]</title>
<path fill="none" stroke="black" d="M1337.15,-224.08C1261.64,-214.14 1137.13,-197.19 1030.23,-180 1022.94,-178.83 1015.35,-177.55 1007.77,-176.24"/>
<polygon fill="black" stroke="black" points="1008.31,-172.78 997.86,-174.5 1007.1,-179.67 1008.31,-172.78"/>
</g>
<!-- input#inputs[2] -->
<g id="node4" class="node">
<title>input#inputs[2]</title>
<ellipse fill="none" stroke="black" cx="1124.23" cy="-162" rx="85.29" ry="18"/>
<text text-anchor="middle" x="1124.23" y="-158.3" font-family="Times,serif" font-size="14.00">input#inputs[2]</text>
</g>
<!-- module#locked&#45;&gt;input#inputs[2] -->
<g id="edge3" class="edge">
<title>module#locked&#45;&gt;input#inputs[2]</title>
<path fill="none" stroke="black" d="M1353.85,-220C1306.66,-208.28 1237.2,-191.04 1187.05,-178.59"/>
<polygon fill="black" stroke="black" points="1187.83,-175.18 1177.29,-176.17 1186.15,-181.98 1187.83,-175.18"/>
</g>
<!-- input#inputs[3] -->
<g id="node5" class="node">
<title>input#inputs[3]</title>
<ellipse fill="none" stroke="black" cx="1312.23" cy="-162" rx="85.29" ry="18"/>
<text text-anchor="middle" x="1312.23" y="-158.3" font-family="Times,serif" font-size="14.00">input#inputs[3]</text>
</g>
<!-- module#locked&#45;&gt;input#inputs[3] -->
<g id="edge4" class="edge">
<title>module#locked&#45;&gt;input#inputs[3]</title>
<path fill="none" stroke="black" d="M1383.95,-216.41C1371.54,-207.17 1355.92,-195.54 1342.42,-185.49"/>
<polygon fill="black" stroke="black" points="1344.46,-182.64 1334.34,-179.47 1340.27,-188.25 1344.46,-182.64"/>
</g>
<!-- input#inputs[4] -->
<g id="node6" class="node">
<title>input#inputs[4]</title>
<ellipse fill="none" stroke="black" cx="1500.23" cy="-162" rx="85.29" ry="18"/>
<text text-anchor="middle" x="1500.23" y="-158.3" font-family="Times,serif" font-size="14.00">input#inputs[4]</text>
</g>
<!-- module#locked&#45;&gt;input#inputs[4] -->
<g id="edge5" class="edge">
<title>module#locked&#45;&gt;input#inputs[4]</title>
<path fill="none" stroke="black" d="M1428.5,-216.41C1440.91,-207.17 1456.54,-195.54 1470.03,-185.49"/>
<polygon fill="black" stroke="black" points="1472.18,-188.25 1478.11,-179.47 1468,-182.64 1472.18,-188.25"/>
</g>
<!-- input#inputs[5] -->
<g id="node7" class="node">
<title>input#inputs[5]</title>
<ellipse fill="none" stroke="black" cx="1688.23" cy="-162" rx="85.29" ry="18"/>
<text text-anchor="middle" x="1688.23" y="-158.3" font-family="Times,serif" font-size="14.00">input#inputs[5]</text>
</g>
<!-- module#locked&#45;&gt;input#inputs[5] -->
<g id="edge6" class="edge">
<title>module#locked&#45;&gt;input#inputs[5]</title>
<path fill="none" stroke="black" d="M1458.61,-220C1505.8,-208.28 1575.25,-191.04 1625.41,-178.59"/>
<polygon fill="black" stroke="black" points="1626.31,-181.98 1635.17,-176.17 1624.62,-175.18 1626.31,-181.98"/>
</g>
<!-- input#inputs[6] -->
<g id="node8" class="node">
<title>input#inputs[6]</title>
<ellipse fill="none" stroke="black" cx="1876.23" cy="-162" rx="85.29" ry="18"/>
<text text-anchor="middle" x="1876.23" y="-158.3" font-family="Times,serif" font-size="14.00">input#inputs[6]</text>
</g>
<!-- module#locked&#45;&gt;input#inputs[6] -->
<g id="edge7" class="edge">
<title>module#locked&#45;&gt;input#inputs[6]</title>
<path fill="none" stroke="black" d="M1475.3,-224.08C1550.82,-214.14 1675.32,-197.19 1782.23,-180 1789.51,-178.83 1797.11,-177.55 1804.68,-176.24"/>
<polygon fill="black" stroke="black" points="1805.35,-179.67 1814.6,-174.5 1804.15,-172.78 1805.35,-179.67"/>
</g>
<!-- input#inputs[7] -->
<g id="node9" class="node">
<title>input#inputs[7]</title>
<ellipse fill="none" stroke="black" cx="2064.23" cy="-162" rx="85.29" ry="18"/>
<text text-anchor="middle" x="2064.23" y="-158.3" font-family="Times,serif" font-size="14.00">input#inputs[7]</text>
</g>
<!-- module#locked&#45;&gt;input#inputs[7] -->
<g id="edge8" class="edge">
<title>module#locked&#45;&gt;input#inputs[7]</title>
<path fill="none" stroke="black" d="M1484.01,-227.8C1593.02,-220.03 1797.28,-203.72 1970.23,-180 1977.85,-178.95 1985.8,-177.73 1993.71,-176.42"/>
<polygon fill="black" stroke="black" points="1994.4,-179.86 2003.67,-174.73 1993.23,-172.96 1994.4,-179.86"/>
</g>
<!-- input#key[0] -->
<g id="node10" class="node">
<title>input#key[0]</title>
<ellipse fill="none" stroke="black" cx="2239.23" cy="-162" rx="71.49" ry="18"/>
<text text-anchor="middle" x="2239.23" y="-158.3" font-family="Times,serif" font-size="14.00">input#key[0]</text>
</g>
<!-- module#locked&#45;&gt;input#key[0] -->
<g id="edge9" class="edge">
<title>module#locked&#45;&gt;input#key[0]</title>
<path fill="none" stroke="black" d="M1487.56,-230.9C1625.92,-226.53 1915.67,-213.84 2158.23,-180 2164.83,-179.08 2171.69,-177.94 2178.51,-176.68"/>
<polygon fill="black" stroke="black" points="2179.27,-180.1 2188.43,-174.77 2177.95,-173.22 2179.27,-180.1"/>
</g>
<!-- input#key[1] -->
<g id="node11" class="node">
<title>input#key[1]</title>
<ellipse fill="none" stroke="black" cx="2400.23" cy="-162" rx="71.49" ry="18"/>
<text text-anchor="middle" x="2400.23" y="-158.3" font-family="Times,serif" font-size="14.00">input#key[1]</text>
</g>
<!-- module#locked&#45;&gt;input#key[1] -->
<g id="edge10" class="edge">
<title>module#locked&#45;&gt;input#key[1]</title>
<path fill="none" stroke="black" d="M1488.46,-232.32C1648.91,-230.09 2014.69,-220.57 2319.23,-180 2325.93,-179.11 2332.9,-177.97 2339.82,-176.71"/>
<polygon fill="black" stroke="black" points="2340.71,-180.1 2349.87,-174.78 2339.39,-173.22 2340.71,-180.1"/>
</g>
<!-- input#key[2] -->
<g id="node12" class="node">
<title>input#key[2]</title>
<ellipse fill="none" stroke="black" cx="2561.23" cy="-162" rx="71.49" ry="18"/>
<text text-anchor="middle" x="2561.23" y="-158.3" font-family="Times,serif" font-size="14.00">input#key[2]</text>
</g>
<!-- module#locked&#45;&gt;input#key[2] -->
<g id="edge11" class="edge">
<title>module#locked&#45;&gt;input#key[2]</title>
<path fill="none" stroke="black" d="M1488.81,-233.34C1669.4,-233.13 2112.69,-227.34 2480.23,-180 2486.93,-179.14 2493.9,-178.02 2500.82,-176.76"/>
<polygon fill="black" stroke="black" points="2501.72,-180.16 2510.88,-174.85 2500.4,-173.28 2501.72,-180.16"/>
</g>
<!-- input#key[3] -->
<g id="node13" class="node">
<title>input#key[3]</title>
<ellipse fill="none" stroke="black" cx="2722.23" cy="-162" rx="71.49" ry="18"/>
<text text-anchor="middle" x="2722.23" y="-158.3" font-family="Times,serif" font-size="14.00">input#key[3]</text>
</g>
<!-- module#locked&#45;&gt;input#key[3] -->
<g id="edge12" class="edge">
<title>module#locked&#45;&gt;input#key[3]</title>
<path fill="none" stroke="black" d="M1488.16,-231.24C1726.55,-225.84 2417.11,-208.13 2641.23,-180 2647.93,-179.16 2654.91,-178.05 2661.83,-176.81"/>
<polygon fill="black" stroke="black" points="2662.72,-180.2 2671.89,-174.9 2661.41,-173.32 2662.72,-180.2"/>
</g>
<!-- input#key[4] -->
<g id="node14" class="node">
<title>input#key[4]</title>
<ellipse fill="none" stroke="black" cx="90.23" cy="-162" rx="71.49" ry="18"/>
<text text-anchor="middle" x="90.23" y="-158.3" font-family="Times,serif" font-size="14.00">input#key[4]</text>
</g>
<!-- module#locked&#45;&gt;input#key[4] -->
<g id="edge13" class="edge">
<title>module#locked&#45;&gt;input#key[4]</title>
<path fill="none" stroke="black" d="M1324.3,-231.24C1085.9,-225.84 395.34,-208.13 171.23,-180 164.52,-179.16 157.55,-178.05 150.63,-176.81"/>
<polygon fill="black" stroke="black" points="151.04,-173.32 140.57,-174.9 149.74,-180.2 151.04,-173.32"/>
</g>
<!-- input#key[5] -->
<g id="node15" class="node">
<title>input#key[5]</title>
<ellipse fill="none" stroke="black" cx="251.23" cy="-162" rx="71.49" ry="18"/>
<text text-anchor="middle" x="251.23" y="-158.3" font-family="Times,serif" font-size="14.00">input#key[5]</text>
</g>
<!-- module#locked&#45;&gt;input#key[5] -->
<g id="edge14" class="edge">
<title>module#locked&#45;&gt;input#key[5]</title>
<path fill="none" stroke="black" d="M1323.65,-233.34C1143.05,-233.13 699.76,-227.34 332.23,-180 325.53,-179.14 318.55,-178.02 311.63,-176.76"/>
<polygon fill="black" stroke="black" points="312.05,-173.28 301.57,-174.85 310.74,-180.16 312.05,-173.28"/>
</g>
<!-- input#key[6] -->
<g id="node16" class="node">
<title>input#key[6]</title>
<ellipse fill="none" stroke="black" cx="412.23" cy="-162" rx="71.49" ry="18"/>
<text text-anchor="middle" x="412.23" y="-158.3" font-family="Times,serif" font-size="14.00">input#key[6]</text>
</g>
<!-- module#locked&#45;&gt;input#key[6] -->
<g id="edge15" class="edge">
<title>module#locked&#45;&gt;input#key[6]</title>
<path fill="none" stroke="black" d="M1324,-232.32C1163.55,-230.09 797.77,-220.57 493.23,-180 486.53,-179.11 479.56,-177.97 472.64,-176.71"/>
<polygon fill="black" stroke="black" points="473.06,-173.22 462.58,-174.78 471.74,-180.1 473.06,-173.22"/>
</g>
<!-- input#key[7] -->
<g id="node17" class="node">
<title>input#key[7]</title>
<ellipse fill="none" stroke="black" cx="573.23" cy="-162" rx="71.49" ry="18"/>
<text text-anchor="middle" x="573.23" y="-158.3" font-family="Times,serif" font-size="14.00">input#key[7]</text>
</g>
<!-- module#locked&#45;&gt;input#key[7] -->
<g id="edge16" class="edge">
<title>module#locked&#45;&gt;input#key[7]</title>
<path fill="none" stroke="black" d="M1324.89,-230.9C1186.54,-226.53 896.79,-213.84 654.23,-180 647.63,-179.08 640.77,-177.94 633.95,-176.68"/>
<polygon fill="black" stroke="black" points="634.51,-173.22 624.03,-174.77 633.19,-180.1 634.51,-173.22"/>
</g>
<!-- module#s -->
<g id="node20" class="node">
<title>module#s</title>
<ellipse fill="none" stroke="black" cx="1312.23" cy="-90" rx="57.69" ry="18"/>
<text text-anchor="middle" x="1312.23" y="-86.3" font-family="Times,serif" font-size="14.00">module#s</text>
</g>
<!-- input#inputs[0]&#45;&gt;module#s -->
<g id="edge19" class="edge">
<title>input#inputs[0]&#45;&gt;module#s</title>
<path fill="none" stroke="black" d="M809.06,-149.39C820.08,-147.46 831.48,-145.58 842.23,-144 986.37,-122.86 1156.45,-105.57 1247.3,-96.94"/>
<polygon fill="black" stroke="black" points="1247.81,-100.41 1257.44,-95.98 1247.16,-93.44 1247.81,-100.41"/>
</g>
<!-- module#s1 -->
<g id="node21" class="node">
<title>module#s1</title>
<ellipse fill="none" stroke="black" cx="1500.23" cy="-90" rx="63.89" ry="18"/>
<text text-anchor="middle" x="1500.23" y="-86.3" font-family="Times,serif" font-size="14.00">module#s1</text>
</g>
<!-- input#inputs[0]&#45;&gt;module#s1 -->
<g id="edge20" class="edge">
<title>input#inputs[0]&#45;&gt;module#s1</title>
<path fill="none" stroke="black" d="M808,-149.16C819.33,-147.2 831.12,-145.37 842.23,-144 1079.63,-114.67 1141.3,-132.66 1379.23,-108 1397.65,-106.09 1417.59,-103.51 1435.86,-100.93"/>
<polygon fill="black" stroke="black" points="1436.42,-104.38 1445.82,-99.5 1435.42,-97.45 1436.42,-104.38"/>
</g>
<!-- input#inputs[1]&#45;&gt;module#s -->
<g id="edge21" class="edge">
<title>input#inputs[1]&#45;&gt;module#s</title>
<path fill="none" stroke="black" d="M997.9,-149.52C1068.89,-136.3 1184.61,-114.76 1254.08,-101.83"/>
<polygon fill="black" stroke="black" points="1254.79,-105.25 1263.98,-99.98 1253.51,-98.37 1254.79,-105.25"/>
</g>
<!-- input#inputs[1]&#45;&gt;module#s1 -->
<g id="edge22" class="edge">
<title>input#inputs[1]&#45;&gt;module#s1</title>
<path fill="none" stroke="black" d="M996.8,-149.35C1007.89,-147.41 1019.39,-145.54 1030.23,-144 1184.62,-122.11 1224.44,-126.85 1379.23,-108 1397.36,-105.79 1416.97,-103.15 1435.03,-100.61"/>
<polygon fill="black" stroke="black" points="1435.76,-104.04 1445.17,-99.17 1434.78,-97.11 1435.76,-104.04"/>
</g>
<!-- input#inputs[2]&#45;&gt;module#s -->
<g id="edge23" class="edge">
<title>input#inputs[2]&#45;&gt;module#s</title>
<path fill="none" stroke="black" d="M1164.56,-145.98C1194.64,-134.78 1235.75,-119.47 1266.96,-107.86"/>
<polygon fill="black" stroke="black" points="1268.57,-110.99 1276.72,-104.22 1266.12,-104.43 1268.57,-110.99"/>
</g>
<!-- input#inputs[2]&#45;&gt;module#s1 -->
<g id="edge24" class="edge">
<title>input#inputs[2]&#45;&gt;module#s1</title>
<path fill="none" stroke="black" d="M1185.9,-149.52C1255.69,-136.52 1368.73,-115.48 1438.54,-102.48"/>
<polygon fill="black" stroke="black" points="1439.33,-105.9 1448.52,-100.63 1438.04,-99.02 1439.33,-105.9"/>
</g>
<!-- input#inputs[3]&#45;&gt;module#s -->
<g id="edge25" class="edge">
<title>input#inputs[3]&#45;&gt;module#s</title>
<path fill="none" stroke="black" d="M1312.23,-143.7C1312.23,-135.98 1312.23,-126.71 1312.23,-118.11"/>
<polygon fill="black" stroke="black" points="1315.73,-118.1 1312.23,-108.1 1308.73,-118.1 1315.73,-118.1"/>
</g>
<!-- input#inputs[3]&#45;&gt;module#s1 -->
<g id="edge26" class="edge">
<title>input#inputs[3]&#45;&gt;module#s1</title>
<path fill="none" stroke="black" d="M1352.56,-145.98C1382.15,-134.96 1422.43,-119.97 1453.44,-108.42"/>
<polygon fill="black" stroke="black" points="1455.01,-111.57 1463.16,-104.8 1452.56,-105.01 1455.01,-111.57"/>
</g>
<!-- input#inputs[4]&#45;&gt;module#s -->
<g id="edge27" class="edge">
<title>input#inputs[4]&#45;&gt;module#s</title>
<path fill="none" stroke="black" d="M1459.9,-145.98C1429.81,-134.78 1388.7,-119.47 1357.5,-107.86"/>
<polygon fill="black" stroke="black" points="1358.33,-104.43 1347.74,-104.22 1355.89,-110.99 1358.33,-104.43"/>
</g>
<!-- input#inputs[4]&#45;&gt;module#s1 -->
<g id="edge28" class="edge">
<title>input#inputs[4]&#45;&gt;module#s1</title>
<path fill="none" stroke="black" d="M1500.23,-143.7C1500.23,-135.98 1500.23,-126.71 1500.23,-118.11"/>
<polygon fill="black" stroke="black" points="1503.73,-118.1 1500.23,-108.1 1496.73,-118.1 1503.73,-118.1"/>
</g>
<!-- input#inputs[5]&#45;&gt;module#s -->
<g id="edge29" class="edge">
<title>input#inputs[5]&#45;&gt;module#s</title>
<path fill="none" stroke="black" d="M1626.56,-149.52C1555.57,-136.3 1439.85,-114.76 1370.38,-101.83"/>
<polygon fill="black" stroke="black" points="1370.95,-98.37 1360.47,-99.98 1369.67,-105.25 1370.95,-98.37"/>
</g>
<!-- input#inputs[5]&#45;&gt;module#s1 -->
<g id="edge30" class="edge">
<title>input#inputs[5]&#45;&gt;module#s1</title>
<path fill="none" stroke="black" d="M1647.9,-145.98C1618.3,-134.96 1578.03,-119.97 1547.02,-108.42"/>
<polygon fill="black" stroke="black" points="1547.89,-105.01 1537.3,-104.8 1545.45,-111.57 1547.89,-105.01"/>
</g>
<!-- input#inputs[6]&#45;&gt;module#s -->
<g id="edge31" class="edge">
<title>input#inputs[6]&#45;&gt;module#s</title>
<path fill="none" stroke="black" d="M1815.66,-149.33C1804.56,-147.4 1793.07,-145.53 1782.23,-144 1625.19,-121.87 1584.6,-127.6 1427.23,-108 1409.48,-105.79 1390.24,-103.07 1372.67,-100.46"/>
<polygon fill="black" stroke="black" points="1372.95,-96.97 1362.54,-98.95 1371.91,-103.89 1372.95,-96.97"/>
</g>
<!-- input#inputs[6]&#45;&gt;module#s1 -->
<g id="edge32" class="edge">
<title>input#inputs[6]&#45;&gt;module#s1</title>
<path fill="none" stroke="black" d="M1814.56,-149.52C1744.76,-136.52 1631.72,-115.48 1561.91,-102.48"/>
<polygon fill="black" stroke="black" points="1562.41,-99.02 1551.94,-100.63 1561.13,-105.9 1562.41,-99.02"/>
</g>
<!-- input#inputs[7]&#45;&gt;module#s -->
<g id="edge33" class="edge">
<title>input#inputs[7]&#45;&gt;module#s</title>
<path fill="none" stroke="black" d="M2004.46,-149.15C1993.12,-147.2 1981.34,-145.37 1970.23,-144 1730.18,-114.43 1667.72,-133.71 1427.23,-108 1409.28,-106.08 1389.83,-103.43 1372.13,-100.79"/>
<polygon fill="black" stroke="black" points="1372.34,-97.28 1361.93,-99.24 1371.29,-104.2 1372.34,-97.28"/>
</g>
<!-- input#inputs[7]&#45;&gt;module#s1 -->
<g id="edge34" class="edge">
<title>input#inputs[7]&#45;&gt;module#s1</title>
<path fill="none" stroke="black" d="M2003.39,-149.39C1992.38,-147.46 1980.98,-145.58 1970.23,-144 1828.49,-123.21 1661.66,-106.14 1569.76,-97.38"/>
<polygon fill="black" stroke="black" points="1570.03,-93.89 1559.75,-96.43 1569.37,-100.86 1570.03,-93.89"/>
</g>
<!-- input#key[0]&#45;&gt;module#s -->
<g id="edge35" class="edge">
<title>input#key[0]&#45;&gt;module#s</title>
<path fill="none" stroke="black" d="M2188.88,-149.15C2178.78,-147.14 2168.2,-145.28 2158.23,-144 1835.61,-102.46 1750.95,-139.82 1427.23,-108 1409.18,-106.23 1389.63,-103.6 1371.86,-100.94"/>
<polygon fill="black" stroke="black" points="1372.04,-97.43 1361.63,-99.38 1370.98,-104.35 1372.04,-97.43"/>
</g>
<!-- input#key[0]&#45;&gt;module#s1 -->
<g id="edge36" class="edge">
<title>input#key[0]&#45;&gt;module#s1</title>
<path fill="none" stroke="black" d="M2188.42,-149.31C2178.45,-147.31 2168.04,-145.42 2158.23,-144 1947.17,-113.48 1695.29,-99.32 1573.44,-93.87"/>
<polygon fill="black" stroke="black" points="1573.27,-90.36 1563.12,-93.42 1572.96,-97.35 1573.27,-90.36"/>
</g>
<!-- input#key[1]&#45;&gt;module#s -->
<g id="edge37" class="edge">
<title>input#key[1]&#45;&gt;module#s</title>
<path fill="none" stroke="black" d="M2349.89,-149.08C2339.79,-147.07 2329.21,-145.24 2319.23,-144 1925.49,-95.08 1822.26,-145.06 1427.23,-108 1409.17,-106.31 1389.62,-103.71 1371.85,-101.05"/>
<polygon fill="black" stroke="black" points="1372.03,-97.53 1361.62,-99.48 1370.97,-104.45 1372.03,-97.53"/>
</g>
<!-- input#key[1]&#45;&gt;module#s1 -->
<g id="edge38" class="edge">
<title>input#key[1]&#45;&gt;module#s1</title>
<path fill="none" stroke="black" d="M2349.43,-149.19C2339.46,-147.2 2329.05,-145.34 2319.23,-144 2045.91,-106.67 1717.58,-95.49 1573.76,-92.26"/>
<polygon fill="black" stroke="black" points="1573.8,-88.76 1563.73,-92.04 1573.65,-95.76 1573.8,-88.76"/>
</g>
<!-- input#key[2]&#45;&gt;module#s -->
<g id="edge39" class="edge">
<title>input#key[2]&#45;&gt;module#s</title>
<path fill="none" stroke="black" d="M2510.9,-149.03C2500.79,-147.03 2490.21,-145.21 2480.23,-144 2015.35,-87.7 1893.59,-150.31 1427.23,-108 1409.17,-106.36 1389.61,-103.78 1371.84,-101.12"/>
<polygon fill="black" stroke="black" points="1372.03,-97.6 1361.61,-99.55 1370.96,-104.52 1372.03,-97.6"/>
</g>
<!-- input#key[2]&#45;&gt;module#s1 -->
<g id="edge40" class="edge">
<title>input#key[2]&#45;&gt;module#s1</title>
<path fill="none" stroke="black" d="M2510.88,-149.19C2500.78,-147.17 2490.2,-145.31 2480.23,-144 2144.03,-99.89 1738.32,-92.33 1574.33,-91.15"/>
<polygon fill="black" stroke="black" points="1573.91,-87.65 1563.88,-91.08 1573.86,-94.65 1573.91,-87.65"/>
</g>
<!-- input#key[3]&#45;&gt;module#s -->
<g id="edge41" class="edge">
<title>input#key[3]&#45;&gt;module#s</title>
<path fill="none" stroke="black" d="M2672.34,-149.08C2662.1,-147.05 2651.36,-145.2 2641.23,-144 2105.21,-80.31 1964.92,-155.55 1427.23,-108 1408.99,-106.39 1389.24,-103.78 1371.34,-101.09"/>
<polygon fill="black" stroke="black" points="1371.74,-97.61 1361.32,-99.55 1370.68,-104.53 1371.74,-97.61"/>
</g>
<!-- input#key[3]&#45;&gt;module#s1 -->
<g id="edge42" class="edge">
<title>input#key[3]&#45;&gt;module#s1</title>
<path fill="none" stroke="black" d="M2671.89,-149.13C2661.78,-147.12 2651.21,-145.27 2641.23,-144 2241.06,-93.05 1756.39,-89.61 1574.2,-90.34"/>
<polygon fill="black" stroke="black" points="1573.92,-86.84 1563.93,-90.39 1573.95,-93.84 1573.92,-86.84"/>
</g>
<!-- input#key[4]&#45;&gt;module#s -->
<g id="edge43" class="edge">
<title>input#key[4]&#45;&gt;module#s</title>
<path fill="none" stroke="black" d="M140.57,-149.13C150.67,-147.12 161.25,-145.27 171.23,-144 575.78,-92.49 1066.69,-89.54 1244.13,-90.37"/>
<polygon fill="black" stroke="black" points="1244.34,-93.87 1254.36,-90.42 1244.38,-86.87 1244.34,-93.87"/>
</g>
<!-- input#key[4]&#45;&gt;module#s1 -->
<g id="edge44" class="edge">
<title>input#key[4]&#45;&gt;module#s1</title>
<path fill="none" stroke="black" d="M140.12,-149.08C150.36,-147.05 161.1,-145.2 171.23,-144 704.6,-80.59 844.03,-153.43 1379.23,-108 1397.95,-106.41 1418.21,-103.88 1436.7,-101.26"/>
<polygon fill="black" stroke="black" points="1437.37,-104.7 1446.76,-99.8 1436.36,-97.77 1437.37,-104.7"/>
</g>
<!-- input#key[5]&#45;&gt;module#s -->
<g id="edge45" class="edge">
<title>input#key[5]&#45;&gt;module#s</title>
<path fill="none" stroke="black" d="M301.58,-149.19C311.68,-147.17 322.26,-145.31 332.23,-144 672.56,-99.35 1084.12,-92.15 1244.06,-91.11"/>
<polygon fill="black" stroke="black" points="1244.25,-94.61 1254.23,-91.05 1244.21,-87.61 1244.25,-94.61"/>
</g>
<!-- input#key[5]&#45;&gt;module#s1 -->
<g id="edge46" class="edge">
<title>input#key[5]&#45;&gt;module#s1</title>
<path fill="none" stroke="black" d="M301.56,-149.03C311.66,-147.03 322.24,-145.21 332.23,-144 794.45,-87.97 915.38,-148.45 1379.23,-108 1397.86,-106.38 1418.01,-103.85 1436.43,-101.24"/>
<polygon fill="black" stroke="black" points="1437.06,-104.69 1446.46,-99.79 1436.06,-97.76 1437.06,-104.69"/>
</g>
<!-- input#key[6]&#45;&gt;module#s -->
<g id="edge47" class="edge">
<title>input#key[6]&#45;&gt;module#s</title>
<path fill="none" stroke="black" d="M463.02,-149.19C472.99,-147.2 483.4,-145.34 493.23,-144 770.06,-106.19 1103.33,-95.21 1244.15,-92.14"/>
<polygon fill="black" stroke="black" points="1244.43,-95.63 1254.36,-91.92 1244.28,-88.63 1244.43,-95.63"/>
</g>
<!-- input#key[6]&#45;&gt;module#s1 -->
<g id="edge48" class="edge">
<title>input#key[6]&#45;&gt;module#s1</title>
<path fill="none" stroke="black" d="M462.56,-149.08C472.67,-147.08 483.25,-145.24 493.23,-144 884.32,-95.36 986.72,-143.46 1379.23,-108 1397.86,-106.32 1418.01,-103.78 1436.42,-101.17"/>
<polygon fill="black" stroke="black" points="1437.05,-104.61 1446.45,-99.72 1436.05,-97.69 1437.05,-104.61"/>
</g>
<!-- input#key[7]&#45;&gt;module#s -->
<g id="edge49" class="edge">
<title>input#key[7]&#45;&gt;module#s</title>
<path fill="none" stroke="black" d="M624.04,-149.31C634.01,-147.31 644.42,-145.42 654.23,-144 868.87,-112.96 1125.73,-98.85 1245.1,-93.6"/>
<polygon fill="black" stroke="black" points="1245.35,-97.09 1255.19,-93.16 1245.05,-90.1 1245.35,-97.09"/>
</g>
<!-- input#key[7]&#45;&gt;module#s1 -->
<g id="edge50" class="edge">
<title>input#key[7]&#45;&gt;module#s1</title>
<path fill="none" stroke="black" d="M623.57,-149.16C633.68,-147.14 644.25,-145.29 654.23,-144 974.2,-102.74 1058.05,-138.47 1379.23,-108 1397.76,-106.24 1417.8,-103.69 1436.15,-101.1"/>
<polygon fill="black" stroke="black" points="1436.74,-104.55 1446.14,-99.66 1435.74,-97.62 1436.74,-104.55"/>
</g>
<!-- output#out[0] -->
<g id="node18" class="node">
<title>output#out[0]</title>
<ellipse fill="none" stroke="black" cx="652.23" cy="-18" rx="77.19" ry="18"/>
<text text-anchor="middle" x="652.23" y="-14.3" font-family="Times,serif" font-size="14.00">output#out[0]</text>
</g>
<!-- output#out[0]&#45;&gt;module#locked -->
<g id="edge17" class="edge">
<title>output#out[0]&#45;&gt;module#locked</title>
<path fill="none" stroke="black" d="M580.94,-25.08C397.27,-42.06 -72.16,-94.43 10.23,-180 55.42,-226.94 1008.77,-232.42 1313.47,-232.97"/>
<polygon fill="black" stroke="black" points="1313.6,-236.47 1323.6,-232.99 1313.61,-229.47 1313.6,-236.47"/>
</g>
<!-- output#out[1] -->
<g id="node19" class="node">
<title>output#out[1]</title>
<ellipse fill="none" stroke="black" cx="2160.23" cy="-18" rx="77.19" ry="18"/>
<text text-anchor="middle" x="2160.23" y="-14.3" font-family="Times,serif" font-size="14.00">output#out[1]</text>
</g>
<!-- output#out[1]&#45;&gt;module#locked -->
<g id="edge18" class="edge">
<title>output#out[1]&#45;&gt;module#locked</title>
<path fill="none" stroke="black" d="M2231.52,-25.08C2415.19,-42.06 2884.62,-94.43 2802.23,-180 2757.03,-226.94 1803.68,-232.42 1498.98,-232.97"/>
<polygon fill="black" stroke="black" points="1498.85,-229.47 1488.85,-232.99 1498.86,-236.47 1498.85,-229.47"/>
</g>
<!-- module#s&#45;&gt;output#out[0] -->
<g id="edge51" class="edge">
<title>module#s&#45;&gt;output#out[0]</title>
<path fill="none" stroke="black" d="M1258.5,-83.3C1142.34,-70.98 867.37,-41.82 731.3,-27.39"/>
<polygon fill="black" stroke="black" points="731.27,-23.86 720.95,-26.29 730.53,-30.82 731.27,-23.86"/>
</g>
<!-- module#s1&#45;&gt;output#out[1] -->
<g id="edge52" class="edge">
<title>module#s1&#45;&gt;output#out[1]</title>
<path fill="none" stroke="black" d="M1558.8,-82.79C1677.64,-70.18 1947.15,-41.6 2081.31,-27.37"/>
<polygon fill="black" stroke="black" points="2081.94,-30.82 2091.52,-26.29 2081.2,-23.86 2081.94,-30.82"/>
</g>
</g>
</svg>
