<?xml version="1.0" encoding="UTF-8" standalone="no"?>
<!DOCTYPE svg PUBLIC "-//W3C//DTD SVG 1.1//EN"
 "http://www.w3.org/Graphics/SVG/1.1/DTD/svg11.dtd">
<!-- Generated by graphviz version 2.43.0 (0)
 -->
<!-- Pages: 1 -->
<svg width="711pt" height="1124pt"
 viewBox="0.00 0.00 710.84 1124.00" xmlns="http://www.w3.org/2000/svg" xmlns:xlink="http://www.w3.org/1999/xlink">
<g id="graph0" class="graph" transform="scale(1 1) rotate(0) translate(4 1120)">
<polygon fill="white" stroke="transparent" points="-4,4 -4,-1120 706.84,-1120 706.84,4 -4,4"/>
<!-- NAND_g_4_ -->
<g id="node1" class="node">
<title>NAND_g_4_</title>
<ellipse fill="none" stroke="black" cx="93" cy="-1098" rx="64.99" ry="18"/>
<text text-anchor="middle" x="93" y="-1094.3" font-family="Times,serif" font-size="14.00">NAND_g_4_</text>
</g>
<!-- _2_ -->
<g id="node2" class="node">
<title>_2_</title>
<ellipse fill="none" stroke="black" cx="93" cy="-1026" rx="27" ry="18"/>
<text text-anchor="middle" x="93" y="-1022.3" font-family="Times,serif" font-size="14.00">_2_</text>
</g>
<!-- NAND_g_4_&#45;&gt;_2_ -->
<g id="edge1" class="edge">
<title>NAND_g_4_&#45;&gt;_2_</title>
<path fill="none" stroke="black" d="M93,-1079.7C93,-1071.98 93,-1062.71 93,-1054.11"/>
<polygon fill="black" stroke="black" points="96.5,-1054.1 93,-1044.1 89.5,-1054.1 96.5,-1054.1"/>
</g>
<!-- NAND_g_5_ -->
<g id="node3" class="node">
<title>NAND_g_5_</title>
<ellipse fill="none" stroke="black" cx="150" cy="-954" rx="64.99" ry="18"/>
<text text-anchor="middle" x="150" y="-950.3" font-family="Times,serif" font-size="14.00">NAND_g_5_</text>
</g>
<!-- _2_&#45;&gt;NAND_g_5_ -->
<g id="edge2" class="edge">
<title>_2_&#45;&gt;NAND_g_5_</title>
<path fill="none" stroke="black" d="M105.37,-1009.81C112.6,-1000.93 121.9,-989.5 130.14,-979.39"/>
<polygon fill="black" stroke="black" points="132.86,-981.59 136.46,-971.63 127.43,-977.17 132.86,-981.59"/>
</g>
<!-- NAND_g_6_ -->
<g id="node4" class="node">
<title>NAND_g_6_</title>
<ellipse fill="none" stroke="black" cx="141" cy="-522" rx="64.99" ry="18"/>
<text text-anchor="middle" x="141" y="-518.3" font-family="Times,serif" font-size="14.00">NAND_g_6_</text>
</g>
<!-- _2_&#45;&gt;NAND_g_6_ -->
<g id="edge3" class="edge">
<title>_2_&#45;&gt;NAND_g_6_</title>
<path fill="none" stroke="black" d="M86.55,-1008.06C82.88,-997.78 78.54,-984.3 76,-972 63,-909.03 65.11,-892.23 62,-828 56.5,-714.51 61.11,-680.8 105,-576 109.08,-566.25 115.09,-556.44 121.04,-547.96"/>
<polygon fill="black" stroke="black" points="124.04,-549.78 127.12,-539.65 118.39,-545.65 124.04,-549.78"/>
</g>
<!-- _3_ -->
<g id="node8" class="node">
<title>_3_</title>
<ellipse fill="none" stroke="black" cx="150" cy="-882" rx="27" ry="18"/>
<text text-anchor="middle" x="150" y="-878.3" font-family="Times,serif" font-size="14.00">_3_</text>
</g>
<!-- NAND_g_5_&#45;&gt;_3_ -->
<g id="edge7" class="edge">
<title>NAND_g_5_&#45;&gt;_3_</title>
<path fill="none" stroke="black" d="M150,-935.7C150,-927.98 150,-918.71 150,-910.11"/>
<polygon fill="black" stroke="black" points="153.5,-910.1 150,-900.1 146.5,-910.1 153.5,-910.1"/>
</g>
<!-- _0_ -->
<g id="node12" class="node">
<title>_0_</title>
<ellipse fill="none" stroke="black" cx="103" cy="-450" rx="27" ry="18"/>
<text text-anchor="middle" x="103" y="-446.3" font-family="Times,serif" font-size="14.00">_0_</text>
</g>
<!-- NAND_g_6_&#45;&gt;_0_ -->
<g id="edge11" class="edge">
<title>NAND_g_6_&#45;&gt;_0_</title>
<path fill="none" stroke="black" d="M131.8,-504.05C127.25,-495.68 121.68,-485.4 116.64,-476.13"/>
<polygon fill="black" stroke="black" points="119.7,-474.43 111.85,-467.31 113.55,-477.77 119.7,-474.43"/>
</g>
<!-- N6 -->
<g id="node5" class="node">
<title>N6</title>
<ellipse fill="none" stroke="black" cx="141" cy="-594" rx="27" ry="18"/>
<text text-anchor="middle" x="141" y="-590.3" font-family="Times,serif" font-size="14.00">N6</text>
</g>
<!-- N6&#45;&gt;NAND_g_4_ -->
<g id="edge4" class="edge">
<title>N6&#45;&gt;NAND_g_4_</title>
<path fill="none" stroke="black" d="M127.48,-609.83C92.19,-650.14 0,-766.41 0,-881 0,-955 0,-955 0,-955 0,-1003.22 37.99,-1047.81 65.41,-1073.71"/>
<polygon fill="black" stroke="black" points="63.08,-1076.33 72.82,-1080.5 67.82,-1071.17 63.08,-1076.33"/>
</g>
<!-- N3 -->
<g id="node6" class="node">
<title>N3</title>
<ellipse fill="none" stroke="black" cx="543" cy="-594" rx="27" ry="18"/>
<text text-anchor="middle" x="543" y="-590.3" font-family="Times,serif" font-size="14.00">N3</text>
</g>
<!-- N3&#45;&gt;NAND_g_4_ -->
<g id="edge5" class="edge">
<title>N3&#45;&gt;NAND_g_4_</title>
<path fill="none" stroke="black" d="M536.28,-611.74C526.37,-637.98 509,-690.61 509,-737 509,-955 509,-955 509,-955 509,-1027.67 278.76,-1070.81 160.86,-1088.13"/>
<polygon fill="black" stroke="black" points="160.24,-1084.68 150.84,-1089.58 161.24,-1091.61 160.24,-1084.68"/>
</g>
<!-- NAND_g_8_ -->
<g id="node7" class="node">
<title>NAND_g_8_</title>
<ellipse fill="none" stroke="black" cx="539" cy="-522" rx="64.99" ry="18"/>
<text text-anchor="middle" x="539" y="-518.3" font-family="Times,serif" font-size="14.00">NAND_g_8_</text>
</g>
<!-- N3&#45;&gt;NAND_g_8_ -->
<g id="edge6" class="edge">
<title>N3&#45;&gt;NAND_g_8_</title>
<path fill="none" stroke="black" d="M542.01,-575.7C541.57,-567.98 541.04,-558.71 540.55,-550.11"/>
<polygon fill="black" stroke="black" points="544.04,-549.89 539.98,-540.1 537.05,-550.29 544.04,-549.89"/>
</g>
<!-- keywire5 -->
<g id="node16" class="node">
<title>keywire5</title>
<ellipse fill="none" stroke="black" cx="490" cy="-450" rx="53.09" ry="18"/>
<text text-anchor="middle" x="490" y="-446.3" font-family="Times,serif" font-size="14.00">keywire5</text>
</g>
<!-- NAND_g_8_&#45;&gt;keywire5 -->
<g id="edge16" class="edge">
<title>NAND_g_8_&#45;&gt;keywire5</title>
<path fill="none" stroke="black" d="M527.14,-504.05C521.3,-495.71 514.14,-485.49 507.68,-476.25"/>
<polygon fill="black" stroke="black" points="510.35,-473.97 501.75,-467.79 504.62,-477.99 510.35,-473.97"/>
</g>
<!-- NAND_g_7_ -->
<g id="node9" class="node">
<title>NAND_g_7_</title>
<ellipse fill="none" stroke="black" cx="169" cy="-810" rx="64.99" ry="18"/>
<text text-anchor="middle" x="169" y="-806.3" font-family="Times,serif" font-size="14.00">NAND_g_7_</text>
</g>
<!-- _3_&#45;&gt;NAND_g_7_ -->
<g id="edge8" class="edge">
<title>_3_&#45;&gt;NAND_g_7_</title>
<path fill="none" stroke="black" d="M154.6,-864.05C156.71,-856.26 159.28,-846.82 161.65,-838.08"/>
<polygon fill="black" stroke="black" points="165.07,-838.84 164.31,-828.28 158.31,-837.01 165.07,-838.84"/>
</g>
<!-- NAND_g_9_ -->
<g id="node10" class="node">
<title>NAND_g_9_</title>
<ellipse fill="none" stroke="black" cx="367" cy="-234" rx="64.99" ry="18"/>
<text text-anchor="middle" x="367" y="-230.3" font-family="Times,serif" font-size="14.00">NAND_g_9_</text>
</g>
<!-- _3_&#45;&gt;NAND_g_9_ -->
<g id="edge9" class="edge">
<title>_3_&#45;&gt;NAND_g_9_</title>
<path fill="none" stroke="black" d="M131.72,-868.65C119.18,-859.11 103.34,-844.73 95,-828 16.29,-670.09 -24.22,-583.03 67,-432 124.69,-336.49 248.47,-278.2 317.64,-251.8"/>
<polygon fill="black" stroke="black" points="318.89,-255.07 327.03,-248.29 316.44,-248.51 318.89,-255.07"/>
</g>
<!-- N23 -->
<g id="node14" class="node">
<title>N23</title>
<ellipse fill="none" stroke="black" cx="226" cy="-738" rx="30.59" ry="18"/>
<text text-anchor="middle" x="226" y="-734.3" font-family="Times,serif" font-size="14.00">N23</text>
</g>
<!-- NAND_g_7_&#45;&gt;N23 -->
<g id="edge14" class="edge">
<title>NAND_g_7_&#45;&gt;N23</title>
<path fill="none" stroke="black" d="M182.8,-792.05C189.93,-783.29 198.76,-772.45 206.57,-762.86"/>
<polygon fill="black" stroke="black" points="209.51,-764.79 213.11,-754.83 204.08,-760.37 209.51,-764.79"/>
</g>
<!-- keywire4 -->
<g id="node19" class="node">
<title>keywire4</title>
<ellipse fill="none" stroke="black" cx="367" cy="-162" rx="53.09" ry="18"/>
<text text-anchor="middle" x="367" y="-158.3" font-family="Times,serif" font-size="14.00">keywire4</text>
</g>
<!-- NAND_g_9_&#45;&gt;keywire4 -->
<g id="edge19" class="edge">
<title>NAND_g_9_&#45;&gt;keywire4</title>
<path fill="none" stroke="black" d="M367,-215.7C367,-207.98 367,-198.71 367,-190.11"/>
<polygon fill="black" stroke="black" points="370.5,-190.1 367,-180.1 363.5,-190.1 370.5,-190.1"/>
</g>
<!-- N2 -->
<g id="node11" class="node">
<title>N2</title>
<ellipse fill="none" stroke="black" cx="471" cy="-594" rx="27" ry="18"/>
<text text-anchor="middle" x="471" y="-590.3" font-family="Times,serif" font-size="14.00">N2</text>
</g>
<!-- N2&#45;&gt;NAND_g_5_ -->
<g id="edge10" class="edge">
<title>N2&#45;&gt;NAND_g_5_</title>
<path fill="none" stroke="black" d="M464.28,-611.74C454.37,-637.98 437,-690.61 437,-737 437,-811 437,-811 437,-811 437,-906.49 307.79,-937.77 222.77,-948.01"/>
<polygon fill="black" stroke="black" points="222.17,-944.56 212.63,-949.16 222.96,-951.51 222.17,-944.56"/>
</g>
<!-- _0_&#45;&gt;NAND_g_7_ -->
<g id="edge12" class="edge">
<title>_0_&#45;&gt;NAND_g_7_</title>
<path fill="none" stroke="black" d="M89.25,-465.93C81.04,-475.9 71.38,-489.75 67,-504 62.3,-519.29 64.12,-524.26 67,-540 84.06,-633.11 131.76,-735.79 155.39,-782.84"/>
<polygon fill="black" stroke="black" points="152.4,-784.68 160.04,-792.01 158.64,-781.51 152.4,-784.68"/>
</g>
<!-- N7 -->
<g id="node13" class="node">
<title>N7</title>
<ellipse fill="none" stroke="black" cx="213" cy="-594" rx="27" ry="18"/>
<text text-anchor="middle" x="213" y="-590.3" font-family="Times,serif" font-size="14.00">N7</text>
</g>
<!-- N7&#45;&gt;NAND_g_6_ -->
<g id="edge13" class="edge">
<title>N7&#45;&gt;NAND_g_6_</title>
<path fill="none" stroke="black" d="M198.43,-578.83C188.95,-569.62 176.35,-557.37 165.37,-546.69"/>
<polygon fill="black" stroke="black" points="167.69,-544.07 158.08,-539.61 162.81,-549.09 167.69,-544.07"/>
</g>
<!-- module#c17 -->
<g id="node15" class="node">
<title>module#c17</title>
<ellipse fill="none" stroke="black" cx="306" cy="-666" rx="69.59" ry="18"/>
<text text-anchor="middle" x="306" y="-662.3" font-family="Times,serif" font-size="14.00">module#c17</text>
</g>
<!-- N23&#45;&gt;module#c17 -->
<g id="edge15" class="edge">
<title>N23&#45;&gt;module#c17</title>
<path fill="none" stroke="black" d="M242.58,-722.5C253.24,-713.17 267.33,-700.84 279.52,-690.17"/>
<polygon fill="black" stroke="black" points="281.98,-692.67 287.2,-683.45 277.37,-687.4 281.98,-692.67"/>
</g>
<!-- module#c17&#45;&gt;N6 -->
<g id="edge21" class="edge">
<title>module#c17&#45;&gt;N6</title>
<path fill="none" stroke="black" d="M269.65,-650.64C243.69,-640.25 208.01,-625.68 177,-612 175.2,-611.2 173.35,-610.38 171.49,-609.53"/>
<polygon fill="black" stroke="black" points="172.78,-606.27 162.24,-605.25 169.84,-612.63 172.78,-606.27"/>
</g>
<!-- module#c17&#45;&gt;N3 -->
<g id="edge22" class="edge">
<title>module#c17&#45;&gt;N3</title>
<path fill="none" stroke="black" d="M358.02,-654.05C399.08,-644.74 457.5,-630.04 507,-612 508.85,-611.33 510.74,-610.59 512.62,-609.82"/>
<polygon fill="black" stroke="black" points="514.2,-612.95 521.95,-605.73 511.39,-606.54 514.2,-612.95"/>
</g>
<!-- module#c17&#45;&gt;N2 -->
<g id="edge23" class="edge">
<title>module#c17&#45;&gt;N2</title>
<path fill="none" stroke="black" d="M340.59,-650.33C369.67,-637.99 410.9,-620.5 439.17,-608.5"/>
<polygon fill="black" stroke="black" points="440.75,-611.63 448.59,-604.51 438.02,-605.19 440.75,-611.63"/>
</g>
<!-- module#c17&#45;&gt;N7 -->
<g id="edge24" class="edge">
<title>module#c17&#45;&gt;N7</title>
<path fill="none" stroke="black" d="M284.43,-648.76C270.7,-638.43 252.86,-625.01 238.45,-614.15"/>
<polygon fill="black" stroke="black" points="240.51,-611.32 230.41,-608.1 236.3,-616.92 240.51,-611.32"/>
</g>
<!-- N1 -->
<g id="node18" class="node">
<title>N1</title>
<ellipse fill="none" stroke="black" cx="361" cy="-594" rx="27" ry="18"/>
<text text-anchor="middle" x="361" y="-590.3" font-family="Times,serif" font-size="14.00">N1</text>
</g>
<!-- module#c17&#45;&gt;N1 -->
<g id="edge25" class="edge">
<title>module#c17&#45;&gt;N1</title>
<path fill="none" stroke="black" d="M319.31,-648.05C326.3,-639.17 334.96,-628.14 342.58,-618.45"/>
<polygon fill="black" stroke="black" points="345.51,-620.38 348.93,-610.36 340,-616.06 345.51,-620.38"/>
</g>
<!-- lockingkeyinput[0] -->
<g id="node21" class="node">
<title>lockingkeyinput[0]</title>
<ellipse fill="none" stroke="black" cx="606" cy="-378" rx="96.68" ry="18"/>
<text text-anchor="middle" x="606" y="-374.3" font-family="Times,serif" font-size="14.00">lockingkeyinput[0]</text>
</g>
<!-- module#c17&#45;&gt;lockingkeyinput[0] -->
<g id="edge26" class="edge">
<title>module#c17&#45;&gt;lockingkeyinput[0]</title>
<path fill="none" stroke="black" d="M336.19,-649.7C354.45,-639.9 377.83,-626.36 397,-612 415.62,-598.05 414.35,-586.72 435,-576 506.63,-538.8 561.9,-602.47 613,-540 643.96,-502.16 629.39,-440.96 617.02,-405.92"/>
<polygon fill="black" stroke="black" points="620.23,-404.52 613.47,-396.36 613.67,-406.95 620.23,-404.52"/>
</g>
<!-- lockingkeyinput[1] -->
<g id="node22" class="node">
<title>lockingkeyinput[1]</title>
<ellipse fill="none" stroke="black" cx="359" cy="-522" rx="96.68" ry="18"/>
<text text-anchor="middle" x="359" y="-518.3" font-family="Times,serif" font-size="14.00">lockingkeyinput[1]</text>
</g>
<!-- module#c17&#45;&gt;lockingkeyinput[1] -->
<g id="edge27" class="edge">
<title>module#c17&#45;&gt;lockingkeyinput[1]</title>
<path fill="none" stroke="black" d="M307.82,-647.73C310.18,-629.39 315.2,-599.82 325,-576 328.89,-566.55 334.48,-556.93 340,-548.52"/>
<polygon fill="black" stroke="black" points="342.89,-550.49 345.66,-540.27 337.12,-546.54 342.89,-550.49"/>
</g>
<!-- keygate_XOR_1 -->
<g id="node24" class="node">
<title>keygate_XOR_1</title>
<ellipse fill="none" stroke="black" cx="383" cy="-378" rx="82.59" ry="18"/>
<text text-anchor="middle" x="383" y="-374.3" font-family="Times,serif" font-size="14.00">keygate_XOR_1</text>
</g>
<!-- keywire5&#45;&gt;keygate_XOR_1 -->
<g id="edge31" class="edge">
<title>keywire5&#45;&gt;keygate_XOR_1</title>
<path fill="none" stroke="black" d="M466.52,-433.64C451.88,-424.06 432.81,-411.59 416.59,-400.97"/>
<polygon fill="black" stroke="black" points="418.2,-397.85 407.92,-395.3 414.37,-403.7 418.2,-397.85"/>
</g>
<!-- _1_ -->
<g id="node17" class="node">
<title>_1_</title>
<ellipse fill="none" stroke="black" cx="375" cy="-306" rx="27" ry="18"/>
<text text-anchor="middle" x="375" y="-302.3" font-family="Times,serif" font-size="14.00">_1_</text>
</g>
<!-- _1_&#45;&gt;NAND_g_9_ -->
<g id="edge17" class="edge">
<title>_1_&#45;&gt;NAND_g_9_</title>
<path fill="none" stroke="black" d="M373.02,-287.7C372.14,-279.98 371.08,-270.71 370.1,-262.11"/>
<polygon fill="black" stroke="black" points="373.57,-261.64 368.95,-252.1 366.61,-262.44 373.57,-261.64"/>
</g>
<!-- N1&#45;&gt;NAND_g_8_ -->
<g id="edge18" class="edge">
<title>N1&#45;&gt;NAND_g_8_</title>
<path fill="none" stroke="black" d="M383.52,-583.55C389.51,-581.07 395.99,-578.41 402,-576 432.15,-563.92 466.21,-550.74 492.82,-540.55"/>
<polygon fill="black" stroke="black" points="494.18,-543.78 502.27,-536.93 491.68,-537.24 494.18,-543.78"/>
</g>
<!-- keygate_XNOR_0 -->
<g id="node23" class="node">
<title>keygate_XNOR_0</title>
<ellipse fill="none" stroke="black" cx="367" cy="-90" rx="90.18" ry="18"/>
<text text-anchor="middle" x="367" y="-86.3" font-family="Times,serif" font-size="14.00">keygate_XNOR_0</text>
</g>
<!-- keywire4&#45;&gt;keygate_XNOR_0 -->
<g id="edge28" class="edge">
<title>keywire4&#45;&gt;keygate_XNOR_0</title>
<path fill="none" stroke="black" d="M367,-143.7C367,-135.98 367,-126.71 367,-118.11"/>
<polygon fill="black" stroke="black" points="370.5,-118.1 367,-108.1 363.5,-118.1 370.5,-118.1"/>
</g>
<!-- N22 -->
<g id="node20" class="node">
<title>N22</title>
<ellipse fill="none" stroke="black" cx="293" cy="-18" rx="30.59" ry="18"/>
<text text-anchor="middle" x="293" y="-14.3" font-family="Times,serif" font-size="14.00">N22</text>
</g>
<!-- N22&#45;&gt;module#c17 -->
<g id="edge20" class="edge">
<title>N22&#45;&gt;module#c17</title>
<path fill="none" stroke="black" d="M281.62,-34.72C264.48,-60.01 234,-111.88 234,-161 234,-451 234,-451 234,-451 234,-522.01 270.05,-599.68 291.13,-639.03"/>
<polygon fill="black" stroke="black" points="288.27,-641.08 296.14,-648.18 294.41,-637.72 288.27,-641.08"/>
</g>
<!-- lockingkeyinput[0]&#45;&gt;keygate_XNOR_0 -->
<g id="edge30" class="edge">
<title>lockingkeyinput[0]&#45;&gt;keygate_XNOR_0</title>
<path fill="none" stroke="black" d="M594.9,-359.94C568.58,-320.05 499.26,-218.44 429,-144 419.09,-133.5 407.23,-122.95 396.55,-114.06"/>
<polygon fill="black" stroke="black" points="398.63,-111.23 388.67,-107.61 394.19,-116.65 398.63,-111.23"/>
</g>
<!-- lockingkeyinput[1]&#45;&gt;keygate_XOR_1 -->
<g id="edge33" class="edge">
<title>lockingkeyinput[1]&#45;&gt;keygate_XOR_1</title>
<path fill="none" stroke="black" d="M361.89,-503.87C365.99,-479.67 373.5,-435.21 378.37,-406.39"/>
<polygon fill="black" stroke="black" points="381.88,-406.63 380.09,-396.19 374.98,-405.47 381.88,-406.63"/>
</g>
<!-- keygate_XNOR_0&#45;&gt;N22 -->
<g id="edge29" class="edge">
<title>keygate_XNOR_0&#45;&gt;N22</title>
<path fill="none" stroke="black" d="M349.09,-72.05C339.17,-62.68 326.74,-50.92 316.11,-40.86"/>
<polygon fill="black" stroke="black" points="318.41,-38.22 308.74,-33.89 313.6,-43.3 318.41,-38.22"/>
</g>
<!-- keygate_XOR_1&#45;&gt;_1_ -->
<g id="edge32" class="edge">
<title>keygate_XOR_1&#45;&gt;_1_</title>
<path fill="none" stroke="black" d="M381.02,-359.7C380.14,-351.98 379.08,-342.71 378.1,-334.11"/>
<polygon fill="black" stroke="black" points="381.57,-333.64 376.95,-324.1 374.61,-334.44 381.57,-333.64"/>
</g>
</g>
</svg>
