<?xml version="1.0" encoding="UTF-8" standalone="no"?>
<!DOCTYPE svg PUBLIC "-//W3C//DTD SVG 1.1//EN"
 "http://www.w3.org/Graphics/SVG/1.1/DTD/svg11.dtd">
<!-- Generated by graphviz version 2.43.0 (0)
 -->
<!-- Pages: 1 -->
<svg width="595pt" height="836pt"
 viewBox="0.00 0.00 594.60 836.00" xmlns="http://www.w3.org/2000/svg" xmlns:xlink="http://www.w3.org/1999/xlink">
<g id="graph0" class="graph" transform="scale(1 1) rotate(0) translate(4 832)">
<polygon fill="white" stroke="transparent" points="-4,4 -4,-832 590.6,-832 590.6,4 -4,4"/>
<!-- NAND_4_ -->
<g id="node1" class="node">
<title>NAND_4_</title>
<ellipse fill="none" stroke="black" cx="460" cy="-810" rx="54.69" ry="18"/>
<text text-anchor="middle" x="460" y="-806.3" font-family="Times,serif" font-size="14.00">NAND_4_</text>
</g>
<!-- _2_ -->
<g id="node2" class="node">
<title>_2_</title>
<ellipse fill="none" stroke="black" cx="329" cy="-738" rx="27" ry="18"/>
<text text-anchor="middle" x="329" y="-734.3" font-family="Times,serif" font-size="14.00">_2_</text>
</g>
<!-- NAND_4_&#45;&gt;_2_ -->
<g id="edge1" class="edge">
<title>NAND_4_&#45;&gt;_2_</title>
<path fill="none" stroke="black" d="M432.54,-794.33C410.87,-782.75 380.71,-766.63 358.53,-754.78"/>
<polygon fill="black" stroke="black" points="360.03,-751.61 349.56,-749.99 356.73,-757.79 360.03,-751.61"/>
</g>
<!-- NAND_5_ -->
<g id="node3" class="node">
<title>NAND_5_</title>
<ellipse fill="none" stroke="black" cx="329" cy="-666" rx="54.69" ry="18"/>
<text text-anchor="middle" x="329" y="-662.3" font-family="Times,serif" font-size="14.00">NAND_5_</text>
</g>
<!-- _2_&#45;&gt;NAND_5_ -->
<g id="edge2" class="edge">
<title>_2_&#45;&gt;NAND_5_</title>
<path fill="none" stroke="black" d="M329,-719.7C329,-711.98 329,-702.71 329,-694.11"/>
<polygon fill="black" stroke="black" points="332.5,-694.1 329,-684.1 325.5,-694.1 332.5,-694.1"/>
</g>
<!-- NAND_6_ -->
<g id="node4" class="node">
<title>NAND_6_</title>
<ellipse fill="none" stroke="black" cx="159" cy="-234" rx="54.69" ry="18"/>
<text text-anchor="middle" x="159" y="-230.3" font-family="Times,serif" font-size="14.00">NAND_6_</text>
</g>
<!-- _2_&#45;&gt;NAND_6_ -->
<g id="edge3" class="edge">
<title>_2_&#45;&gt;NAND_6_</title>
<path fill="none" stroke="black" d="M301.8,-737.55C222.97,-737.59 0,-726.11 0,-595 0,-595 0,-595 0,-377 0,-315.19 67.66,-273.6 114.71,-252.15"/>
<polygon fill="black" stroke="black" points="116.37,-255.24 124.11,-248 113.54,-248.83 116.37,-255.24"/>
</g>
<!-- _3_ -->
<g id="node9" class="node">
<title>_3_</title>
<ellipse fill="none" stroke="black" cx="161" cy="-594" rx="27" ry="18"/>
<text text-anchor="middle" x="161" y="-590.3" font-family="Times,serif" font-size="14.00">_3_</text>
</g>
<!-- NAND_5_&#45;&gt;_3_ -->
<g id="edge9" class="edge">
<title>NAND_5_&#45;&gt;_3_</title>
<path fill="none" stroke="black" d="M296.61,-651.5C266.8,-639.08 222.83,-620.76 193.11,-608.38"/>
<polygon fill="black" stroke="black" points="194.19,-605.04 183.61,-604.42 191.5,-611.5 194.19,-605.04"/>
</g>
<!-- _0_ -->
<g id="node13" class="node">
<title>_0_</title>
<ellipse fill="none" stroke="black" cx="126" cy="-162" rx="27" ry="18"/>
<text text-anchor="middle" x="126" y="-158.3" font-family="Times,serif" font-size="14.00">_0_</text>
</g>
<!-- NAND_6_&#45;&gt;_0_ -->
<g id="edge14" class="edge">
<title>NAND_6_&#45;&gt;_0_</title>
<path fill="none" stroke="black" d="M151.01,-216.05C147.1,-207.77 142.32,-197.62 137.99,-188.42"/>
<polygon fill="black" stroke="black" points="141.12,-186.86 133.69,-179.31 134.79,-189.84 141.12,-186.86"/>
</g>
<!-- N6 -->
<g id="node5" class="node">
<title>N6</title>
<ellipse fill="none" stroke="black" cx="460" cy="-306" rx="27" ry="18"/>
<text text-anchor="middle" x="460" y="-302.3" font-family="Times,serif" font-size="14.00">N6</text>
</g>
<!-- N6&#45;&gt;NAND_4_ -->
<g id="edge4" class="edge">
<title>N6&#45;&gt;NAND_4_</title>
<path fill="none" stroke="black" d="M460,-324.05C460,-350.71 460,-403.89 460,-449 460,-667 460,-667 460,-667 460,-707 460,-753.35 460,-781.92"/>
<polygon fill="black" stroke="black" points="456.5,-781.95 460,-791.95 463.5,-781.95 456.5,-781.95"/>
</g>
<!-- module#anitsat_2 -->
<g id="node6" class="node">
<title>module#anitsat_2</title>
<ellipse fill="none" stroke="black" cx="365" cy="-234" rx="94.78" ry="18"/>
<text text-anchor="middle" x="365" y="-230.3" font-family="Times,serif" font-size="14.00">module#anitsat_2</text>
</g>
<!-- N6&#45;&gt;module#anitsat_2 -->
<g id="edge5" class="edge">
<title>N6&#45;&gt;module#anitsat_2</title>
<path fill="none" stroke="black" d="M442.58,-292.16C429.56,-282.57 411.42,-269.21 395.96,-257.81"/>
<polygon fill="black" stroke="black" points="397.82,-254.84 387.69,-251.72 393.67,-260.47 397.82,-254.84"/>
</g>
<!-- Q_int -->
<g id="node20" class="node">
<title>Q_int</title>
<ellipse fill="none" stroke="black" cx="365" cy="-162" rx="35.19" ry="18"/>
<text text-anchor="middle" x="365" y="-158.3" font-family="Times,serif" font-size="14.00">Q_int</text>
</g>
<!-- module#anitsat_2&#45;&gt;Q_int -->
<g id="edge31" class="edge">
<title>module#anitsat_2&#45;&gt;Q_int</title>
<path fill="none" stroke="black" d="M365,-215.7C365,-207.98 365,-198.71 365,-190.11"/>
<polygon fill="black" stroke="black" points="368.5,-190.1 365,-180.1 361.5,-190.1 368.5,-190.1"/>
</g>
<!-- N3 -->
<g id="node7" class="node">
<title>N3</title>
<ellipse fill="none" stroke="black" cx="532" cy="-306" rx="27" ry="18"/>
<text text-anchor="middle" x="532" y="-302.3" font-family="Times,serif" font-size="14.00">N3</text>
</g>
<!-- N3&#45;&gt;NAND_4_ -->
<g id="edge6" class="edge">
<title>N3&#45;&gt;NAND_4_</title>
<path fill="none" stroke="black" d="M528.64,-323.97C523.69,-350.52 515,-403.56 515,-449 515,-667 515,-667 515,-667 515,-710.23 492.56,-756.17 476.35,-783.72"/>
<polygon fill="black" stroke="black" points="473.32,-781.96 471.13,-792.33 479.31,-785.59 473.32,-781.96"/>
</g>
<!-- N3&#45;&gt;module#anitsat_2 -->
<g id="edge8" class="edge">
<title>N3&#45;&gt;module#anitsat_2</title>
<path fill="none" stroke="black" d="M510.77,-294.73C505.94,-292.46 500.81,-290.11 496,-288 469.22,-276.27 438.98,-263.97 414.31,-254.18"/>
<polygon fill="black" stroke="black" points="415.39,-250.84 404.8,-250.42 412.81,-257.35 415.39,-250.84"/>
</g>
<!-- NAND_8_ -->
<g id="node8" class="node">
<title>NAND_8_</title>
<ellipse fill="none" stroke="black" cx="532" cy="-234" rx="54.69" ry="18"/>
<text text-anchor="middle" x="532" y="-230.3" font-family="Times,serif" font-size="14.00">NAND_8_</text>
</g>
<!-- N3&#45;&gt;NAND_8_ -->
<g id="edge7" class="edge">
<title>N3&#45;&gt;NAND_8_</title>
<path fill="none" stroke="black" d="M532,-287.7C532,-279.98 532,-270.71 532,-262.11"/>
<polygon fill="black" stroke="black" points="535.5,-262.1 532,-252.1 528.5,-262.1 535.5,-262.1"/>
</g>
<!-- _1_ -->
<g id="node17" class="node">
<title>_1_</title>
<ellipse fill="none" stroke="black" cx="488" cy="-162" rx="27" ry="18"/>
<text text-anchor="middle" x="488" y="-158.3" font-family="Times,serif" font-size="14.00">_1_</text>
</g>
<!-- NAND_8_&#45;&gt;_1_ -->
<g id="edge20" class="edge">
<title>NAND_8_&#45;&gt;_1_</title>
<path fill="none" stroke="black" d="M521.35,-216.05C515.95,-207.47 509.3,-196.89 503.36,-187.44"/>
<polygon fill="black" stroke="black" points="506.23,-185.43 497.95,-178.83 500.31,-189.16 506.23,-185.43"/>
</g>
<!-- NAND_7_ -->
<g id="node10" class="node">
<title>NAND_7_</title>
<ellipse fill="none" stroke="black" cx="161" cy="-522" rx="54.69" ry="18"/>
<text text-anchor="middle" x="161" y="-518.3" font-family="Times,serif" font-size="14.00">NAND_7_</text>
</g>
<!-- _3_&#45;&gt;NAND_7_ -->
<g id="edge10" class="edge">
<title>_3_&#45;&gt;NAND_7_</title>
<path fill="none" stroke="black" d="M161,-575.7C161,-567.98 161,-558.71 161,-550.11"/>
<polygon fill="black" stroke="black" points="164.5,-550.1 161,-540.1 157.5,-550.1 164.5,-550.1"/>
</g>
<!-- NAND_9_ -->
<g id="node11" class="node">
<title>NAND_9_</title>
<ellipse fill="none" stroke="black" cx="159" cy="-90" rx="54.69" ry="18"/>
<text text-anchor="middle" x="159" y="-86.3" font-family="Times,serif" font-size="14.00">NAND_9_</text>
</g>
<!-- _3_&#45;&gt;NAND_9_ -->
<g id="edge11" class="edge">
<title>_3_&#45;&gt;NAND_9_</title>
<path fill="none" stroke="black" d="M140.69,-581.91C105.75,-561.17 38,-512.97 38,-451 38,-451 38,-451 38,-233 38,-179.4 88.56,-135.76 124.31,-111.6"/>
<polygon fill="black" stroke="black" points="126.59,-114.29 133.04,-105.89 122.76,-108.44 126.59,-114.29"/>
</g>
<!-- N23 -->
<g id="node15" class="node">
<title>N23</title>
<ellipse fill="none" stroke="black" cx="241" cy="-450" rx="30.59" ry="18"/>
<text text-anchor="middle" x="241" y="-446.3" font-family="Times,serif" font-size="14.00">N23</text>
</g>
<!-- NAND_7_&#45;&gt;N23 -->
<g id="edge18" class="edge">
<title>NAND_7_&#45;&gt;N23</title>
<path fill="none" stroke="black" d="M179.55,-504.76C190.66,-495.05 204.89,-482.6 216.85,-472.13"/>
<polygon fill="black" stroke="black" points="219.49,-474.47 224.71,-465.25 214.88,-469.2 219.49,-474.47"/>
</g>
<!-- N22 -->
<g id="node19" class="node">
<title>N22</title>
<ellipse fill="none" stroke="black" cx="200" cy="-18" rx="30.59" ry="18"/>
<text text-anchor="middle" x="200" y="-14.3" font-family="Times,serif" font-size="14.00">N22</text>
</g>
<!-- NAND_9_&#45;&gt;N22 -->
<g id="edge24" class="edge">
<title>NAND_9_&#45;&gt;N22</title>
<path fill="none" stroke="black" d="M168.92,-72.05C173.83,-63.68 179.85,-53.4 185.28,-44.13"/>
<polygon fill="black" stroke="black" points="188.41,-45.7 190.45,-35.31 182.37,-42.17 188.41,-45.7"/>
</g>
<!-- tin[1] -->
<g id="node12" class="node">
<title>tin[1]</title>
<ellipse fill="none" stroke="black" cx="379" cy="-306" rx="36.29" ry="18"/>
<text text-anchor="middle" x="379" y="-302.3" font-family="Times,serif" font-size="14.00">tin[1]</text>
</g>
<!-- tin[1]&#45;&gt;NAND_5_ -->
<g id="edge12" class="edge">
<title>tin[1]&#45;&gt;NAND_5_</title>
<path fill="none" stroke="black" d="M379,-324.05C379,-350.71 379,-403.89 379,-449 379,-523 379,-523 379,-523 379,-565.55 358.78,-611.41 344.05,-639.16"/>
<polygon fill="black" stroke="black" points="340.85,-637.74 339.12,-648.19 346.99,-641.09 340.85,-637.74"/>
</g>
<!-- tin[1]&#45;&gt;module#anitsat_2 -->
<g id="edge13" class="edge">
<title>tin[1]&#45;&gt;module#anitsat_2</title>
<path fill="none" stroke="black" d="M375.61,-288.05C374.07,-280.35 372.21,-271.03 370.47,-262.36"/>
<polygon fill="black" stroke="black" points="373.85,-261.39 368.46,-252.28 366.98,-262.77 373.85,-261.39"/>
</g>
<!-- _0_&#45;&gt;NAND_7_ -->
<g id="edge15" class="edge">
<title>_0_&#45;&gt;NAND_7_</title>
<path fill="none" stroke="black" d="M115.11,-178.56C108.41,-188.78 100.16,-202.68 95,-216 80.38,-253.71 76,-264.55 76,-305 76,-379 76,-379 76,-379 76,-426.07 110.81,-471.05 135.88,-497.34"/>
<polygon fill="black" stroke="black" points="133.47,-499.88 142.97,-504.56 138.46,-494.97 133.47,-499.88"/>
</g>
<!-- N7 -->
<g id="node14" class="node">
<title>N7</title>
<ellipse fill="none" stroke="black" cx="169" cy="-306" rx="27" ry="18"/>
<text text-anchor="middle" x="169" y="-302.3" font-family="Times,serif" font-size="14.00">N7</text>
</g>
<!-- N7&#45;&gt;NAND_6_ -->
<g id="edge16" class="edge">
<title>N7&#45;&gt;NAND_6_</title>
<path fill="none" stroke="black" d="M166.58,-288.05C165.48,-280.35 164.15,-271.03 162.91,-262.36"/>
<polygon fill="black" stroke="black" points="166.35,-261.68 161.47,-252.28 159.42,-262.67 166.35,-261.68"/>
</g>
<!-- N7&#45;&gt;module#anitsat_2 -->
<g id="edge17" class="edge">
<title>N7&#45;&gt;module#anitsat_2</title>
<path fill="none" stroke="black" d="M192.25,-296.7C221.79,-286.15 273.64,-267.63 312.85,-253.63"/>
<polygon fill="black" stroke="black" points="314.28,-256.83 322.52,-250.17 311.93,-250.24 314.28,-256.83"/>
</g>
<!-- module#c17 -->
<g id="node16" class="node">
<title>module#c17</title>
<ellipse fill="none" stroke="black" cx="281" cy="-378" rx="69.59" ry="18"/>
<text text-anchor="middle" x="281" y="-374.3" font-family="Times,serif" font-size="14.00">module#c17</text>
</g>
<!-- N23&#45;&gt;module#c17 -->
<g id="edge19" class="edge">
<title>N23&#45;&gt;module#c17</title>
<path fill="none" stroke="black" d="M250.28,-432.76C254.99,-424.53 260.82,-414.32 266.13,-405.02"/>
<polygon fill="black" stroke="black" points="269.29,-406.54 271.21,-396.12 263.21,-403.07 269.29,-406.54"/>
</g>
<!-- module#c17&#45;&gt;N6 -->
<g id="edge26" class="edge">
<title>module#c17&#45;&gt;N6</title>
<path fill="none" stroke="black" d="M321.12,-363.18C349.98,-352.98 389.71,-338.42 424,-324 425.82,-323.24 427.67,-322.43 429.54,-321.61"/>
<polygon fill="black" stroke="black" points="431.17,-324.71 438.82,-317.37 428.27,-318.34 431.17,-324.71"/>
</g>
<!-- module#c17&#45;&gt;N3 -->
<g id="edge27" class="edge">
<title>module#c17&#45;&gt;N3</title>
<path fill="none" stroke="black" d="M335.33,-366.74C379.33,-357.69 442.57,-342.99 496,-324 497.91,-323.32 499.84,-322.58 501.79,-321.79"/>
<polygon fill="black" stroke="black" points="503.6,-324.82 511.36,-317.61 500.79,-318.41 503.6,-324.82"/>
</g>
<!-- module#c17&#45;&gt;tin[1] -->
<g id="edge28" class="edge">
<title>module#c17&#45;&gt;tin[1]</title>
<path fill="none" stroke="black" d="M303.73,-360.76C317.72,-350.77 335.77,-337.88 350.68,-327.23"/>
<polygon fill="black" stroke="black" points="352.95,-329.91 359.05,-321.25 348.88,-324.21 352.95,-329.91"/>
</g>
<!-- module#c17&#45;&gt;N7 -->
<g id="edge29" class="edge">
<title>module#c17&#45;&gt;N7</title>
<path fill="none" stroke="black" d="M255.59,-361.12C238.11,-350.19 214.9,-335.69 196.91,-324.44"/>
<polygon fill="black" stroke="black" points="198.37,-321.23 188.03,-318.9 194.66,-327.16 198.37,-321.23"/>
</g>
<!-- tin[0] -->
<g id="node18" class="node">
<title>tin[0]</title>
<ellipse fill="none" stroke="black" cx="288" cy="-306" rx="36.29" ry="18"/>
<text text-anchor="middle" x="288" y="-302.3" font-family="Times,serif" font-size="14.00">tin[0]</text>
</g>
<!-- module#c17&#45;&gt;tin[0] -->
<g id="edge30" class="edge">
<title>module#c17&#45;&gt;tin[0]</title>
<path fill="none" stroke="black" d="M282.73,-359.7C283.5,-351.98 284.43,-342.71 285.29,-334.11"/>
<polygon fill="black" stroke="black" points="288.78,-334.4 286.29,-324.1 281.81,-333.71 288.78,-334.4"/>
</g>
<!-- _1_&#45;&gt;NAND_9_ -->
<g id="edge21" class="edge">
<title>_1_&#45;&gt;NAND_9_</title>
<path fill="none" stroke="black" d="M462.74,-155.54C447.24,-152.2 426.97,-147.84 409,-144 341.82,-129.65 264.45,-113.27 213.8,-102.57"/>
<polygon fill="black" stroke="black" points="214.23,-99.08 203.72,-100.44 212.78,-105.93 214.23,-99.08"/>
</g>
<!-- tin[0]&#45;&gt;module#anitsat_2 -->
<g id="edge23" class="edge">
<title>tin[0]&#45;&gt;module#anitsat_2</title>
<path fill="none" stroke="black" d="M304.71,-289.81C314.7,-280.73 327.61,-268.99 338.92,-258.71"/>
<polygon fill="black" stroke="black" points="341.39,-261.19 346.44,-251.88 336.68,-256.01 341.39,-261.19"/>
</g>
<!-- tin[0]&#45;&gt;NAND_8_ -->
<g id="edge22" class="edge">
<title>tin[0]&#45;&gt;NAND_8_</title>
<path fill="none" stroke="black" d="M316.08,-294.15C321.96,-292.01 328.16,-289.85 334,-288 393.19,-269.22 409.02,-268.09 469,-252 473,-250.93 477.14,-249.81 481.31,-248.69"/>
<polygon fill="black" stroke="black" points="482.25,-252.06 491,-246.08 480.43,-245.3 482.25,-252.06"/>
</g>
<!-- N22&#45;&gt;module#c17 -->
<g id="edge25" class="edge">
<title>N22&#45;&gt;module#c17</title>
<path fill="none" stroke="black" d="M208.94,-35.68C213.96,-45.88 219.85,-59.35 223,-72 250.18,-181.02 204.41,-218.48 243,-324 246.67,-334.05 252.81,-343.9 259.1,-352.33"/>
<polygon fill="black" stroke="black" points="256.4,-354.56 265.35,-360.24 261.9,-350.23 256.4,-354.56"/>
</g>
</g>
</svg>
