<?xml version="1.0" encoding="UTF-8" standalone="no"?>
<!DOCTYPE svg PUBLIC "-//W3C//DTD SVG 1.1//EN"
 "http://www.w3.org/Graphics/SVG/1.1/DTD/svg11.dtd">
<!-- Generated by graphviz version 2.43.0 (0)
 -->
<!-- Pages: 1 -->
<svg width="3137pt" height="1412pt"
 viewBox="0.00 0.00 3136.94 1412.00" xmlns="http://www.w3.org/2000/svg" xmlns:xlink="http://www.w3.org/1999/xlink">
<g id="graph0" class="graph" transform="scale(1 1) rotate(0) translate(4 1408)">
<polygon fill="white" stroke="transparent" points="-4,4 -4,-1408 3132.94,-1408 3132.94,4 -4,4"/>
<!-- XNOR#_25_ -->
<g id="node1" class="node">
<title>XNOR#_25_</title>
<ellipse fill="none" stroke="black" cx="941.14" cy="-1386" rx="67.69" ry="18"/>
<text text-anchor="middle" x="941.14" y="-1382.3" font-family="Times,serif" font-size="14.00">XNOR#_25_</text>
</g>
<!-- wire#_01_ -->
<g id="node2" class="node">
<title>wire#_01_</title>
<ellipse fill="none" stroke="black" cx="941.14" cy="-1314" rx="59.59" ry="18"/>
<text text-anchor="middle" x="941.14" y="-1310.3" font-family="Times,serif" font-size="14.00">wire#_01_</text>
</g>
<!-- XNOR#_25_&#45;&gt;wire#_01_ -->
<g id="edge1" class="edge">
<title>XNOR#_25_&#45;&gt;wire#_01_</title>
<path fill="none" stroke="black" d="M941.14,-1367.7C941.14,-1359.98 941.14,-1350.71 941.14,-1342.11"/>
<polygon fill="black" stroke="black" points="944.64,-1342.1 941.14,-1332.1 937.64,-1342.1 944.64,-1342.1"/>
</g>
<!-- AND#_27_ -->
<g id="node3" class="node">
<title>AND#_27_</title>
<ellipse fill="none" stroke="black" cx="941.14" cy="-1242" rx="60.39" ry="18"/>
<text text-anchor="middle" x="941.14" y="-1238.3" font-family="Times,serif" font-size="14.00">AND#_27_</text>
</g>
<!-- wire#_01_&#45;&gt;AND#_27_ -->
<g id="edge2" class="edge">
<title>wire#_01_&#45;&gt;AND#_27_</title>
<path fill="none" stroke="black" d="M941.14,-1295.7C941.14,-1287.98 941.14,-1278.71 941.14,-1270.11"/>
<polygon fill="black" stroke="black" points="944.64,-1270.1 941.14,-1260.1 937.64,-1270.1 944.64,-1270.1"/>
</g>
<!-- wire#_03_ -->
<g id="node12" class="node">
<title>wire#_03_</title>
<ellipse fill="none" stroke="black" cx="1522.14" cy="-1170" rx="59.59" ry="18"/>
<text text-anchor="middle" x="1522.14" y="-1166.3" font-family="Times,serif" font-size="14.00">wire#_03_</text>
</g>
<!-- AND#_27_&#45;&gt;wire#_03_ -->
<g id="edge11" class="edge">
<title>AND#_27_&#45;&gt;wire#_03_</title>
<path fill="none" stroke="black" d="M996.06,-1234.38C1103.84,-1221.4 1342.53,-1192.64 1457.61,-1178.77"/>
<polygon fill="black" stroke="black" points="1458.18,-1182.23 1467.69,-1177.56 1457.34,-1175.28 1458.18,-1182.23"/>
</g>
<!-- input#inputs[0] -->
<g id="node4" class="node">
<title>input#inputs[0]</title>
<ellipse fill="none" stroke="black" cx="85.14" cy="-594" rx="85.29" ry="18"/>
<text text-anchor="middle" x="85.14" y="-590.3" font-family="Times,serif" font-size="14.00">input#inputs[0]</text>
</g>
<!-- input#inputs[0]&#45;&gt;XNOR#_25_ -->
<g id="edge3" class="edge">
<title>input#inputs[0]&#45;&gt;XNOR#_25_</title>
<path fill="none" stroke="black" d="M134.54,-608.77C190.24,-627.66 273.14,-667.46 273.14,-737 273.14,-1243 273.14,-1243 273.14,-1243 273.14,-1362.44 686.94,-1381.83 863.17,-1384.67"/>
<polygon fill="black" stroke="black" points="863.36,-1388.18 873.41,-1384.82 863.47,-1381.18 863.36,-1388.18"/>
</g>
<!-- AND#_36_ -->
<g id="node5" class="node">
<title>AND#_36_</title>
<ellipse fill="none" stroke="black" cx="248.14" cy="-522" rx="60.39" ry="18"/>
<text text-anchor="middle" x="248.14" y="-518.3" font-family="Times,serif" font-size="14.00">AND#_36_</text>
</g>
<!-- input#inputs[0]&#45;&gt;AND#_36_ -->
<g id="edge4" class="edge">
<title>input#inputs[0]&#45;&gt;AND#_36_</title>
<path fill="none" stroke="black" d="M120.91,-577.64C145.95,-566.89 179.51,-552.48 205.87,-541.15"/>
<polygon fill="black" stroke="black" points="207.42,-544.3 215.23,-537.14 204.66,-537.87 207.42,-544.3"/>
</g>
<!-- wire#_12_ -->
<g id="node43" class="node">
<title>wire#_12_</title>
<ellipse fill="none" stroke="black" cx="272.14" cy="-450" rx="59.59" ry="18"/>
<text text-anchor="middle" x="272.14" y="-446.3" font-family="Times,serif" font-size="14.00">wire#_12_</text>
</g>
<!-- AND#_36_&#45;&gt;wire#_12_ -->
<g id="edge42" class="edge">
<title>AND#_36_&#45;&gt;wire#_12_</title>
<path fill="none" stroke="black" d="M253.95,-504.05C256.65,-496.18 259.93,-486.62 262.96,-477.79"/>
<polygon fill="black" stroke="black" points="266.29,-478.87 266.22,-468.28 259.67,-476.6 266.29,-478.87"/>
</g>
<!-- input#key[0] -->
<g id="node6" class="node">
<title>input#key[0]</title>
<ellipse fill="none" stroke="black" cx="2882.14" cy="-594" rx="71.49" ry="18"/>
<text text-anchor="middle" x="2882.14" y="-590.3" font-family="Times,serif" font-size="14.00">input#key[0]</text>
</g>
<!-- input#key[0]&#45;&gt;XNOR#_25_ -->
<g id="edge5" class="edge">
<title>input#key[0]&#45;&gt;XNOR#_25_</title>
<path fill="none" stroke="black" d="M2894.78,-611.92C2912.65,-637.56 2943.14,-688.44 2943.14,-737 2943.14,-1243 2943.14,-1243 2943.14,-1243 2943.14,-1341.33 1386.17,-1376.66 1018.34,-1383.64"/>
<polygon fill="black" stroke="black" points="1018.26,-1380.14 1008.33,-1383.83 1018.39,-1387.14 1018.26,-1380.14"/>
</g>
<!-- XNOR#_26_ -->
<g id="node7" class="node">
<title>XNOR#_26_</title>
<ellipse fill="none" stroke="black" cx="435.14" cy="-522" rx="67.69" ry="18"/>
<text text-anchor="middle" x="435.14" y="-518.3" font-family="Times,serif" font-size="14.00">XNOR#_26_</text>
</g>
<!-- wire#_02_ -->
<g id="node8" class="node">
<title>wire#_02_</title>
<ellipse fill="none" stroke="black" cx="423.14" cy="-450" rx="59.59" ry="18"/>
<text text-anchor="middle" x="423.14" y="-446.3" font-family="Times,serif" font-size="14.00">wire#_02_</text>
</g>
<!-- XNOR#_26_&#45;&gt;wire#_02_ -->
<g id="edge6" class="edge">
<title>XNOR#_26_&#45;&gt;wire#_02_</title>
<path fill="none" stroke="black" d="M432.18,-503.7C430.85,-495.98 429.26,-486.71 427.79,-478.11"/>
<polygon fill="black" stroke="black" points="431.21,-477.37 426.07,-468.1 424.31,-478.55 431.21,-477.37"/>
</g>
<!-- wire#_02_&#45;&gt;AND#_27_ -->
<g id="edge7" class="edge">
<title>wire#_02_&#45;&gt;AND#_27_</title>
<path fill="none" stroke="black" d="M397.15,-466.35C383.61,-475.63 367.88,-488.62 358.14,-504 336.34,-538.42 336.14,-552.25 336.14,-593 336.14,-1099 336.14,-1099 336.14,-1099 336.14,-1207.8 711.7,-1233.31 871.02,-1239.23"/>
<polygon fill="black" stroke="black" points="871.08,-1242.73 881.2,-1239.59 871.33,-1235.74 871.08,-1242.73"/>
</g>
<!-- input#inputs[7] -->
<g id="node9" class="node">
<title>input#inputs[7]</title>
<ellipse fill="none" stroke="black" cx="959.14" cy="-594" rx="85.29" ry="18"/>
<text text-anchor="middle" x="959.14" y="-590.3" font-family="Times,serif" font-size="14.00">input#inputs[7]</text>
</g>
<!-- input#inputs[7]&#45;&gt;XNOR#_26_ -->
<g id="edge8" class="edge">
<title>input#inputs[7]&#45;&gt;XNOR#_26_</title>
<path fill="none" stroke="black" d="M898.04,-581.44C887.11,-579.51 875.8,-577.62 865.14,-576 739.55,-556.92 592.53,-539.95 507.01,-530.61"/>
<polygon fill="black" stroke="black" points="507.21,-527.11 496.89,-529.51 506.45,-534.07 507.21,-527.11"/>
</g>
<!-- NOR#_33_ -->
<g id="node10" class="node">
<title>NOR#_33_</title>
<ellipse fill="none" stroke="black" cx="1252.14" cy="-522" rx="61.19" ry="18"/>
<text text-anchor="middle" x="1252.14" y="-518.3" font-family="Times,serif" font-size="14.00">NOR#_33_</text>
</g>
<!-- input#inputs[7]&#45;&gt;NOR#_33_ -->
<g id="edge9" class="edge">
<title>input#inputs[7]&#45;&gt;NOR#_33_</title>
<path fill="none" stroke="black" d="M1013.22,-580.08C1065.26,-567.65 1143.6,-548.93 1196.24,-536.36"/>
<polygon fill="black" stroke="black" points="1197.17,-539.73 1206.08,-534 1195.55,-532.92 1197.17,-539.73"/>
</g>
<!-- wire#_09_ -->
<g id="node34" class="node">
<title>wire#_09_</title>
<ellipse fill="none" stroke="black" cx="1557.14" cy="-450" rx="59.59" ry="18"/>
<text text-anchor="middle" x="1557.14" y="-446.3" font-family="Times,serif" font-size="14.00">wire#_09_</text>
</g>
<!-- NOR#_33_&#45;&gt;wire#_09_ -->
<g id="edge32" class="edge">
<title>NOR#_33_&#45;&gt;wire#_09_</title>
<path fill="none" stroke="black" d="M1297.68,-509.83C1305.82,-507.86 1314.23,-505.85 1322.14,-504 1382.97,-489.76 1452.82,-474.09 1500.46,-463.51"/>
<polygon fill="black" stroke="black" points="1501.27,-466.92 1510.27,-461.33 1499.75,-460.08 1501.27,-466.92"/>
</g>
<!-- input#key[7] -->
<g id="node11" class="node">
<title>input#key[7]</title>
<ellipse fill="none" stroke="black" cx="435.14" cy="-594" rx="71.49" ry="18"/>
<text text-anchor="middle" x="435.14" y="-590.3" font-family="Times,serif" font-size="14.00">input#key[7]</text>
</g>
<!-- input#key[7]&#45;&gt;XNOR#_26_ -->
<g id="edge10" class="edge">
<title>input#key[7]&#45;&gt;XNOR#_26_</title>
<path fill="none" stroke="black" d="M435.14,-575.7C435.14,-567.98 435.14,-558.71 435.14,-550.11"/>
<polygon fill="black" stroke="black" points="438.64,-550.1 435.14,-540.1 431.64,-550.1 438.64,-550.1"/>
</g>
<!-- AND#_31_ -->
<g id="node13" class="node">
<title>AND#_31_</title>
<ellipse fill="none" stroke="black" cx="2619.14" cy="-1098" rx="60.39" ry="18"/>
<text text-anchor="middle" x="2619.14" y="-1094.3" font-family="Times,serif" font-size="14.00">AND#_31_</text>
</g>
<!-- wire#_03_&#45;&gt;AND#_31_ -->
<g id="edge12" class="edge">
<title>wire#_03_&#45;&gt;AND#_31_</title>
<path fill="none" stroke="black" d="M1579.96,-1165.31C1766.19,-1153.43 2349.88,-1116.18 2550.57,-1103.38"/>
<polygon fill="black" stroke="black" points="2550.93,-1106.86 2560.68,-1102.73 2550.48,-1099.87 2550.93,-1106.86"/>
</g>
<!-- wire#_07_ -->
<g id="node25" class="node">
<title>wire#_07_</title>
<ellipse fill="none" stroke="black" cx="2619.14" cy="-1026" rx="59.59" ry="18"/>
<text text-anchor="middle" x="2619.14" y="-1022.3" font-family="Times,serif" font-size="14.00">wire#_07_</text>
</g>
<!-- AND#_31_&#45;&gt;wire#_07_ -->
<g id="edge24" class="edge">
<title>AND#_31_&#45;&gt;wire#_07_</title>
<path fill="none" stroke="black" d="M2619.14,-1079.7C2619.14,-1071.98 2619.14,-1062.71 2619.14,-1054.11"/>
<polygon fill="black" stroke="black" points="2622.64,-1054.1 2619.14,-1044.1 2615.64,-1054.1 2622.64,-1054.1"/>
</g>
<!-- XNOR#_28_ -->
<g id="node14" class="node">
<title>XNOR#_28_</title>
<ellipse fill="none" stroke="black" cx="1399.14" cy="-522" rx="67.69" ry="18"/>
<text text-anchor="middle" x="1399.14" y="-518.3" font-family="Times,serif" font-size="14.00">XNOR#_28_</text>
</g>
<!-- wire#_04_ -->
<g id="node15" class="node">
<title>wire#_04_</title>
<ellipse fill="none" stroke="black" cx="1897.14" cy="-450" rx="59.59" ry="18"/>
<text text-anchor="middle" x="1897.14" y="-446.3" font-family="Times,serif" font-size="14.00">wire#_04_</text>
</g>
<!-- XNOR#_28_&#45;&gt;wire#_04_ -->
<g id="edge13" class="edge">
<title>XNOR#_28_&#45;&gt;wire#_04_</title>
<path fill="none" stroke="black" d="M1462.38,-515.55C1546.38,-507.78 1699.17,-491.77 1828.14,-468 1833.24,-467.06 1838.53,-465.97 1843.81,-464.8"/>
<polygon fill="black" stroke="black" points="1844.92,-468.14 1853.88,-462.49 1843.35,-461.32 1844.92,-468.14"/>
</g>
<!-- AND#_30_ -->
<g id="node16" class="node">
<title>AND#_30_</title>
<ellipse fill="none" stroke="black" cx="2234.14" cy="-378" rx="60.39" ry="18"/>
<text text-anchor="middle" x="2234.14" y="-374.3" font-family="Times,serif" font-size="14.00">AND#_30_</text>
</g>
<!-- wire#_04_&#45;&gt;AND#_30_ -->
<g id="edge14" class="edge">
<title>wire#_04_&#45;&gt;AND#_30_</title>
<path fill="none" stroke="black" d="M1941.24,-437.81C1949.5,-435.81 1958.07,-433.79 1966.14,-432 2037.26,-416.22 2119.52,-400.29 2173.94,-390.08"/>
<polygon fill="black" stroke="black" points="2174.92,-393.46 2184.11,-388.18 2173.64,-386.58 2174.92,-393.46"/>
</g>
<!-- wire#_06_ -->
<g id="node24" class="node">
<title>wire#_06_</title>
<ellipse fill="none" stroke="black" cx="3069.14" cy="-306" rx="59.59" ry="18"/>
<text text-anchor="middle" x="3069.14" y="-302.3" font-family="Times,serif" font-size="14.00">wire#_06_</text>
</g>
<!-- AND#_30_&#45;&gt;wire#_06_ -->
<g id="edge22" class="edge">
<title>AND#_30_&#45;&gt;wire#_06_</title>
<path fill="none" stroke="black" d="M2277.23,-365.33C2286.08,-363.27 2295.37,-361.36 2304.14,-360 2558.02,-320.67 2863.84,-310.52 2999.03,-307.9"/>
<polygon fill="black" stroke="black" points="2999.31,-311.4 3009.25,-307.71 2999.18,-304.4 2999.31,-311.4"/>
</g>
<!-- input#inputs[1] -->
<g id="node17" class="node">
<title>input#inputs[1]</title>
<ellipse fill="none" stroke="black" cx="1147.14" cy="-594" rx="85.29" ry="18"/>
<text text-anchor="middle" x="1147.14" y="-590.3" font-family="Times,serif" font-size="14.00">input#inputs[1]</text>
</g>
<!-- input#inputs[1]&#45;&gt;XNOR#_28_ -->
<g id="edge15" class="edge">
<title>input#inputs[1]&#45;&gt;XNOR#_28_</title>
<path fill="none" stroke="black" d="M1196.63,-579.25C1239.14,-567.45 1300.35,-550.44 1344.33,-538.23"/>
<polygon fill="black" stroke="black" points="1345.3,-541.59 1354,-535.54 1343.43,-534.84 1345.3,-541.59"/>
</g>
<!-- NOR#_35_ -->
<g id="node18" class="node">
<title>NOR#_35_</title>
<ellipse fill="none" stroke="black" cx="1070.14" cy="-522" rx="61.19" ry="18"/>
<text text-anchor="middle" x="1070.14" y="-518.3" font-family="Times,serif" font-size="14.00">NOR#_35_</text>
</g>
<!-- input#inputs[1]&#45;&gt;NOR#_35_ -->
<g id="edge16" class="edge">
<title>input#inputs[1]&#45;&gt;NOR#_35_</title>
<path fill="none" stroke="black" d="M1128.89,-576.41C1118.95,-567.37 1106.48,-556.03 1095.59,-546.13"/>
<polygon fill="black" stroke="black" points="1097.75,-543.37 1087.99,-539.23 1093.04,-548.55 1097.75,-543.37"/>
</g>
<!-- wire#_11_ -->
<g id="node39" class="node">
<title>wire#_11_</title>
<ellipse fill="none" stroke="black" cx="1070.14" cy="-450" rx="59.59" ry="18"/>
<text text-anchor="middle" x="1070.14" y="-446.3" font-family="Times,serif" font-size="14.00">wire#_11_</text>
</g>
<!-- NOR#_35_&#45;&gt;wire#_11_ -->
<g id="edge38" class="edge">
<title>NOR#_35_&#45;&gt;wire#_11_</title>
<path fill="none" stroke="black" d="M1070.14,-503.7C1070.14,-495.98 1070.14,-486.71 1070.14,-478.11"/>
<polygon fill="black" stroke="black" points="1073.64,-478.1 1070.14,-468.1 1066.64,-478.1 1073.64,-478.1"/>
</g>
<!-- input#key[1] -->
<g id="node19" class="node">
<title>input#key[1]</title>
<ellipse fill="none" stroke="black" cx="1322.14" cy="-594" rx="71.49" ry="18"/>
<text text-anchor="middle" x="1322.14" y="-590.3" font-family="Times,serif" font-size="14.00">input#key[1]</text>
</g>
<!-- input#key[1]&#45;&gt;XNOR#_28_ -->
<g id="edge17" class="edge">
<title>input#key[1]&#45;&gt;XNOR#_28_</title>
<path fill="none" stroke="black" d="M1340.39,-576.41C1350.27,-567.43 1362.63,-556.19 1373.46,-546.34"/>
<polygon fill="black" stroke="black" points="1375.98,-548.79 1381.03,-539.47 1371.27,-543.61 1375.98,-548.79"/>
</g>
<!-- XNOR#_29_ -->
<g id="node20" class="node">
<title>XNOR#_29_</title>
<ellipse fill="none" stroke="black" cx="2363.14" cy="-522" rx="67.69" ry="18"/>
<text text-anchor="middle" x="2363.14" y="-518.3" font-family="Times,serif" font-size="14.00">XNOR#_29_</text>
</g>
<!-- wire#_05_ -->
<g id="node21" class="node">
<title>wire#_05_</title>
<ellipse fill="none" stroke="black" cx="2359.14" cy="-450" rx="59.59" ry="18"/>
<text text-anchor="middle" x="2359.14" y="-446.3" font-family="Times,serif" font-size="14.00">wire#_05_</text>
</g>
<!-- XNOR#_29_&#45;&gt;wire#_05_ -->
<g id="edge18" class="edge">
<title>XNOR#_29_&#45;&gt;wire#_05_</title>
<path fill="none" stroke="black" d="M2362.15,-503.7C2361.71,-495.98 2361.18,-486.71 2360.69,-478.11"/>
<polygon fill="black" stroke="black" points="2364.18,-477.89 2360.12,-468.1 2357.2,-478.29 2364.18,-477.89"/>
</g>
<!-- wire#_05_&#45;&gt;AND#_30_ -->
<g id="edge19" class="edge">
<title>wire#_05_&#45;&gt;AND#_30_</title>
<path fill="none" stroke="black" d="M2332.02,-433.81C2313.84,-423.63 2289.7,-410.11 2269.94,-399.05"/>
<polygon fill="black" stroke="black" points="2271.65,-395.99 2261.21,-394.16 2268.23,-402.1 2271.65,-395.99"/>
</g>
<!-- input#inputs[3] -->
<g id="node22" class="node">
<title>input#inputs[3]</title>
<ellipse fill="none" stroke="black" cx="2546.14" cy="-594" rx="85.29" ry="18"/>
<text text-anchor="middle" x="2546.14" y="-590.3" font-family="Times,serif" font-size="14.00">input#inputs[3]</text>
</g>
<!-- input#inputs[3]&#45;&gt;XNOR#_29_ -->
<g id="edge20" class="edge">
<title>input#inputs[3]&#45;&gt;XNOR#_29_</title>
<path fill="none" stroke="black" d="M2506.88,-577.98C2478.36,-567.07 2439.65,-552.26 2409.59,-540.76"/>
<polygon fill="black" stroke="black" points="2410.74,-537.46 2400.15,-537.16 2408.24,-544 2410.74,-537.46"/>
</g>
<!-- input#key[3] -->
<g id="node23" class="node">
<title>input#key[3]</title>
<ellipse fill="none" stroke="black" cx="2371.14" cy="-594" rx="71.49" ry="18"/>
<text text-anchor="middle" x="2371.14" y="-590.3" font-family="Times,serif" font-size="14.00">input#key[3]</text>
</g>
<!-- input#key[3]&#45;&gt;XNOR#_29_ -->
<g id="edge21" class="edge">
<title>input#key[3]&#45;&gt;XNOR#_29_</title>
<path fill="none" stroke="black" d="M2369.16,-575.7C2368.28,-567.98 2367.22,-558.71 2366.24,-550.11"/>
<polygon fill="black" stroke="black" points="2369.71,-549.64 2365.1,-540.1 2362.76,-550.44 2369.71,-549.64"/>
</g>
<!-- wire#_06_&#45;&gt;AND#_31_ -->
<g id="edge23" class="edge">
<title>wire#_06_&#45;&gt;AND#_31_</title>
<path fill="none" stroke="black" d="M3064.08,-324.32C3056.78,-350.89 3044.14,-403.44 3044.14,-449 3044.14,-955 3044.14,-955 3044.14,-955 3044.14,-1029.93 2803.49,-1072.5 2684.37,-1088.98"/>
<polygon fill="black" stroke="black" points="2683.7,-1085.54 2674.27,-1090.35 2684.65,-1092.47 2683.7,-1085.54"/>
</g>
<!-- NAND#_47_ -->
<g id="node26" class="node">
<title>NAND#_47_</title>
<ellipse fill="none" stroke="black" cx="2619.14" cy="-954" rx="68.49" ry="18"/>
<text text-anchor="middle" x="2619.14" y="-950.3" font-family="Times,serif" font-size="14.00">NAND#_47_</text>
</g>
<!-- wire#_07_&#45;&gt;NAND#_47_ -->
<g id="edge25" class="edge">
<title>wire#_07_&#45;&gt;NAND#_47_</title>
<path fill="none" stroke="black" d="M2619.14,-1007.7C2619.14,-999.98 2619.14,-990.71 2619.14,-982.11"/>
<polygon fill="black" stroke="black" points="2622.64,-982.1 2619.14,-972.1 2615.64,-982.1 2622.64,-982.1"/>
</g>
<!-- wire#_23_ -->
<g id="node63" class="node">
<title>wire#_23_</title>
<ellipse fill="none" stroke="black" cx="2390.14" cy="-882" rx="59.59" ry="18"/>
<text text-anchor="middle" x="2390.14" y="-878.3" font-family="Times,serif" font-size="14.00">wire#_23_</text>
</g>
<!-- NAND#_47_&#45;&gt;wire#_23_ -->
<g id="edge69" class="edge">
<title>NAND#_47_&#45;&gt;wire#_23_</title>
<path fill="none" stroke="black" d="M2576.34,-939.92C2537.71,-928.11 2480.86,-910.73 2440.15,-898.29"/>
<polygon fill="black" stroke="black" points="2441.02,-894.89 2430.43,-895.32 2438.97,-901.59 2441.02,-894.89"/>
</g>
<!-- NOR#_32_ -->
<g id="node27" class="node">
<title>NOR#_32_</title>
<ellipse fill="none" stroke="black" cx="2035.14" cy="-522" rx="61.19" ry="18"/>
<text text-anchor="middle" x="2035.14" y="-518.3" font-family="Times,serif" font-size="14.00">NOR#_32_</text>
</g>
<!-- wire#_08_ -->
<g id="node28" class="node">
<title>wire#_08_</title>
<ellipse fill="none" stroke="black" cx="2035.14" cy="-450" rx="59.59" ry="18"/>
<text text-anchor="middle" x="2035.14" y="-446.3" font-family="Times,serif" font-size="14.00">wire#_08_</text>
</g>
<!-- NOR#_32_&#45;&gt;wire#_08_ -->
<g id="edge26" class="edge">
<title>NOR#_32_&#45;&gt;wire#_08_</title>
<path fill="none" stroke="black" d="M2035.14,-503.7C2035.14,-495.98 2035.14,-486.71 2035.14,-478.11"/>
<polygon fill="black" stroke="black" points="2038.64,-478.1 2035.14,-468.1 2031.64,-478.1 2038.64,-478.1"/>
</g>
<!-- AND#_34_ -->
<g id="node29" class="node">
<title>AND#_34_</title>
<ellipse fill="none" stroke="black" cx="1967.14" cy="-378" rx="60.39" ry="18"/>
<text text-anchor="middle" x="1967.14" y="-374.3" font-family="Times,serif" font-size="14.00">AND#_34_</text>
</g>
<!-- wire#_08_&#45;&gt;AND#_34_ -->
<g id="edge27" class="edge">
<title>wire#_08_&#45;&gt;AND#_34_</title>
<path fill="none" stroke="black" d="M2019.03,-432.41C2010.47,-423.61 1999.81,-412.63 1990.38,-402.92"/>
<polygon fill="black" stroke="black" points="1992.62,-400.2 1983.14,-395.47 1987.6,-405.08 1992.62,-400.2"/>
</g>
<!-- wire#_10_ -->
<g id="node37" class="node">
<title>wire#_10_</title>
<ellipse fill="none" stroke="black" cx="1967.14" cy="-306" rx="59.59" ry="18"/>
<text text-anchor="middle" x="1967.14" y="-302.3" font-family="Times,serif" font-size="14.00">wire#_10_</text>
</g>
<!-- AND#_34_&#45;&gt;wire#_10_ -->
<g id="edge36" class="edge">
<title>AND#_34_&#45;&gt;wire#_10_</title>
<path fill="none" stroke="black" d="M1967.14,-359.7C1967.14,-351.98 1967.14,-342.71 1967.14,-334.11"/>
<polygon fill="black" stroke="black" points="1970.64,-334.1 1967.14,-324.1 1963.64,-334.1 1970.64,-334.1"/>
</g>
<!-- input#inputs[5] -->
<g id="node30" class="node">
<title>input#inputs[5]</title>
<ellipse fill="none" stroke="black" cx="2008.14" cy="-594" rx="85.29" ry="18"/>
<text text-anchor="middle" x="2008.14" y="-590.3" font-family="Times,serif" font-size="14.00">input#inputs[5]</text>
</g>
<!-- input#inputs[5]&#45;&gt;NOR#_32_ -->
<g id="edge28" class="edge">
<title>input#inputs[5]&#45;&gt;NOR#_32_</title>
<path fill="none" stroke="black" d="M2014.82,-575.7C2017.86,-567.81 2021.53,-558.3 2024.9,-549.55"/>
<polygon fill="black" stroke="black" points="2028.21,-550.69 2028.55,-540.1 2021.68,-548.17 2028.21,-550.69"/>
</g>
<!-- XNOR#_39_ -->
<g id="node31" class="node">
<title>XNOR#_39_</title>
<ellipse fill="none" stroke="black" cx="1833.14" cy="-522" rx="67.69" ry="18"/>
<text text-anchor="middle" x="1833.14" y="-518.3" font-family="Times,serif" font-size="14.00">XNOR#_39_</text>
</g>
<!-- input#inputs[5]&#45;&gt;XNOR#_39_ -->
<g id="edge29" class="edge">
<title>input#inputs[5]&#45;&gt;XNOR#_39_</title>
<path fill="none" stroke="black" d="M1970.17,-577.81C1943.17,-567.01 1906.78,-552.45 1878.29,-541.06"/>
<polygon fill="black" stroke="black" points="1879.54,-537.79 1868.95,-537.32 1876.94,-544.29 1879.54,-537.79"/>
</g>
<!-- wire#_15_ -->
<g id="node48" class="node">
<title>wire#_15_</title>
<ellipse fill="none" stroke="black" cx="1759.14" cy="-450" rx="59.59" ry="18"/>
<text text-anchor="middle" x="1759.14" y="-446.3" font-family="Times,serif" font-size="14.00">wire#_15_</text>
</g>
<!-- XNOR#_39_&#45;&gt;wire#_15_ -->
<g id="edge49" class="edge">
<title>XNOR#_39_&#45;&gt;wire#_15_</title>
<path fill="none" stroke="black" d="M1815.61,-504.41C1806.11,-495.43 1794.23,-484.19 1783.82,-474.34"/>
<polygon fill="black" stroke="black" points="1786.22,-471.8 1776.55,-467.47 1781.41,-476.88 1786.22,-471.8"/>
</g>
<!-- input#inputs[6] -->
<g id="node32" class="node">
<title>input#inputs[6]</title>
<ellipse fill="none" stroke="black" cx="2196.14" cy="-594" rx="85.29" ry="18"/>
<text text-anchor="middle" x="2196.14" y="-590.3" font-family="Times,serif" font-size="14.00">input#inputs[6]</text>
</g>
<!-- input#inputs[6]&#45;&gt;NOR#_32_ -->
<g id="edge30" class="edge">
<title>input#inputs[6]&#45;&gt;NOR#_32_</title>
<path fill="none" stroke="black" d="M2160.41,-577.46C2135.82,-566.77 2103.07,-552.53 2077.22,-541.29"/>
<polygon fill="black" stroke="black" points="2078.6,-538.08 2068.03,-537.3 2075.81,-544.5 2078.6,-538.08"/>
</g>
<!-- XNOR#_42_ -->
<g id="node33" class="node">
<title>XNOR#_42_</title>
<ellipse fill="none" stroke="black" cx="2516.14" cy="-522" rx="67.69" ry="18"/>
<text text-anchor="middle" x="2516.14" y="-518.3" font-family="Times,serif" font-size="14.00">XNOR#_42_</text>
</g>
<!-- input#inputs[6]&#45;&gt;XNOR#_42_ -->
<g id="edge31" class="edge">
<title>input#inputs[6]&#45;&gt;XNOR#_42_</title>
<path fill="none" stroke="black" d="M2253.85,-580.57C2303.3,-569.89 2376.43,-554.04 2440.14,-540 2445.42,-538.84 2450.91,-537.62 2456.41,-536.4"/>
<polygon fill="black" stroke="black" points="2457.28,-539.79 2466.28,-534.2 2455.76,-532.96 2457.28,-539.79"/>
</g>
<!-- wire#_18_ -->
<g id="node55" class="node">
<title>wire#_18_</title>
<ellipse fill="none" stroke="black" cx="2509.14" cy="-450" rx="59.59" ry="18"/>
<text text-anchor="middle" x="2509.14" y="-446.3" font-family="Times,serif" font-size="14.00">wire#_18_</text>
</g>
<!-- XNOR#_42_&#45;&gt;wire#_18_ -->
<g id="edge57" class="edge">
<title>XNOR#_42_&#45;&gt;wire#_18_</title>
<path fill="none" stroke="black" d="M2514.41,-503.7C2513.64,-495.98 2512.71,-486.71 2511.85,-478.11"/>
<polygon fill="black" stroke="black" points="2515.33,-477.71 2510.85,-468.1 2508.37,-478.4 2515.33,-477.71"/>
</g>
<!-- wire#_09_&#45;&gt;AND#_34_ -->
<g id="edge33" class="edge">
<title>wire#_09_&#45;&gt;AND#_34_</title>
<path fill="none" stroke="black" d="M1607.83,-440.35C1683.23,-427.47 1824.75,-403.31 1905.86,-389.46"/>
<polygon fill="black" stroke="black" points="1906.66,-392.88 1915.93,-387.74 1905.48,-385.98 1906.66,-392.88"/>
</g>
<!-- input#inputs[4] -->
<g id="node35" class="node">
<title>input#inputs[4]</title>
<ellipse fill="none" stroke="black" cx="1497.14" cy="-594" rx="85.29" ry="18"/>
<text text-anchor="middle" x="1497.14" y="-590.3" font-family="Times,serif" font-size="14.00">input#inputs[4]</text>
</g>
<!-- input#inputs[4]&#45;&gt;NOR#_33_ -->
<g id="edge34" class="edge">
<title>input#inputs[4]&#45;&gt;NOR#_33_</title>
<path fill="none" stroke="black" d="M1448.74,-579.17C1406.95,-567.23 1346.73,-550.03 1303.98,-537.81"/>
<polygon fill="black" stroke="black" points="1304.9,-534.43 1294.32,-535.05 1302.97,-541.16 1304.9,-534.43"/>
</g>
<!-- XNOR#_43_ -->
<g id="node36" class="node">
<title>XNOR#_43_</title>
<ellipse fill="none" stroke="black" cx="1672.14" cy="-522" rx="67.69" ry="18"/>
<text text-anchor="middle" x="1672.14" y="-518.3" font-family="Times,serif" font-size="14.00">XNOR#_43_</text>
</g>
<!-- input#inputs[4]&#45;&gt;XNOR#_43_ -->
<g id="edge35" class="edge">
<title>input#inputs[4]&#45;&gt;XNOR#_43_</title>
<path fill="none" stroke="black" d="M1535.11,-577.81C1562.12,-567.01 1598.51,-552.45 1627,-541.06"/>
<polygon fill="black" stroke="black" points="1628.35,-544.29 1636.33,-537.32 1625.75,-537.79 1628.35,-544.29"/>
</g>
<!-- wire#_19_ -->
<g id="node58" class="node">
<title>wire#_19_</title>
<ellipse fill="none" stroke="black" cx="2205.14" cy="-450" rx="59.59" ry="18"/>
<text text-anchor="middle" x="2205.14" y="-446.3" font-family="Times,serif" font-size="14.00">wire#_19_</text>
</g>
<!-- XNOR#_43_&#45;&gt;wire#_19_ -->
<g id="edge60" class="edge">
<title>XNOR#_43_&#45;&gt;wire#_19_</title>
<path fill="none" stroke="black" d="M1722.64,-509.96C1733.65,-507.78 1745.26,-505.66 1756.14,-504 1909.86,-480.55 1950.06,-488.92 2104.14,-468 2117.48,-466.19 2131.76,-463.96 2145.26,-461.73"/>
<polygon fill="black" stroke="black" points="2146.13,-465.13 2155.41,-460.02 2144.97,-458.23 2146.13,-465.13"/>
</g>
<!-- NAND#_38_ -->
<g id="node38" class="node">
<title>NAND#_38_</title>
<ellipse fill="none" stroke="black" cx="1967.14" cy="-234" rx="68.49" ry="18"/>
<text text-anchor="middle" x="1967.14" y="-230.3" font-family="Times,serif" font-size="14.00">NAND#_38_</text>
</g>
<!-- wire#_10_&#45;&gt;NAND#_38_ -->
<g id="edge37" class="edge">
<title>wire#_10_&#45;&gt;NAND#_38_</title>
<path fill="none" stroke="black" d="M1967.14,-287.7C1967.14,-279.98 1967.14,-270.71 1967.14,-262.11"/>
<polygon fill="black" stroke="black" points="1970.64,-262.1 1967.14,-252.1 1963.64,-262.1 1970.64,-262.1"/>
</g>
<!-- wire#_14_ -->
<g id="node46" class="node">
<title>wire#_14_</title>
<ellipse fill="none" stroke="black" cx="2106.14" cy="-162" rx="59.59" ry="18"/>
<text text-anchor="middle" x="2106.14" y="-158.3" font-family="Times,serif" font-size="14.00">wire#_14_</text>
</g>
<!-- NAND#_38_&#45;&gt;wire#_14_ -->
<g id="edge47" class="edge">
<title>NAND#_38_&#45;&gt;wire#_14_</title>
<path fill="none" stroke="black" d="M1997.3,-217.81C2017.84,-207.47 2045.22,-193.68 2067.38,-182.52"/>
<polygon fill="black" stroke="black" points="2069.16,-185.54 2076.52,-177.92 2066.01,-179.29 2069.16,-185.54"/>
</g>
<!-- AND#_37_ -->
<g id="node40" class="node">
<title>AND#_37_</title>
<ellipse fill="none" stroke="black" cx="1070.14" cy="-378" rx="60.39" ry="18"/>
<text text-anchor="middle" x="1070.14" y="-374.3" font-family="Times,serif" font-size="14.00">AND#_37_</text>
</g>
<!-- wire#_11_&#45;&gt;AND#_37_ -->
<g id="edge39" class="edge">
<title>wire#_11_&#45;&gt;AND#_37_</title>
<path fill="none" stroke="black" d="M1070.14,-431.7C1070.14,-423.98 1070.14,-414.71 1070.14,-406.11"/>
<polygon fill="black" stroke="black" points="1073.64,-406.1 1070.14,-396.1 1066.64,-406.1 1073.64,-406.1"/>
</g>
<!-- wire#_13_ -->
<g id="node45" class="node">
<title>wire#_13_</title>
<ellipse fill="none" stroke="black" cx="1389.14" cy="-306" rx="59.59" ry="18"/>
<text text-anchor="middle" x="1389.14" y="-302.3" font-family="Times,serif" font-size="14.00">wire#_13_</text>
</g>
<!-- AND#_37_&#45;&gt;wire#_13_ -->
<g id="edge45" class="edge">
<title>AND#_37_&#45;&gt;wire#_13_</title>
<path fill="none" stroke="black" d="M1117.21,-366.67C1174.51,-354.1 1271.19,-332.88 1332.5,-319.43"/>
<polygon fill="black" stroke="black" points="1333.38,-322.82 1342.4,-317.26 1331.88,-315.98 1333.38,-322.82"/>
</g>
<!-- input#inputs[2] -->
<g id="node41" class="node">
<title>input#inputs[2]</title>
<ellipse fill="none" stroke="black" cx="771.14" cy="-594" rx="85.29" ry="18"/>
<text text-anchor="middle" x="771.14" y="-590.3" font-family="Times,serif" font-size="14.00">input#inputs[2]</text>
</g>
<!-- input#inputs[2]&#45;&gt;NOR#_35_ -->
<g id="edge40" class="edge">
<title>input#inputs[2]&#45;&gt;NOR#_35_</title>
<path fill="none" stroke="black" d="M825.98,-580.16C879.36,-567.67 960.08,-548.77 1013.92,-536.16"/>
<polygon fill="black" stroke="black" points="1015.04,-539.49 1023.98,-533.81 1013.45,-532.68 1015.04,-539.49"/>
</g>
<!-- XNOR#_40_ -->
<g id="node42" class="node">
<title>XNOR#_40_</title>
<ellipse fill="none" stroke="black" cx="771.14" cy="-522" rx="67.69" ry="18"/>
<text text-anchor="middle" x="771.14" y="-518.3" font-family="Times,serif" font-size="14.00">XNOR#_40_</text>
</g>
<!-- input#inputs[2]&#45;&gt;XNOR#_40_ -->
<g id="edge41" class="edge">
<title>input#inputs[2]&#45;&gt;XNOR#_40_</title>
<path fill="none" stroke="black" d="M771.14,-575.7C771.14,-567.98 771.14,-558.71 771.14,-550.11"/>
<polygon fill="black" stroke="black" points="774.64,-550.1 771.14,-540.1 767.64,-550.1 774.64,-550.1"/>
</g>
<!-- wire#_16_ -->
<g id="node51" class="node">
<title>wire#_16_</title>
<ellipse fill="none" stroke="black" cx="1337.14" cy="-450" rx="59.59" ry="18"/>
<text text-anchor="middle" x="1337.14" y="-446.3" font-family="Times,serif" font-size="14.00">wire#_16_</text>
</g>
<!-- XNOR#_40_&#45;&gt;wire#_16_ -->
<g id="edge52" class="edge">
<title>XNOR#_40_&#45;&gt;wire#_16_</title>
<path fill="none" stroke="black" d="M831.18,-513.58C938.5,-500.3 1162.33,-472.62 1272.73,-458.97"/>
<polygon fill="black" stroke="black" points="1273.24,-462.43 1282.73,-457.73 1272.38,-455.48 1273.24,-462.43"/>
</g>
<!-- wire#_12_&#45;&gt;AND#_37_ -->
<g id="edge43" class="edge">
<title>wire#_12_&#45;&gt;AND#_37_</title>
<path fill="none" stroke="black" d="M317.93,-438.41C329.68,-435.99 342.34,-433.65 354.14,-432 589.41,-399.05 871.22,-385.79 999.87,-381.16"/>
<polygon fill="black" stroke="black" points="1000.11,-384.65 1009.98,-380.8 999.87,-377.66 1000.11,-384.65"/>
</g>
<!-- wire#_00_ -->
<g id="node44" class="node">
<title>wire#_00_</title>
<ellipse fill="none" stroke="black" cx="248.14" cy="-594" rx="59.59" ry="18"/>
<text text-anchor="middle" x="248.14" y="-590.3" font-family="Times,serif" font-size="14.00">wire#_00_</text>
</g>
<!-- wire#_00_&#45;&gt;AND#_36_ -->
<g id="edge44" class="edge">
<title>wire#_00_&#45;&gt;AND#_36_</title>
<path fill="none" stroke="black" d="M248.14,-575.7C248.14,-567.98 248.14,-558.71 248.14,-550.11"/>
<polygon fill="black" stroke="black" points="251.64,-550.1 248.14,-540.1 244.64,-550.1 251.64,-550.1"/>
</g>
<!-- wire#_13_&#45;&gt;NAND#_38_ -->
<g id="edge46" class="edge">
<title>wire#_13_&#45;&gt;NAND#_38_</title>
<path fill="none" stroke="black" d="M1443.52,-298.41C1548.54,-285.7 1779.23,-257.76 1896.17,-243.59"/>
<polygon fill="black" stroke="black" points="1896.94,-247.03 1906.44,-242.35 1896.1,-240.08 1896.94,-247.03"/>
</g>
<!-- AND#_46_ -->
<g id="node47" class="node">
<title>AND#_46_</title>
<ellipse fill="none" stroke="black" cx="2248.14" cy="-90" rx="60.39" ry="18"/>
<text text-anchor="middle" x="2248.14" y="-86.3" font-family="Times,serif" font-size="14.00">AND#_46_</text>
</g>
<!-- wire#_14_&#45;&gt;AND#_46_ -->
<g id="edge48" class="edge">
<title>wire#_14_&#45;&gt;AND#_46_</title>
<path fill="none" stroke="black" d="M2135.91,-146.33C2157.07,-135.9 2185.7,-121.78 2208.75,-110.42"/>
<polygon fill="black" stroke="black" points="2210.5,-113.46 2217.92,-105.9 2207.41,-107.18 2210.5,-113.46"/>
</g>
<!-- wire#_22_ -->
<g id="node62" class="node">
<title>wire#_22_</title>
<ellipse fill="none" stroke="black" cx="2617.14" cy="-18" rx="59.59" ry="18"/>
<text text-anchor="middle" x="2617.14" y="-14.3" font-family="Times,serif" font-size="14.00">wire#_22_</text>
</g>
<!-- AND#_46_&#45;&gt;wire#_22_ -->
<g id="edge67" class="edge">
<title>AND#_46_&#45;&gt;wire#_22_</title>
<path fill="none" stroke="black" d="M2297.91,-79.56C2365.45,-66.75 2485.97,-43.88 2558.04,-30.21"/>
<polygon fill="black" stroke="black" points="2558.7,-33.65 2567.87,-28.35 2557.4,-26.77 2558.7,-33.65"/>
</g>
<!-- AND#_41_ -->
<g id="node49" class="node">
<title>AND#_41_</title>
<ellipse fill="none" stroke="black" cx="1759.14" cy="-378" rx="60.39" ry="18"/>
<text text-anchor="middle" x="1759.14" y="-374.3" font-family="Times,serif" font-size="14.00">AND#_41_</text>
</g>
<!-- wire#_15_&#45;&gt;AND#_41_ -->
<g id="edge50" class="edge">
<title>wire#_15_&#45;&gt;AND#_41_</title>
<path fill="none" stroke="black" d="M1759.14,-431.7C1759.14,-423.98 1759.14,-414.71 1759.14,-406.11"/>
<polygon fill="black" stroke="black" points="1762.64,-406.1 1759.14,-396.1 1755.64,-406.1 1762.64,-406.1"/>
</g>
<!-- wire#_17_ -->
<g id="node53" class="node">
<title>wire#_17_</title>
<ellipse fill="none" stroke="black" cx="1794.14" cy="-306" rx="59.59" ry="18"/>
<text text-anchor="middle" x="1794.14" y="-302.3" font-family="Times,serif" font-size="14.00">wire#_17_</text>
</g>
<!-- AND#_41_&#45;&gt;wire#_17_ -->
<g id="edge55" class="edge">
<title>AND#_41_&#45;&gt;wire#_17_</title>
<path fill="none" stroke="black" d="M1767.61,-360.05C1771.64,-352.01 1776.54,-342.2 1781.03,-333.23"/>
<polygon fill="black" stroke="black" points="1784.16,-334.78 1785.5,-324.28 1777.9,-331.65 1784.16,-334.78"/>
</g>
<!-- input#key[5] -->
<g id="node50" class="node">
<title>input#key[5]</title>
<ellipse fill="none" stroke="black" cx="1833.14" cy="-594" rx="71.49" ry="18"/>
<text text-anchor="middle" x="1833.14" y="-590.3" font-family="Times,serif" font-size="14.00">input#key[5]</text>
</g>
<!-- input#key[5]&#45;&gt;XNOR#_39_ -->
<g id="edge51" class="edge">
<title>input#key[5]&#45;&gt;XNOR#_39_</title>
<path fill="none" stroke="black" d="M1833.14,-575.7C1833.14,-567.98 1833.14,-558.71 1833.14,-550.11"/>
<polygon fill="black" stroke="black" points="1836.64,-550.1 1833.14,-540.1 1829.64,-550.1 1836.64,-550.1"/>
</g>
<!-- wire#_16_&#45;&gt;AND#_41_ -->
<g id="edge53" class="edge">
<title>wire#_16_&#45;&gt;AND#_41_</title>
<path fill="none" stroke="black" d="M1388.47,-440.49C1466.27,-427.58 1613.84,-403.1 1697.4,-389.24"/>
<polygon fill="black" stroke="black" points="1698.22,-392.65 1707.52,-387.56 1697.08,-385.75 1698.22,-392.65"/>
</g>
<!-- input#key[2] -->
<g id="node52" class="node">
<title>input#key[2]</title>
<ellipse fill="none" stroke="black" cx="596.14" cy="-594" rx="71.49" ry="18"/>
<text text-anchor="middle" x="596.14" y="-590.3" font-family="Times,serif" font-size="14.00">input#key[2]</text>
</g>
<!-- input#key[2]&#45;&gt;XNOR#_40_ -->
<g id="edge54" class="edge">
<title>input#key[2]&#45;&gt;XNOR#_40_</title>
<path fill="none" stroke="black" d="M632.83,-578.33C659.93,-567.48 696.99,-552.66 725.93,-541.09"/>
<polygon fill="black" stroke="black" points="727.42,-544.26 735.4,-537.3 724.82,-537.76 727.42,-544.26"/>
</g>
<!-- AND#_45_ -->
<g id="node54" class="node">
<title>AND#_45_</title>
<ellipse fill="none" stroke="black" cx="2248.14" cy="-234" rx="60.39" ry="18"/>
<text text-anchor="middle" x="2248.14" y="-230.3" font-family="Times,serif" font-size="14.00">AND#_45_</text>
</g>
<!-- wire#_17_&#45;&gt;AND#_45_ -->
<g id="edge56" class="edge">
<title>wire#_17_&#45;&gt;AND#_45_</title>
<path fill="none" stroke="black" d="M1845.17,-296.54C1862.03,-293.77 1880.88,-290.72 1898.14,-288 1998.53,-272.19 2115.27,-254.69 2185.35,-244.28"/>
<polygon fill="black" stroke="black" points="2185.96,-247.73 2195.34,-242.8 2184.93,-240.81 2185.96,-247.73"/>
</g>
<!-- wire#_21_ -->
<g id="node61" class="node">
<title>wire#_21_</title>
<ellipse fill="none" stroke="black" cx="2248.14" cy="-162" rx="59.59" ry="18"/>
<text text-anchor="middle" x="2248.14" y="-158.3" font-family="Times,serif" font-size="14.00">wire#_21_</text>
</g>
<!-- AND#_45_&#45;&gt;wire#_21_ -->
<g id="edge65" class="edge">
<title>AND#_45_&#45;&gt;wire#_21_</title>
<path fill="none" stroke="black" d="M2248.14,-215.7C2248.14,-207.98 2248.14,-198.71 2248.14,-190.11"/>
<polygon fill="black" stroke="black" points="2251.64,-190.1 2248.14,-180.1 2244.64,-190.1 2251.64,-190.1"/>
</g>
<!-- AND#_44_ -->
<g id="node56" class="node">
<title>AND#_44_</title>
<ellipse fill="none" stroke="black" cx="2373.14" cy="-378" rx="60.39" ry="18"/>
<text text-anchor="middle" x="2373.14" y="-374.3" font-family="Times,serif" font-size="14.00">AND#_44_</text>
</g>
<!-- wire#_18_&#45;&gt;AND#_44_ -->
<g id="edge58" class="edge">
<title>wire#_18_&#45;&gt;AND#_44_</title>
<path fill="none" stroke="black" d="M2480.3,-434.15C2460.24,-423.83 2433.29,-409.96 2411.43,-398.71"/>
<polygon fill="black" stroke="black" points="2412.9,-395.53 2402.41,-394.07 2409.7,-401.75 2412.9,-395.53"/>
</g>
<!-- wire#_20_ -->
<g id="node60" class="node">
<title>wire#_20_</title>
<ellipse fill="none" stroke="black" cx="2311.14" cy="-306" rx="59.59" ry="18"/>
<text text-anchor="middle" x="2311.14" y="-302.3" font-family="Times,serif" font-size="14.00">wire#_20_</text>
</g>
<!-- AND#_44_&#45;&gt;wire#_20_ -->
<g id="edge63" class="edge">
<title>AND#_44_&#45;&gt;wire#_20_</title>
<path fill="none" stroke="black" d="M2358.45,-360.41C2350.73,-351.69 2341.12,-340.85 2332.58,-331.21"/>
<polygon fill="black" stroke="black" points="2334.98,-328.64 2325.73,-323.47 2329.74,-333.28 2334.98,-328.64"/>
</g>
<!-- input#key[6] -->
<g id="node57" class="node">
<title>input#key[6]</title>
<ellipse fill="none" stroke="black" cx="2721.14" cy="-594" rx="71.49" ry="18"/>
<text text-anchor="middle" x="2721.14" y="-590.3" font-family="Times,serif" font-size="14.00">input#key[6]</text>
</g>
<!-- input#key[6]&#45;&gt;XNOR#_42_ -->
<g id="edge59" class="edge">
<title>input#key[6]&#45;&gt;XNOR#_42_</title>
<path fill="none" stroke="black" d="M2680.15,-579C2647.15,-567.73 2600.65,-551.86 2565.58,-539.88"/>
<polygon fill="black" stroke="black" points="2566.61,-536.54 2556.02,-536.62 2564.35,-543.16 2566.61,-536.54"/>
</g>
<!-- wire#_19_&#45;&gt;AND#_44_ -->
<g id="edge61" class="edge">
<title>wire#_19_&#45;&gt;AND#_44_</title>
<path fill="none" stroke="black" d="M2238.74,-435C2264.98,-424.07 2301.63,-408.8 2330.03,-396.96"/>
<polygon fill="black" stroke="black" points="2331.44,-400.17 2339.32,-393.09 2328.74,-393.71 2331.44,-400.17"/>
</g>
<!-- input#key[4] -->
<g id="node59" class="node">
<title>input#key[4]</title>
<ellipse fill="none" stroke="black" cx="1672.14" cy="-594" rx="71.49" ry="18"/>
<text text-anchor="middle" x="1672.14" y="-590.3" font-family="Times,serif" font-size="14.00">input#key[4]</text>
</g>
<!-- input#key[4]&#45;&gt;XNOR#_43_ -->
<g id="edge62" class="edge">
<title>input#key[4]&#45;&gt;XNOR#_43_</title>
<path fill="none" stroke="black" d="M1672.14,-575.7C1672.14,-567.98 1672.14,-558.71 1672.14,-550.11"/>
<polygon fill="black" stroke="black" points="1675.64,-550.1 1672.14,-540.1 1668.64,-550.1 1675.64,-550.1"/>
</g>
<!-- wire#_20_&#45;&gt;AND#_45_ -->
<g id="edge64" class="edge">
<title>wire#_20_&#45;&gt;AND#_45_</title>
<path fill="none" stroke="black" d="M2296.21,-288.41C2288.29,-279.61 2278.41,-268.63 2269.67,-258.92"/>
<polygon fill="black" stroke="black" points="2272.26,-256.56 2262.97,-251.47 2267.05,-261.24 2272.26,-256.56"/>
</g>
<!-- wire#_21_&#45;&gt;AND#_46_ -->
<g id="edge66" class="edge">
<title>wire#_21_&#45;&gt;AND#_46_</title>
<path fill="none" stroke="black" d="M2248.14,-143.7C2248.14,-135.98 2248.14,-126.71 2248.14,-118.11"/>
<polygon fill="black" stroke="black" points="2251.64,-118.1 2248.14,-108.1 2244.64,-118.1 2251.64,-118.1"/>
</g>
<!-- wire#_22_&#45;&gt;NAND#_47_ -->
<g id="edge68" class="edge">
<title>wire#_22_&#45;&gt;NAND#_47_</title>
<path fill="none" stroke="black" d="M2667.76,-27.79C2767.77,-46.6 2981.14,-94.52 2981.14,-161 2981.14,-595 2981.14,-595 2981.14,-595 2981.14,-771.64 2760.54,-890.66 2663.76,-934.38"/>
<polygon fill="black" stroke="black" points="2662.22,-931.23 2654.51,-938.49 2665.07,-937.62 2662.22,-931.23"/>
</g>
<!-- XNOR#_48_ -->
<g id="node64" class="node">
<title>XNOR#_48_</title>
<ellipse fill="none" stroke="black" cx="2390.14" cy="-810" rx="67.69" ry="18"/>
<text text-anchor="middle" x="2390.14" y="-806.3" font-family="Times,serif" font-size="14.00">XNOR#_48_</text>
</g>
<!-- wire#_23_&#45;&gt;XNOR#_48_ -->
<g id="edge70" class="edge">
<title>wire#_23_&#45;&gt;XNOR#_48_</title>
<path fill="none" stroke="black" d="M2390.14,-863.7C2390.14,-855.98 2390.14,-846.71 2390.14,-838.11"/>
<polygon fill="black" stroke="black" points="2393.64,-838.1 2390.14,-828.1 2386.64,-838.1 2393.64,-838.1"/>
</g>
<!-- output#lock_out -->
<g id="node65" class="node">
<title>output#lock_out</title>
<ellipse fill="none" stroke="black" cx="2150.14" cy="-738" rx="87.18" ry="18"/>
<text text-anchor="middle" x="2150.14" y="-734.3" font-family="Times,serif" font-size="14.00">output#lock_out</text>
</g>
<!-- XNOR#_48_&#45;&gt;output#lock_out -->
<g id="edge71" class="edge">
<title>XNOR#_48_&#45;&gt;output#lock_out</title>
<path fill="none" stroke="black" d="M2346.4,-796.24C2307.64,-784.94 2250.76,-768.35 2208.2,-755.93"/>
<polygon fill="black" stroke="black" points="2209.11,-752.55 2198.53,-753.11 2207.15,-759.27 2209.11,-752.55"/>
</g>
<!-- module#sarlock -->
<g id="node66" class="node">
<title>module#sarlock</title>
<ellipse fill="none" stroke="black" cx="1672.14" cy="-666" rx="85.59" ry="18"/>
<text text-anchor="middle" x="1672.14" y="-662.3" font-family="Times,serif" font-size="14.00">module#sarlock</text>
</g>
<!-- output#lock_out&#45;&gt;module#sarlock -->
<g id="edge72" class="edge">
<title>output#lock_out&#45;&gt;module#sarlock</title>
<path fill="none" stroke="black" d="M2081.4,-726.93C1993.75,-714.1 1842.55,-691.96 1750.52,-678.48"/>
<polygon fill="black" stroke="black" points="1750.82,-674.99 1740.42,-677 1749.81,-681.91 1750.82,-674.99"/>
</g>
<!-- module#sarlock&#45;&gt;input#inputs[0] -->
<g id="edge74" class="edge">
<title>module#sarlock&#45;&gt;input#inputs[0]</title>
<path fill="none" stroke="black" d="M1587.05,-663.59C1312.98,-658.78 455.07,-641.69 179.14,-612 171.05,-611.13 162.61,-609.97 154.25,-608.66"/>
<polygon fill="black" stroke="black" points="154.56,-605.16 144.12,-607 153.43,-612.07 154.56,-605.16"/>
</g>
<!-- module#sarlock&#45;&gt;input#key[0] -->
<g id="edge75" class="edge">
<title>module#sarlock&#45;&gt;input#key[0]</title>
<path fill="none" stroke="black" d="M1758.24,-665.64C1947.61,-666.02 2414.29,-661.35 2801.14,-612 2807.85,-611.14 2814.82,-610.03 2821.74,-608.78"/>
<polygon fill="black" stroke="black" points="2822.63,-612.17 2831.8,-606.87 2821.32,-605.3 2822.63,-612.17"/>
</g>
<!-- module#sarlock&#45;&gt;input#inputs[7] -->
<g id="edge76" class="edge">
<title>module#sarlock&#45;&gt;input#inputs[7]</title>
<path fill="none" stroke="black" d="M1590.27,-660.44C1471.54,-653.26 1244.79,-637.48 1053.14,-612 1045.46,-610.98 1037.44,-609.76 1029.47,-608.46"/>
<polygon fill="black" stroke="black" points="1029.88,-604.98 1019.44,-606.77 1028.72,-611.88 1029.88,-604.98"/>
</g>
<!-- module#sarlock&#45;&gt;input#key[7] -->
<g id="edge77" class="edge">
<title>module#sarlock&#45;&gt;input#key[7]</title>
<path fill="none" stroke="black" d="M1586.17,-665.77C1393.69,-666.48 913.75,-662.51 516.14,-612 509.44,-611.15 502.46,-610.04 495.54,-608.79"/>
<polygon fill="black" stroke="black" points="495.96,-605.3 485.48,-606.87 494.65,-612.18 495.96,-605.3"/>
</g>
<!-- module#sarlock&#45;&gt;input#inputs[1] -->
<g id="edge78" class="edge">
<title>module#sarlock&#45;&gt;input#inputs[1]</title>
<path fill="none" stroke="black" d="M1597.4,-657.04C1511.49,-647.59 1366.35,-630.75 1242.14,-612 1234.51,-610.85 1226.55,-609.56 1218.63,-608.22"/>
<polygon fill="black" stroke="black" points="1219.09,-604.75 1208.64,-606.51 1217.9,-611.65 1219.09,-604.75"/>
</g>
<!-- module#sarlock&#45;&gt;input#key[1] -->
<g id="edge79" class="edge">
<title>module#sarlock&#45;&gt;input#key[1]</title>
<path fill="none" stroke="black" d="M1611.47,-653.27C1556.92,-642.67 1474.62,-626.54 1403.14,-612 1397.37,-610.83 1391.37,-609.59 1385.36,-608.35"/>
<polygon fill="black" stroke="black" points="1385.78,-604.86 1375.28,-606.25 1384.36,-611.71 1385.78,-604.86"/>
</g>
<!-- module#sarlock&#45;&gt;input#inputs[3] -->
<g id="edge80" class="edge">
<title>module#sarlock&#45;&gt;input#inputs[3]</title>
<path fill="none" stroke="black" d="M1756.29,-662.29C1899.46,-657 2199.38,-643 2451.14,-612 2459.18,-611.01 2467.57,-609.79 2475.9,-608.46"/>
<polygon fill="black" stroke="black" points="2476.69,-611.87 2485.99,-606.79 2475.55,-604.97 2476.69,-611.87"/>
</g>
<!-- module#sarlock&#45;&gt;input#key[3] -->
<g id="edge81" class="edge">
<title>module#sarlock&#45;&gt;input#key[3]</title>
<path fill="none" stroke="black" d="M1754.98,-661.1C1873.91,-654.76 2099.71,-640.04 2290.14,-612 2296.49,-611.07 2303.08,-609.94 2309.64,-608.72"/>
<polygon fill="black" stroke="black" points="2310.74,-612.07 2319.89,-606.74 2309.41,-605.2 2310.74,-612.07"/>
</g>
<!-- module#sarlock&#45;&gt;input#inputs[5] -->
<g id="edge82" class="edge">
<title>module#sarlock&#45;&gt;input#inputs[5]</title>
<path fill="none" stroke="black" d="M1730.67,-652.81C1788.91,-640.67 1878.24,-622.06 1939.72,-609.25"/>
<polygon fill="black" stroke="black" points="1940.65,-612.64 1949.72,-607.17 1939.22,-605.78 1940.65,-612.64"/>
</g>
<!-- module#sarlock&#45;&gt;input#inputs[6] -->
<g id="edge83" class="edge">
<title>module#sarlock&#45;&gt;input#inputs[6]</title>
<path fill="none" stroke="black" d="M1746.89,-657.08C1832.81,-647.67 1977.95,-630.87 2102.14,-612 2109.55,-610.87 2117.28,-609.62 2124.97,-608.31"/>
<polygon fill="black" stroke="black" points="2125.79,-611.72 2135.04,-606.56 2124.59,-604.82 2125.79,-611.72"/>
</g>
<!-- module#sarlock&#45;&gt;input#inputs[4] -->
<g id="edge84" class="edge">
<title>module#sarlock&#45;&gt;input#inputs[4]</title>
<path fill="none" stroke="black" d="M1634.17,-649.81C1607.91,-639.31 1572.78,-625.26 1544.67,-614.01"/>
<polygon fill="black" stroke="black" points="1545.63,-610.62 1535.04,-610.16 1543.03,-617.12 1545.63,-610.62"/>
</g>
<!-- module#sarlock&#45;&gt;input#inputs[2] -->
<g id="edge85" class="edge">
<title>module#sarlock&#45;&gt;input#inputs[2]</title>
<path fill="none" stroke="black" d="M1587.62,-662.6C1440.38,-657.72 1127.48,-644.23 865.14,-612 857.24,-611.03 849,-609.83 840.83,-608.51"/>
<polygon fill="black" stroke="black" points="841.35,-605.05 830.91,-606.86 840.2,-611.95 841.35,-605.05"/>
</g>
<!-- module#sarlock&#45;&gt;input#key[5] -->
<g id="edge86" class="edge">
<title>module#sarlock&#45;&gt;input#key[5]</title>
<path fill="none" stroke="black" d="M1707.87,-649.46C1731.94,-639 1763.84,-625.13 1789.42,-614.01"/>
<polygon fill="black" stroke="black" points="1791.12,-617.09 1798.89,-609.89 1788.32,-610.67 1791.12,-617.09"/>
</g>
<!-- module#sarlock&#45;&gt;input#key[2] -->
<g id="edge87" class="edge">
<title>module#sarlock&#45;&gt;input#key[2]</title>
<path fill="none" stroke="black" d="M1586.22,-664.86C1413.34,-663.59 1011.41,-655.72 677.14,-612 670.44,-611.12 663.47,-610 656.55,-608.74"/>
<polygon fill="black" stroke="black" points="656.97,-605.25 646.49,-606.82 655.66,-612.13 656.97,-605.25"/>
</g>
<!-- module#sarlock&#45;&gt;input#key[6] -->
<g id="edge88" class="edge">
<title>module#sarlock&#45;&gt;input#key[6]</title>
<path fill="none" stroke="black" d="M1758.01,-664.67C1927.43,-663.06 2316.41,-654.58 2640.14,-612 2646.84,-611.12 2653.81,-609.99 2660.73,-608.73"/>
<polygon fill="black" stroke="black" points="2661.63,-612.12 2670.79,-606.8 2660.31,-605.24 2661.63,-612.12"/>
</g>
<!-- module#sarlock&#45;&gt;input#key[4] -->
<g id="edge89" class="edge">
<title>module#sarlock&#45;&gt;input#key[4]</title>
<path fill="none" stroke="black" d="M1672.14,-647.7C1672.14,-639.98 1672.14,-630.71 1672.14,-622.11"/>
<polygon fill="black" stroke="black" points="1675.64,-622.1 1672.14,-612.1 1668.64,-622.1 1675.64,-622.1"/>
</g>
<!-- wire#ckt_out[0] -->
<g id="node67" class="node">
<title>wire#ckt_out[0]</title>
<ellipse fill="none" stroke="black" cx="2553.14" cy="-882" rx="85.29" ry="18"/>
<text text-anchor="middle" x="2553.14" y="-878.3" font-family="Times,serif" font-size="14.00">wire#ckt_out[0]</text>
</g>
<!-- wire#ckt_out[0]&#45;&gt;XNOR#_48_ -->
<g id="edge73" class="edge">
<title>wire#ckt_out[0]&#45;&gt;XNOR#_48_</title>
<path fill="none" stroke="black" d="M2517.37,-865.64C2492.67,-855.03 2459.67,-840.86 2433.47,-829.61"/>
<polygon fill="black" stroke="black" points="2434.73,-826.34 2424.16,-825.61 2431.96,-832.77 2434.73,-826.34"/>
</g>
</g>
</svg>
