<?xml version="1.0" encoding="UTF-8" standalone="no"?>
<!DOCTYPE svg PUBLIC "-//W3C//DTD SVG 1.1//EN"
 "http://www.w3.org/Graphics/SVG/1.1/DTD/svg11.dtd">
<!-- Generated by graphviz version 2.43.0 (0)
 -->
<!-- Pages: 1 -->
<svg width="564pt" height="1412pt"
 viewBox="0.00 0.00 563.60 1412.00" xmlns="http://www.w3.org/2000/svg" xmlns:xlink="http://www.w3.org/1999/xlink">
<g id="graph0" class="graph" transform="scale(1 1) rotate(0) translate(4 1408)">
<polygon fill="white" stroke="transparent" points="-4,4 -4,-1408 559.6,-1408 559.6,4 -4,4"/>
<!-- NAND_4_ -->
<g id="node1" class="node">
<title>NAND_4_</title>
<ellipse fill="none" stroke="black" cx="501" cy="-1386" rx="54.69" ry="18"/>
<text text-anchor="middle" x="501" y="-1382.3" font-family="Times,serif" font-size="14.00">NAND_4_</text>
</g>
<!-- new_inverter_wire4 -->
<g id="node2" class="node">
<title>new_inverter_wire4</title>
<ellipse fill="none" stroke="black" cx="115" cy="-1314" rx="102.88" ry="18"/>
<text text-anchor="middle" x="115" y="-1310.3" font-family="Times,serif" font-size="14.00">new_inverter_wire4</text>
</g>
<!-- NAND_4_&#45;&gt;new_inverter_wire4 -->
<g id="edge1" class="edge">
<title>NAND_4_&#45;&gt;new_inverter_wire4</title>
<path fill="none" stroke="black" d="M454.44,-1376.56C389.86,-1364.85 272.23,-1343.51 193.84,-1329.3"/>
<polygon fill="black" stroke="black" points="193.99,-1325.77 183.52,-1327.43 192.74,-1332.65 193.99,-1325.77"/>
</g>
<!-- NOT_inserted_0_ -->
<g id="node24" class="node">
<title>NOT_inserted_0_</title>
<ellipse fill="none" stroke="black" cx="115" cy="-1242" rx="89.08" ry="18"/>
<text text-anchor="middle" x="115" y="-1238.3" font-family="Times,serif" font-size="14.00">NOT_inserted_0_</text>
</g>
<!-- new_inverter_wire4&#45;&gt;NOT_inserted_0_ -->
<g id="edge26" class="edge">
<title>new_inverter_wire4&#45;&gt;NOT_inserted_0_</title>
<path fill="none" stroke="black" d="M115,-1295.7C115,-1287.98 115,-1278.71 115,-1270.11"/>
<polygon fill="black" stroke="black" points="118.5,-1270.1 115,-1260.1 111.5,-1270.1 118.5,-1270.1"/>
</g>
<!-- _2_ -->
<g id="node3" class="node">
<title>_2_</title>
<ellipse fill="none" stroke="black" cx="94" cy="-1170" rx="27" ry="18"/>
<text text-anchor="middle" x="94" y="-1166.3" font-family="Times,serif" font-size="14.00">_2_</text>
</g>
<!-- NAND_5_ -->
<g id="node4" class="node">
<title>NAND_5_</title>
<ellipse fill="none" stroke="black" cx="94" cy="-1098" rx="54.69" ry="18"/>
<text text-anchor="middle" x="94" y="-1094.3" font-family="Times,serif" font-size="14.00">NAND_5_</text>
</g>
<!-- _2_&#45;&gt;NAND_5_ -->
<g id="edge2" class="edge">
<title>_2_&#45;&gt;NAND_5_</title>
<path fill="none" stroke="black" d="M94,-1151.7C94,-1143.98 94,-1134.71 94,-1126.11"/>
<polygon fill="black" stroke="black" points="97.5,-1126.1 94,-1116.1 90.5,-1126.1 97.5,-1126.1"/>
</g>
<!-- NAND_6_ -->
<g id="node5" class="node">
<title>NAND_6_</title>
<ellipse fill="none" stroke="black" cx="147" cy="-378" rx="54.69" ry="18"/>
<text text-anchor="middle" x="147" y="-374.3" font-family="Times,serif" font-size="14.00">NAND_6_</text>
</g>
<!-- _2_&#45;&gt;NAND_6_ -->
<g id="edge3" class="edge">
<title>_2_&#45;&gt;NAND_6_</title>
<path fill="none" stroke="black" d="M74.73,-1157.27C60.55,-1147.75 41.77,-1133.12 30,-1116 6.36,-1081.6 0,-1068.74 0,-1027 0,-1027 0,-1027 0,-521 0,-461.87 62.29,-419.55 105.78,-397.21"/>
<polygon fill="black" stroke="black" points="107.35,-400.34 114.74,-392.75 104.23,-394.07 107.35,-400.34"/>
</g>
<!-- new_inverter_wire5 -->
<g id="node9" class="node">
<title>new_inverter_wire5</title>
<ellipse fill="none" stroke="black" cx="170" cy="-1026" rx="102.88" ry="18"/>
<text text-anchor="middle" x="170" y="-1022.3" font-family="Times,serif" font-size="14.00">new_inverter_wire5</text>
</g>
<!-- NAND_5_&#45;&gt;new_inverter_wire5 -->
<g id="edge7" class="edge">
<title>NAND_5_&#45;&gt;new_inverter_wire5</title>
<path fill="none" stroke="black" d="M111.63,-1080.76C121.3,-1071.86 133.46,-1060.65 144.18,-1050.78"/>
<polygon fill="black" stroke="black" points="146.69,-1053.23 151.68,-1043.88 141.95,-1048.08 146.69,-1053.23"/>
</g>
<!-- new_inverter_wire7 -->
<g id="node14" class="node">
<title>new_inverter_wire7</title>
<ellipse fill="none" stroke="black" cx="147" cy="-306" rx="102.88" ry="18"/>
<text text-anchor="middle" x="147" y="-302.3" font-family="Times,serif" font-size="14.00">new_inverter_wire7</text>
</g>
<!-- NAND_6_&#45;&gt;new_inverter_wire7 -->
<g id="edge11" class="edge">
<title>NAND_6_&#45;&gt;new_inverter_wire7</title>
<path fill="none" stroke="black" d="M147,-359.7C147,-351.98 147,-342.71 147,-334.11"/>
<polygon fill="black" stroke="black" points="150.5,-334.1 147,-324.1 143.5,-334.1 150.5,-334.1"/>
</g>
<!-- N6 -->
<g id="node6" class="node">
<title>N6</title>
<ellipse fill="none" stroke="black" cx="419" cy="-450" rx="27" ry="18"/>
<text text-anchor="middle" x="419" y="-446.3" font-family="Times,serif" font-size="14.00">N6</text>
</g>
<!-- N6&#45;&gt;NAND_4_ -->
<g id="edge4" class="edge">
<title>N6&#45;&gt;NAND_4_</title>
<path fill="none" stroke="black" d="M443.11,-458.24C465.04,-466.06 496.68,-480.63 515,-504 540.28,-536.24 539,-552.03 539,-593 539,-1243 539,-1243 539,-1243 539,-1284.37 523.77,-1330.28 512.59,-1358.39"/>
<polygon fill="black" stroke="black" points="509.24,-1357.33 508.69,-1367.91 515.72,-1359.98 509.24,-1357.33"/>
</g>
<!-- N3 -->
<g id="node7" class="node">
<title>N3</title>
<ellipse fill="none" stroke="black" cx="347" cy="-450" rx="27" ry="18"/>
<text text-anchor="middle" x="347" y="-446.3" font-family="Times,serif" font-size="14.00">N3</text>
</g>
<!-- N3&#45;&gt;NAND_4_ -->
<g id="edge5" class="edge">
<title>N3&#45;&gt;NAND_4_</title>
<path fill="none" stroke="black" d="M365.88,-463.19C407.01,-490.42 501,-556.63 501,-593 501,-1243 501,-1243 501,-1243 501,-1283 501,-1329.35 501,-1357.92"/>
<polygon fill="black" stroke="black" points="497.5,-1357.95 501,-1367.95 504.5,-1357.95 497.5,-1357.95"/>
</g>
<!-- NAND_8_ -->
<g id="node8" class="node">
<title>NAND_8_</title>
<ellipse fill="none" stroke="black" cx="347" cy="-378" rx="54.69" ry="18"/>
<text text-anchor="middle" x="347" y="-374.3" font-family="Times,serif" font-size="14.00">NAND_8_</text>
</g>
<!-- N3&#45;&gt;NAND_8_ -->
<g id="edge6" class="edge">
<title>N3&#45;&gt;NAND_8_</title>
<path fill="none" stroke="black" d="M347,-431.7C347,-423.98 347,-414.71 347,-406.11"/>
<polygon fill="black" stroke="black" points="350.5,-406.1 347,-396.1 343.5,-406.1 350.5,-406.1"/>
</g>
<!-- _1_ -->
<g id="node20" class="node">
<title>_1_</title>
<ellipse fill="none" stroke="black" cx="405" cy="-306" rx="27" ry="18"/>
<text text-anchor="middle" x="405" y="-302.3" font-family="Times,serif" font-size="14.00">_1_</text>
</g>
<!-- NAND_8_&#45;&gt;_1_ -->
<g id="edge16" class="edge">
<title>NAND_8_&#45;&gt;_1_</title>
<path fill="none" stroke="black" d="M360.75,-360.41C368.28,-351.31 377.74,-339.9 385.98,-329.96"/>
<polygon fill="black" stroke="black" points="388.85,-331.97 392.54,-322.04 383.46,-327.51 388.85,-331.97"/>
</g>
<!-- NOT_inserted_1_ -->
<g id="node25" class="node">
<title>NOT_inserted_1_</title>
<ellipse fill="none" stroke="black" cx="183" cy="-954" rx="89.08" ry="18"/>
<text text-anchor="middle" x="183" y="-950.3" font-family="Times,serif" font-size="14.00">NOT_inserted_1_</text>
</g>
<!-- new_inverter_wire5&#45;&gt;NOT_inserted_1_ -->
<g id="edge28" class="edge">
<title>new_inverter_wire5&#45;&gt;NOT_inserted_1_</title>
<path fill="none" stroke="black" d="M173.21,-1007.7C174.65,-999.98 176.37,-990.71 177.96,-982.11"/>
<polygon fill="black" stroke="black" points="181.44,-982.58 179.82,-972.1 174.56,-981.3 181.44,-982.58"/>
</g>
<!-- _3_ -->
<g id="node10" class="node">
<title>_3_</title>
<ellipse fill="none" stroke="black" cx="208" cy="-882" rx="27" ry="18"/>
<text text-anchor="middle" x="208" y="-878.3" font-family="Times,serif" font-size="14.00">_3_</text>
</g>
<!-- NAND_7_ -->
<g id="node11" class="node">
<title>NAND_7_</title>
<ellipse fill="none" stroke="black" cx="208" cy="-810" rx="54.69" ry="18"/>
<text text-anchor="middle" x="208" y="-806.3" font-family="Times,serif" font-size="14.00">NAND_7_</text>
</g>
<!-- _3_&#45;&gt;NAND_7_ -->
<g id="edge8" class="edge">
<title>_3_&#45;&gt;NAND_7_</title>
<path fill="none" stroke="black" d="M208,-863.7C208,-855.98 208,-846.71 208,-838.11"/>
<polygon fill="black" stroke="black" points="211.5,-838.1 208,-828.1 204.5,-838.1 211.5,-838.1"/>
</g>
<!-- NAND_9_ -->
<g id="node12" class="node">
<title>NAND_9_</title>
<ellipse fill="none" stroke="black" cx="409" cy="-234" rx="54.69" ry="18"/>
<text text-anchor="middle" x="409" y="-230.3" font-family="Times,serif" font-size="14.00">NAND_9_</text>
</g>
<!-- _3_&#45;&gt;NAND_9_ -->
<g id="edge9" class="edge">
<title>_3_&#45;&gt;NAND_9_</title>
<path fill="none" stroke="black" d="M234.81,-878.65C300.28,-871.31 463,-842.62 463,-739 463,-739 463,-739 463,-593 463,-457.09 483.76,-417.01 441,-288 437.82,-278.41 432.66,-268.72 427.41,-260.29"/>
<polygon fill="black" stroke="black" points="430.18,-258.13 421.75,-251.71 424.33,-261.98 430.18,-258.13"/>
</g>
<!-- new_inverter_wire8 -->
<g id="node17" class="node">
<title>new_inverter_wire8</title>
<ellipse fill="none" stroke="black" cx="214" cy="-738" rx="102.88" ry="18"/>
<text text-anchor="middle" x="214" y="-734.3" font-family="Times,serif" font-size="14.00">new_inverter_wire8</text>
</g>
<!-- NAND_7_&#45;&gt;new_inverter_wire8 -->
<g id="edge14" class="edge">
<title>NAND_7_&#45;&gt;new_inverter_wire8</title>
<path fill="none" stroke="black" d="M209.48,-791.7C210.14,-783.98 210.94,-774.71 211.68,-766.11"/>
<polygon fill="black" stroke="black" points="215.17,-766.37 212.53,-756.1 208.19,-765.77 215.17,-766.37"/>
</g>
<!-- new_inverter_wire6 -->
<g id="node22" class="node">
<title>new_inverter_wire6</title>
<ellipse fill="none" stroke="black" cx="409" cy="-162" rx="102.88" ry="18"/>
<text text-anchor="middle" x="409" y="-158.3" font-family="Times,serif" font-size="14.00">new_inverter_wire6</text>
</g>
<!-- NAND_9_&#45;&gt;new_inverter_wire6 -->
<g id="edge19" class="edge">
<title>NAND_9_&#45;&gt;new_inverter_wire6</title>
<path fill="none" stroke="black" d="M409,-215.7C409,-207.98 409,-198.71 409,-190.11"/>
<polygon fill="black" stroke="black" points="412.5,-190.1 409,-180.1 405.5,-190.1 412.5,-190.1"/>
</g>
<!-- N2 -->
<g id="node13" class="node">
<title>N2</title>
<ellipse fill="none" stroke="black" cx="93" cy="-450" rx="27" ry="18"/>
<text text-anchor="middle" x="93" y="-446.3" font-family="Times,serif" font-size="14.00">N2</text>
</g>
<!-- N2&#45;&gt;NAND_5_ -->
<g id="edge10" class="edge">
<title>N2&#45;&gt;NAND_5_</title>
<path fill="none" stroke="black" d="M82.4,-466.84C66.41,-492.28 38,-544.36 38,-593 38,-955 38,-955 38,-955 38,-995.54 41.88,-1006.8 58,-1044 62.2,-1053.7 68.24,-1063.49 74.18,-1071.98"/>
<polygon fill="black" stroke="black" points="71.52,-1074.28 80.25,-1080.3 77.18,-1070.16 71.52,-1074.28"/>
</g>
<!-- NOT_inserted_3_ -->
<g id="node27" class="node">
<title>NOT_inserted_3_</title>
<ellipse fill="none" stroke="black" cx="140" cy="-234" rx="89.08" ry="18"/>
<text text-anchor="middle" x="140" y="-230.3" font-family="Times,serif" font-size="14.00">NOT_inserted_3_</text>
</g>
<!-- new_inverter_wire7&#45;&gt;NOT_inserted_3_ -->
<g id="edge32" class="edge">
<title>new_inverter_wire7&#45;&gt;NOT_inserted_3_</title>
<path fill="none" stroke="black" d="M145.27,-287.7C144.5,-279.98 143.57,-270.71 142.71,-262.11"/>
<polygon fill="black" stroke="black" points="146.19,-261.71 141.71,-252.1 139.22,-262.4 146.19,-261.71"/>
</g>
<!-- _0_ -->
<g id="node15" class="node">
<title>_0_</title>
<ellipse fill="none" stroke="black" cx="75" cy="-162" rx="27" ry="18"/>
<text text-anchor="middle" x="75" y="-158.3" font-family="Times,serif" font-size="14.00">_0_</text>
</g>
<!-- _0_&#45;&gt;NAND_7_ -->
<g id="edge12" class="edge">
<title>_0_&#45;&gt;NAND_7_</title>
<path fill="none" stroke="black" d="M62.84,-178.27C55.49,-188.37 46.66,-202.24 42,-216 31.68,-246.45 36.56,-255.89 35,-288 34.22,-303.98 33.79,-308.05 35,-324 35.07,-324.94 76,-592.06 76,-593 76,-667 76,-667 76,-667 76,-708.21 75.59,-724.37 102,-756 116.63,-773.52 138.48,-785.81 158.55,-794.11"/>
<polygon fill="black" stroke="black" points="157.33,-797.39 167.92,-797.76 159.87,-790.87 157.33,-797.39"/>
</g>
<!-- N7 -->
<g id="node16" class="node">
<title>N7</title>
<ellipse fill="none" stroke="black" cx="165" cy="-450" rx="27" ry="18"/>
<text text-anchor="middle" x="165" y="-446.3" font-family="Times,serif" font-size="14.00">N7</text>
</g>
<!-- N7&#45;&gt;NAND_6_ -->
<g id="edge13" class="edge">
<title>N7&#45;&gt;NAND_6_</title>
<path fill="none" stroke="black" d="M160.64,-432.05C158.64,-424.26 156.21,-414.82 153.96,-406.08"/>
<polygon fill="black" stroke="black" points="157.32,-405.09 151.44,-396.28 150.54,-406.83 157.32,-405.09"/>
</g>
<!-- NOT_inserted_4_ -->
<g id="node28" class="node">
<title>NOT_inserted_4_</title>
<ellipse fill="none" stroke="black" cx="217" cy="-666" rx="89.08" ry="18"/>
<text text-anchor="middle" x="217" y="-662.3" font-family="Times,serif" font-size="14.00">NOT_inserted_4_</text>
</g>
<!-- new_inverter_wire8&#45;&gt;NOT_inserted_4_ -->
<g id="edge34" class="edge">
<title>new_inverter_wire8&#45;&gt;NOT_inserted_4_</title>
<path fill="none" stroke="black" d="M214.74,-719.7C215.07,-711.98 215.47,-702.71 215.84,-694.11"/>
<polygon fill="black" stroke="black" points="219.34,-694.25 216.27,-684.1 212.34,-693.95 219.34,-694.25"/>
</g>
<!-- N23 -->
<g id="node18" class="node">
<title>N23</title>
<ellipse fill="none" stroke="black" cx="219" cy="-594" rx="30.59" ry="18"/>
<text text-anchor="middle" x="219" y="-590.3" font-family="Times,serif" font-size="14.00">N23</text>
</g>
<!-- module#c17 -->
<g id="node19" class="node">
<title>module#c17</title>
<ellipse fill="none" stroke="black" cx="220" cy="-522" rx="69.59" ry="18"/>
<text text-anchor="middle" x="220" y="-518.3" font-family="Times,serif" font-size="14.00">module#c17</text>
</g>
<!-- N23&#45;&gt;module#c17 -->
<g id="edge15" class="edge">
<title>N23&#45;&gt;module#c17</title>
<path fill="none" stroke="black" d="M219.25,-575.7C219.36,-567.98 219.49,-558.71 219.61,-550.11"/>
<polygon fill="black" stroke="black" points="223.11,-550.15 219.76,-540.1 216.11,-550.05 223.11,-550.15"/>
</g>
<!-- module#c17&#45;&gt;N6 -->
<g id="edge21" class="edge">
<title>module#c17&#45;&gt;N6</title>
<path fill="none" stroke="black" d="M264.82,-508.1C297.87,-498.19 343.72,-483.59 383,-468 384.83,-467.27 386.7,-466.5 388.58,-465.69"/>
<polygon fill="black" stroke="black" points="390.19,-468.81 397.88,-461.52 387.32,-462.42 390.19,-468.81"/>
</g>
<!-- module#c17&#45;&gt;N3 -->
<g id="edge22" class="edge">
<title>module#c17&#45;&gt;N3</title>
<path fill="none" stroke="black" d="M248.19,-505.46C268.94,-494.03 297.07,-478.52 318.01,-466.98"/>
<polygon fill="black" stroke="black" points="319.72,-470.03 326.78,-462.14 316.34,-463.9 319.72,-470.03"/>
</g>
<!-- module#c17&#45;&gt;N2 -->
<g id="edge23" class="edge">
<title>module#c17&#45;&gt;N2</title>
<path fill="none" stroke="black" d="M191.81,-505.46C171.06,-494.03 142.93,-478.52 121.99,-466.98"/>
<polygon fill="black" stroke="black" points="123.66,-463.9 113.22,-462.14 120.28,-470.03 123.66,-463.9"/>
</g>
<!-- module#c17&#45;&gt;N7 -->
<g id="edge24" class="edge">
<title>module#c17&#45;&gt;N7</title>
<path fill="none" stroke="black" d="M206.69,-504.05C199.7,-495.17 191.04,-484.14 183.42,-474.45"/>
<polygon fill="black" stroke="black" points="186,-472.06 177.07,-466.36 180.49,-476.38 186,-472.06"/>
</g>
<!-- N1 -->
<g id="node21" class="node">
<title>N1</title>
<ellipse fill="none" stroke="black" cx="275" cy="-450" rx="27" ry="18"/>
<text text-anchor="middle" x="275" y="-446.3" font-family="Times,serif" font-size="14.00">N1</text>
</g>
<!-- module#c17&#45;&gt;N1 -->
<g id="edge25" class="edge">
<title>module#c17&#45;&gt;N1</title>
<path fill="none" stroke="black" d="M233.31,-504.05C240.3,-495.17 248.96,-484.14 256.58,-474.45"/>
<polygon fill="black" stroke="black" points="259.51,-476.38 262.93,-466.36 254,-472.06 259.51,-476.38"/>
</g>
<!-- _1_&#45;&gt;NAND_9_ -->
<g id="edge17" class="edge">
<title>_1_&#45;&gt;NAND_9_</title>
<path fill="none" stroke="black" d="M405.99,-287.7C406.43,-279.98 406.96,-270.71 407.45,-262.11"/>
<polygon fill="black" stroke="black" points="410.95,-262.29 408.02,-252.1 403.96,-261.89 410.95,-262.29"/>
</g>
<!-- N1&#45;&gt;NAND_8_ -->
<g id="edge18" class="edge">
<title>N1&#45;&gt;NAND_8_</title>
<path fill="none" stroke="black" d="M289.57,-434.83C299.12,-425.55 311.83,-413.19 322.87,-402.46"/>
<polygon fill="black" stroke="black" points="325.45,-404.83 330.18,-395.35 320.57,-399.82 325.45,-404.83"/>
</g>
<!-- NOT_inserted_2_ -->
<g id="node26" class="node">
<title>NOT_inserted_2_</title>
<ellipse fill="none" stroke="black" cx="402" cy="-90" rx="89.08" ry="18"/>
<text text-anchor="middle" x="402" y="-86.3" font-family="Times,serif" font-size="14.00">NOT_inserted_2_</text>
</g>
<!-- new_inverter_wire6&#45;&gt;NOT_inserted_2_ -->
<g id="edge30" class="edge">
<title>new_inverter_wire6&#45;&gt;NOT_inserted_2_</title>
<path fill="none" stroke="black" d="M407.27,-143.7C406.5,-135.98 405.57,-126.71 404.71,-118.11"/>
<polygon fill="black" stroke="black" points="408.19,-117.71 403.71,-108.1 401.22,-118.4 408.19,-117.71"/>
</g>
<!-- N22 -->
<g id="node23" class="node">
<title>N22</title>
<ellipse fill="none" stroke="black" cx="336" cy="-18" rx="30.59" ry="18"/>
<text text-anchor="middle" x="336" y="-14.3" font-family="Times,serif" font-size="14.00">N22</text>
</g>
<!-- N22&#45;&gt;module#c17 -->
<g id="edge20" class="edge">
<title>N22&#45;&gt;module#c17</title>
<path fill="none" stroke="black" d="M324.82,-34.75C307.96,-60.08 278,-112 278,-161 278,-235 278,-235 278,-235 278,-248.01 240.62,-424.44 225.88,-493.53"/>
<polygon fill="black" stroke="black" points="222.38,-493.14 223.72,-503.65 229.23,-494.61 222.38,-493.14"/>
</g>
<!-- NOT_inserted_0_&#45;&gt;_2_ -->
<g id="edge27" class="edge">
<title>NOT_inserted_0_&#45;&gt;_2_</title>
<path fill="none" stroke="black" d="M109.81,-1223.7C107.47,-1215.9 104.65,-1206.51 102.05,-1197.83"/>
<polygon fill="black" stroke="black" points="105.36,-1196.68 99.13,-1188.1 98.65,-1198.69 105.36,-1196.68"/>
</g>
<!-- NOT_inserted_1_&#45;&gt;_3_ -->
<g id="edge29" class="edge">
<title>NOT_inserted_1_&#45;&gt;_3_</title>
<path fill="none" stroke="black" d="M189.18,-935.7C192.04,-927.7 195.49,-918.02 198.66,-909.15"/>
<polygon fill="black" stroke="black" points="202,-910.22 202.06,-899.62 195.4,-907.86 202,-910.22"/>
</g>
<!-- NOT_inserted_2_&#45;&gt;N22 -->
<g id="edge31" class="edge">
<title>NOT_inserted_2_&#45;&gt;N22</title>
<path fill="none" stroke="black" d="M386.02,-72.05C377.47,-62.99 366.83,-51.69 357.55,-41.86"/>
<polygon fill="black" stroke="black" points="359.89,-39.23 350.48,-34.36 354.79,-44.03 359.89,-39.23"/>
</g>
<!-- NOT_inserted_3_&#45;&gt;_0_ -->
<g id="edge33" class="edge">
<title>NOT_inserted_3_&#45;&gt;_0_</title>
<path fill="none" stroke="black" d="M124.27,-216.05C115.73,-206.86 105.06,-195.38 95.84,-185.45"/>
<polygon fill="black" stroke="black" points="98.19,-182.83 88.82,-177.89 93.06,-187.6 98.19,-182.83"/>
</g>
<!-- NOT_inserted_4_&#45;&gt;N23 -->
<g id="edge35" class="edge">
<title>NOT_inserted_4_&#45;&gt;N23</title>
<path fill="none" stroke="black" d="M217.49,-647.7C217.71,-639.98 217.98,-630.71 218.23,-622.11"/>
<polygon fill="black" stroke="black" points="221.72,-622.2 218.51,-612.1 214.73,-622 221.72,-622.2"/>
</g>
<!-- lockingkeyinput[0] -->
<g id="node29" class="node">
<title>lockingkeyinput[0]</title>
<ellipse fill="none" stroke="black" cx="333" cy="-1314" rx="96.68" ry="18"/>
<text text-anchor="middle" x="333" y="-1310.3" font-family="Times,serif" font-size="14.00">lockingkeyinput[0]</text>
</g>
<!-- lockingkeyinput[0]&#45;&gt;NOT_inserted_0_ -->
<g id="edge36" class="edge">
<title>lockingkeyinput[0]&#45;&gt;NOT_inserted_0_</title>
<path fill="none" stroke="black" d="M286.77,-1298.15C252.72,-1287.22 206.29,-1272.31 170.28,-1260.75"/>
<polygon fill="black" stroke="black" points="171.01,-1257.31 160.42,-1257.58 168.87,-1263.97 171.01,-1257.31"/>
</g>
</g>
</svg>
