<?xml version="1.0" encoding="UTF-8" standalone="no"?>
<!DOCTYPE svg PUBLIC "-//W3C//DTD SVG 1.1//EN"
 "http://www.w3.org/Graphics/SVG/1.1/DTD/svg11.dtd">
<!-- Generated by graphviz version 2.43.0 (0)
 -->
<!-- Pages: 1 -->
<svg width="2783pt" height="188pt"
 viewBox="0.00 0.00 2782.64 188.00" xmlns="http://www.w3.org/2000/svg" xmlns:xlink="http://www.w3.org/1999/xlink">
<g id="graph0" class="graph" transform="scale(1 1) rotate(0) translate(4 184)">
<polygon fill="white" stroke="transparent" points="-4,4 -4,-184 2778.64,-184 2778.64,4 -4,4"/>
<!-- module#locked -->
<g id="node1" class="node">
<title>module#locked</title>
<ellipse fill="none" stroke="black" cx="1488.14" cy="-90" rx="82.59" ry="18"/>
<text text-anchor="middle" x="1488.14" y="-86.3" font-family="Times,serif" font-size="14.00">module#locked</text>
</g>
<!-- input#inputs[0] -->
<g id="node2" class="node">
<title>input#inputs[0]</title>
<ellipse fill="none" stroke="black" cx="85.14" cy="-18" rx="85.29" ry="18"/>
<text text-anchor="middle" x="85.14" y="-14.3" font-family="Times,serif" font-size="14.00">input#inputs[0]</text>
</g>
<!-- module#locked&#45;&gt;input#inputs[0] -->
<g id="edge1" class="edge">
<title>module#locked&#45;&gt;input#inputs[0]</title>
<path fill="none" stroke="black" d="M1405.52,-89.61C1198.41,-90.29 640.62,-86.82 179.14,-36 171.11,-35.12 162.74,-33.95 154.44,-32.65"/>
<polygon fill="black" stroke="black" points="154.82,-29.16 144.38,-31 153.68,-36.07 154.82,-29.16"/>
</g>
<!-- input#inputs[1] -->
<g id="node3" class="node">
<title>input#inputs[1]</title>
<ellipse fill="none" stroke="black" cx="273.14" cy="-18" rx="85.29" ry="18"/>
<text text-anchor="middle" x="273.14" y="-14.3" font-family="Times,serif" font-size="14.00">input#inputs[1]</text>
</g>
<!-- module#locked&#45;&gt;input#inputs[1] -->
<g id="edge2" class="edge">
<title>module#locked&#45;&gt;input#inputs[1]</title>
<path fill="none" stroke="black" d="M1405.57,-88.81C1219.57,-87.57 753.84,-79.92 367.14,-36 359.12,-35.09 350.74,-33.91 342.45,-32.6"/>
<polygon fill="black" stroke="black" points="342.82,-29.11 332.39,-30.94 341.69,-36.02 342.82,-29.11"/>
</g>
<!-- input#inputs[2] -->
<g id="node4" class="node">
<title>input#inputs[2]</title>
<ellipse fill="none" stroke="black" cx="461.14" cy="-18" rx="85.29" ry="18"/>
<text text-anchor="middle" x="461.14" y="-14.3" font-family="Times,serif" font-size="14.00">input#inputs[2]</text>
</g>
<!-- module#locked&#45;&gt;input#inputs[2] -->
<g id="edge3" class="edge">
<title>module#locked&#45;&gt;input#inputs[2]</title>
<path fill="none" stroke="black" d="M1406.1,-87.7C1243.31,-84.39 868.11,-73.05 555.14,-36 547.18,-35.06 538.87,-33.86 530.64,-32.55"/>
<polygon fill="black" stroke="black" points="531.09,-29.08 520.65,-30.89 529.94,-35.98 531.09,-29.08"/>
</g>
<!-- input#inputs[3] -->
<g id="node5" class="node">
<title>input#inputs[3]</title>
<ellipse fill="none" stroke="black" cx="649.14" cy="-18" rx="85.29" ry="18"/>
<text text-anchor="middle" x="649.14" y="-14.3" font-family="Times,serif" font-size="14.00">input#inputs[3]</text>
</g>
<!-- module#locked&#45;&gt;input#inputs[3] -->
<g id="edge4" class="edge">
<title>module#locked&#45;&gt;input#inputs[3]</title>
<path fill="none" stroke="black" d="M1407.39,-86.11C1270.35,-80.57 983.73,-66.22 743.14,-36 735.39,-35.03 727.31,-33.84 719.28,-32.54"/>
<polygon fill="black" stroke="black" points="719.61,-29.05 709.17,-30.85 718.46,-35.95 719.61,-29.05"/>
</g>
<!-- input#inputs[4] -->
<g id="node6" class="node">
<title>input#inputs[4]</title>
<ellipse fill="none" stroke="black" cx="837.14" cy="-18" rx="85.29" ry="18"/>
<text text-anchor="middle" x="837.14" y="-14.3" font-family="Times,serif" font-size="14.00">input#inputs[4]</text>
</g>
<!-- module#locked&#45;&gt;input#inputs[4] -->
<g id="edge5" class="edge">
<title>module#locked&#45;&gt;input#inputs[4]</title>
<path fill="none" stroke="black" d="M1410.41,-83.68C1302.54,-75.82 1101.47,-59.46 931.14,-36 923.52,-34.95 915.57,-33.72 907.66,-32.41"/>
<polygon fill="black" stroke="black" points="908.15,-28.95 897.7,-30.72 906.98,-35.85 908.15,-28.95"/>
</g>
<!-- input#inputs[5] -->
<g id="node7" class="node">
<title>input#inputs[5]</title>
<ellipse fill="none" stroke="black" cx="1025.14" cy="-18" rx="85.29" ry="18"/>
<text text-anchor="middle" x="1025.14" y="-14.3" font-family="Times,serif" font-size="14.00">input#inputs[5]</text>
</g>
<!-- module#locked&#45;&gt;input#inputs[5] -->
<g id="edge6" class="edge">
<title>module#locked&#45;&gt;input#inputs[5]</title>
<path fill="none" stroke="black" d="M1419.68,-79.92C1345.51,-69.91 1223.75,-52.97 1119.14,-36 1111.86,-34.82 1104.27,-33.53 1096.69,-32.22"/>
<polygon fill="black" stroke="black" points="1097.23,-28.76 1086.78,-30.48 1096.02,-35.65 1097.23,-28.76"/>
</g>
<!-- input#inputs[6] -->
<g id="node8" class="node">
<title>input#inputs[6]</title>
<ellipse fill="none" stroke="black" cx="1213.14" cy="-18" rx="85.29" ry="18"/>
<text text-anchor="middle" x="1213.14" y="-14.3" font-family="Times,serif" font-size="14.00">input#inputs[6]</text>
</g>
<!-- module#locked&#45;&gt;input#inputs[6] -->
<g id="edge7" class="edge">
<title>module#locked&#45;&gt;input#inputs[6]</title>
<path fill="none" stroke="black" d="M1436.74,-75.92C1390.93,-64.25 1323.78,-47.16 1275.03,-34.75"/>
<polygon fill="black" stroke="black" points="1275.78,-31.33 1265.23,-32.26 1274.05,-38.12 1275.78,-31.33"/>
</g>
<!-- input#inputs[7] -->
<g id="node9" class="node">
<title>input#inputs[7]</title>
<ellipse fill="none" stroke="black" cx="1401.14" cy="-18" rx="85.29" ry="18"/>
<text text-anchor="middle" x="1401.14" y="-14.3" font-family="Times,serif" font-size="14.00">input#inputs[7]</text>
</g>
<!-- module#locked&#45;&gt;input#inputs[7] -->
<g id="edge8" class="edge">
<title>module#locked&#45;&gt;input#inputs[7]</title>
<path fill="none" stroke="black" d="M1467.52,-72.41C1456.23,-63.32 1442.06,-51.92 1429.71,-41.99"/>
<polygon fill="black" stroke="black" points="1431.9,-39.25 1421.91,-35.71 1427.51,-44.71 1431.9,-39.25"/>
</g>
<!-- input#key[0] -->
<g id="node10" class="node">
<title>input#key[0]</title>
<ellipse fill="none" stroke="black" cx="1576.14" cy="-18" rx="71.49" ry="18"/>
<text text-anchor="middle" x="1576.14" y="-14.3" font-family="Times,serif" font-size="14.00">input#key[0]</text>
</g>
<!-- module#locked&#45;&gt;input#key[0] -->
<g id="edge9" class="edge">
<title>module#locked&#45;&gt;input#key[0]</title>
<path fill="none" stroke="black" d="M1509,-72.41C1520.5,-63.26 1534.96,-51.76 1547.52,-41.77"/>
<polygon fill="black" stroke="black" points="1549.79,-44.43 1555.44,-35.47 1545.43,-38.96 1549.79,-44.43"/>
</g>
<!-- input#key[1] -->
<g id="node11" class="node">
<title>input#key[1]</title>
<ellipse fill="none" stroke="black" cx="1737.14" cy="-18" rx="71.49" ry="18"/>
<text text-anchor="middle" x="1737.14" y="-14.3" font-family="Times,serif" font-size="14.00">input#key[1]</text>
</g>
<!-- module#locked&#45;&gt;input#key[1] -->
<g id="edge10" class="edge">
<title>module#locked&#45;&gt;input#key[1]</title>
<path fill="none" stroke="black" d="M1536.74,-75.34C1578.23,-63.67 1637.91,-46.9 1681.35,-34.69"/>
<polygon fill="black" stroke="black" points="1682.51,-38 1691.19,-31.92 1680.61,-31.26 1682.51,-38"/>
</g>
<!-- input#key[2] -->
<g id="node12" class="node">
<title>input#key[2]</title>
<ellipse fill="none" stroke="black" cx="1898.14" cy="-18" rx="71.49" ry="18"/>
<text text-anchor="middle" x="1898.14" y="-14.3" font-family="Times,serif" font-size="14.00">input#key[2]</text>
</g>
<!-- module#locked&#45;&gt;input#key[2] -->
<g id="edge11" class="edge">
<title>module#locked&#45;&gt;input#key[2]</title>
<path fill="none" stroke="black" d="M1554.47,-79.25C1621.03,-69.25 1726.41,-52.82 1817.14,-36 1823.26,-34.87 1829.63,-33.63 1835.99,-32.36"/>
<polygon fill="black" stroke="black" points="1836.82,-35.76 1845.93,-30.34 1835.43,-28.9 1836.82,-35.76"/>
</g>
<!-- input#key[3] -->
<g id="node13" class="node">
<title>input#key[3]</title>
<ellipse fill="none" stroke="black" cx="2059.14" cy="-18" rx="71.49" ry="18"/>
<text text-anchor="middle" x="2059.14" y="-14.3" font-family="Times,serif" font-size="14.00">input#key[3]</text>
</g>
<!-- module#locked&#45;&gt;input#key[3] -->
<g id="edge12" class="edge">
<title>module#locked&#45;&gt;input#key[3]</title>
<path fill="none" stroke="black" d="M1564.42,-83.11C1661.06,-75.1 1832.58,-59.09 1978.14,-36 1984.48,-35 1991.06,-33.82 1997.62,-32.58"/>
<polygon fill="black" stroke="black" points="1998.73,-35.93 2007.86,-30.56 1997.38,-29.06 1998.73,-35.93"/>
</g>
<!-- input#key[4] -->
<g id="node14" class="node">
<title>input#key[4]</title>
<ellipse fill="none" stroke="black" cx="2220.14" cy="-18" rx="71.49" ry="18"/>
<text text-anchor="middle" x="2220.14" y="-14.3" font-family="Times,serif" font-size="14.00">input#key[4]</text>
</g>
<!-- module#locked&#45;&gt;input#key[4] -->
<g id="edge13" class="edge">
<title>module#locked&#45;&gt;input#key[4]</title>
<path fill="none" stroke="black" d="M1568.43,-85.71C1691.7,-79.94 1934.76,-65.65 2139.14,-36 2145.73,-35.04 2152.6,-33.88 2159.41,-32.61"/>
<polygon fill="black" stroke="black" points="2160.18,-36.02 2169.33,-30.68 2158.85,-29.15 2160.18,-36.02"/>
</g>
<!-- input#key[5] -->
<g id="node15" class="node">
<title>input#key[5]</title>
<ellipse fill="none" stroke="black" cx="2381.14" cy="-18" rx="71.49" ry="18"/>
<text text-anchor="middle" x="2381.14" y="-14.3" font-family="Times,serif" font-size="14.00">input#key[5]</text>
</g>
<!-- module#locked&#45;&gt;input#key[5] -->
<g id="edge14" class="edge">
<title>module#locked&#45;&gt;input#key[5]</title>
<path fill="none" stroke="black" d="M1570.07,-87.49C1716.99,-83.92 2034.73,-72.33 2300.14,-36 2306.74,-35.1 2313.61,-33.96 2320.43,-32.71"/>
<polygon fill="black" stroke="black" points="2321.19,-36.13 2330.35,-30.81 2319.87,-29.26 2321.19,-36.13"/>
</g>
<!-- input#key[6] -->
<g id="node16" class="node">
<title>input#key[6]</title>
<ellipse fill="none" stroke="black" cx="2542.14" cy="-18" rx="71.49" ry="18"/>
<text text-anchor="middle" x="2542.14" y="-14.3" font-family="Times,serif" font-size="14.00">input#key[6]</text>
</g>
<!-- module#locked&#45;&gt;input#key[6] -->
<g id="edge15" class="edge">
<title>module#locked&#45;&gt;input#key[6]</title>
<path fill="none" stroke="black" d="M1570.54,-88.74C1738.7,-87.27 2133.23,-79.09 2461.14,-36 2467.84,-35.12 2474.81,-33.99 2481.73,-32.73"/>
<polygon fill="black" stroke="black" points="2482.63,-36.12 2491.79,-30.81 2481.31,-29.25 2482.63,-36.12"/>
</g>
<!-- input#key[7] -->
<g id="node17" class="node">
<title>input#key[7]</title>
<ellipse fill="none" stroke="black" cx="2703.14" cy="-18" rx="71.49" ry="18"/>
<text text-anchor="middle" x="2703.14" y="-14.3" font-family="Times,serif" font-size="14.00">input#key[7]</text>
</g>
<!-- module#locked&#45;&gt;input#key[7] -->
<g id="edge16" class="edge">
<title>module#locked&#45;&gt;input#key[7]</title>
<path fill="none" stroke="black" d="M1570.71,-89.66C1758.34,-90.16 2230.88,-85.87 2622.14,-36 2628.85,-35.15 2635.82,-34.03 2642.74,-32.78"/>
<polygon fill="black" stroke="black" points="2643.63,-36.17 2652.8,-30.87 2642.32,-29.3 2643.63,-36.17"/>
</g>
<!-- output#out[0] -->
<g id="node18" class="node">
<title>output#out[0]</title>
<ellipse fill="none" stroke="black" cx="1402.14" cy="-162" rx="77.19" ry="18"/>
<text text-anchor="middle" x="1402.14" y="-158.3" font-family="Times,serif" font-size="14.00">output#out[0]</text>
</g>
<!-- output#out[0]&#45;&gt;module#locked -->
<g id="edge17" class="edge">
<title>output#out[0]&#45;&gt;module#locked</title>
<path fill="none" stroke="black" d="M1422.52,-144.41C1433.66,-135.34 1447.63,-123.97 1459.82,-114.06"/>
<polygon fill="black" stroke="black" points="1462.36,-116.5 1467.91,-107.47 1457.94,-111.07 1462.36,-116.5"/>
</g>
<!-- output#out[1] -->
<g id="node19" class="node">
<title>output#out[1]</title>
<ellipse fill="none" stroke="black" cx="1575.14" cy="-162" rx="77.19" ry="18"/>
<text text-anchor="middle" x="1575.14" y="-158.3" font-family="Times,serif" font-size="14.00">output#out[1]</text>
</g>
<!-- output#out[1]&#45;&gt;module#locked -->
<g id="edge18" class="edge">
<title>output#out[1]&#45;&gt;module#locked</title>
<path fill="none" stroke="black" d="M1554.52,-144.41C1543.15,-135.26 1528.85,-123.76 1516.44,-113.77"/>
<polygon fill="black" stroke="black" points="1518.6,-111.01 1508.61,-107.47 1514.21,-116.47 1518.6,-111.01"/>
</g>
<!-- module#sarlock -->
<g id="node20" class="node">
<title>module#sarlock</title>
<ellipse fill="none" stroke="black" cx="1756.14" cy="-162" rx="85.59" ry="18"/>
<text text-anchor="middle" x="1756.14" y="-158.3" font-family="Times,serif" font-size="14.00">module#sarlock</text>
</g>
</g>
</svg>
