<?xml version="1.0" encoding="UTF-8" standalone="no"?>
<!DOCTYPE svg PUBLIC "-//W3C//DTD SVG 1.1//EN"
 "http://www.w3.org/Graphics/SVG/1.1/DTD/svg11.dtd">
<!-- Generated by graphviz version 2.43.0 (0)
 -->
<!-- Pages: 1 -->
<svg width="1204pt" height="1412pt"
 viewBox="0.00 0.00 1204.00 1412.00" xmlns="http://www.w3.org/2000/svg" xmlns:xlink="http://www.w3.org/1999/xlink">
<g id="graph0" class="graph" transform="scale(1 1) rotate(0) translate(4 1408)">
<polygon fill="white" stroke="transparent" points="-4,4 -4,-1408 1200,-1408 1200,4 -4,4"/>
<!-- NAND_4_ -->
<g id="node1" class="node">
<title>NAND_4_</title>
<ellipse fill="none" stroke="black" cx="1097" cy="-1386" rx="54.69" ry="18"/>
<text text-anchor="middle" x="1097" y="-1382.3" font-family="Times,serif" font-size="14.00">NAND_4_</text>
</g>
<!-- new_inverter_wire6 -->
<g id="node2" class="node">
<title>new_inverter_wire6</title>
<ellipse fill="none" stroke="black" cx="961" cy="-1314" rx="102.88" ry="18"/>
<text text-anchor="middle" x="961" y="-1310.3" font-family="Times,serif" font-size="14.00">new_inverter_wire6</text>
</g>
<!-- NAND_4_&#45;&gt;new_inverter_wire6 -->
<g id="edge1" class="edge">
<title>NAND_4_&#45;&gt;new_inverter_wire6</title>
<path fill="none" stroke="black" d="M1068.82,-1370.5C1049.35,-1360.47 1023.16,-1346.99 1001.46,-1335.83"/>
<polygon fill="black" stroke="black" points="1002.96,-1332.66 992.47,-1331.2 999.76,-1338.89 1002.96,-1332.66"/>
</g>
<!-- NOT_inserted_2_ -->
<g id="node31" class="node">
<title>NOT_inserted_2_</title>
<ellipse fill="none" stroke="black" cx="955" cy="-1242" rx="89.08" ry="18"/>
<text text-anchor="middle" x="955" y="-1238.3" font-family="Times,serif" font-size="14.00">NOT_inserted_2_</text>
</g>
<!-- new_inverter_wire6&#45;&gt;NOT_inserted_2_ -->
<g id="edge35" class="edge">
<title>new_inverter_wire6&#45;&gt;NOT_inserted_2_</title>
<path fill="none" stroke="black" d="M959.52,-1295.7C958.86,-1287.98 958.06,-1278.71 957.32,-1270.11"/>
<polygon fill="black" stroke="black" points="960.81,-1269.77 956.47,-1260.1 953.83,-1270.37 960.81,-1269.77"/>
</g>
<!-- _2_ -->
<g id="node3" class="node">
<title>_2_</title>
<ellipse fill="none" stroke="black" cx="476" cy="-1170" rx="27" ry="18"/>
<text text-anchor="middle" x="476" y="-1166.3" font-family="Times,serif" font-size="14.00">_2_</text>
</g>
<!-- NAND_5_ -->
<g id="node4" class="node">
<title>NAND_5_</title>
<ellipse fill="none" stroke="black" cx="476" cy="-1098" rx="54.69" ry="18"/>
<text text-anchor="middle" x="476" y="-1094.3" font-family="Times,serif" font-size="14.00">NAND_5_</text>
</g>
<!-- _2_&#45;&gt;NAND_5_ -->
<g id="edge2" class="edge">
<title>_2_&#45;&gt;NAND_5_</title>
<path fill="none" stroke="black" d="M476,-1151.7C476,-1143.98 476,-1134.71 476,-1126.11"/>
<polygon fill="black" stroke="black" points="479.5,-1126.1 476,-1116.1 472.5,-1126.1 479.5,-1126.1"/>
</g>
<!-- NAND_6_ -->
<g id="node5" class="node">
<title>NAND_6_</title>
<ellipse fill="none" stroke="black" cx="172" cy="-378" rx="54.69" ry="18"/>
<text text-anchor="middle" x="172" y="-374.3" font-family="Times,serif" font-size="14.00">NAND_6_</text>
</g>
<!-- _2_&#45;&gt;NAND_6_ -->
<g id="edge3" class="edge">
<title>_2_&#45;&gt;NAND_6_</title>
<path fill="none" stroke="black" d="M449.39,-1166.91C349.15,-1158.3 0,-1121.54 0,-1027 0,-1027 0,-1027 0,-665 0,-553.17 24.89,-519.13 95,-432 105.68,-418.72 120.56,-407.42 134.38,-398.71"/>
<polygon fill="black" stroke="black" points="136.5,-401.52 143.27,-393.36 132.89,-395.52 136.5,-401.52"/>
</g>
<!-- keywire8 -->
<g id="node9" class="node">
<title>keywire8</title>
<ellipse fill="none" stroke="black" cx="340" cy="-1026" rx="53.09" ry="18"/>
<text text-anchor="middle" x="340" y="-1022.3" font-family="Times,serif" font-size="14.00">keywire8</text>
</g>
<!-- NAND_5_&#45;&gt;keywire8 -->
<g id="edge7" class="edge">
<title>NAND_5_&#45;&gt;keywire8</title>
<path fill="none" stroke="black" d="M447.82,-1082.5C427.4,-1071.98 399.57,-1057.66 377.31,-1046.2"/>
<polygon fill="black" stroke="black" points="378.64,-1042.95 368.14,-1041.49 375.43,-1049.17 378.64,-1042.95"/>
</g>
<!-- new_inverter_wire5 -->
<g id="node14" class="node">
<title>new_inverter_wire5</title>
<ellipse fill="none" stroke="black" cx="172" cy="-306" rx="102.88" ry="18"/>
<text text-anchor="middle" x="172" y="-302.3" font-family="Times,serif" font-size="14.00">new_inverter_wire5</text>
</g>
<!-- NAND_6_&#45;&gt;new_inverter_wire5 -->
<g id="edge11" class="edge">
<title>NAND_6_&#45;&gt;new_inverter_wire5</title>
<path fill="none" stroke="black" d="M172,-359.7C172,-351.98 172,-342.71 172,-334.11"/>
<polygon fill="black" stroke="black" points="175.5,-334.1 172,-324.1 168.5,-334.1 175.5,-334.1"/>
</g>
<!-- N6 -->
<g id="node6" class="node">
<title>N6</title>
<ellipse fill="none" stroke="black" cx="1169" cy="-450" rx="27" ry="18"/>
<text text-anchor="middle" x="1169" y="-446.3" font-family="Times,serif" font-size="14.00">N6</text>
</g>
<!-- N6&#45;&gt;NAND_4_ -->
<g id="edge4" class="edge">
<title>N6&#45;&gt;NAND_4_</title>
<path fill="none" stroke="black" d="M1165.64,-467.97C1160.69,-494.52 1152,-547.56 1152,-593 1152,-1243 1152,-1243 1152,-1243 1152,-1286.23 1129.56,-1332.17 1113.35,-1359.72"/>
<polygon fill="black" stroke="black" points="1110.32,-1357.96 1108.13,-1368.33 1116.31,-1361.59 1110.32,-1357.96"/>
</g>
<!-- N3 -->
<g id="node7" class="node">
<title>N3</title>
<ellipse fill="none" stroke="black" cx="1097" cy="-450" rx="27" ry="18"/>
<text text-anchor="middle" x="1097" y="-446.3" font-family="Times,serif" font-size="14.00">N3</text>
</g>
<!-- N3&#45;&gt;NAND_4_ -->
<g id="edge5" class="edge">
<title>N3&#45;&gt;NAND_4_</title>
<path fill="none" stroke="black" d="M1097,-468.05C1097,-494.71 1097,-547.89 1097,-593 1097,-1243 1097,-1243 1097,-1243 1097,-1283 1097,-1329.35 1097,-1357.92"/>
<polygon fill="black" stroke="black" points="1093.5,-1357.95 1097,-1367.95 1100.5,-1357.95 1093.5,-1357.95"/>
</g>
<!-- NAND_8_ -->
<g id="node8" class="node">
<title>NAND_8_</title>
<ellipse fill="none" stroke="black" cx="703" cy="-378" rx="54.69" ry="18"/>
<text text-anchor="middle" x="703" y="-374.3" font-family="Times,serif" font-size="14.00">NAND_8_</text>
</g>
<!-- N3&#45;&gt;NAND_8_ -->
<g id="edge6" class="edge">
<title>N3&#45;&gt;NAND_8_</title>
<path fill="none" stroke="black" d="M1076.47,-438.04C1071.52,-435.75 1066.16,-433.56 1061,-432 960.84,-401.67 839.47,-388.37 766.89,-382.78"/>
<polygon fill="black" stroke="black" points="766.77,-379.26 756.54,-382.01 766.25,-386.24 766.77,-379.26"/>
</g>
<!-- new_inverter_wire4 -->
<g id="node20" class="node">
<title>new_inverter_wire4</title>
<ellipse fill="none" stroke="black" cx="655" cy="-306" rx="102.88" ry="18"/>
<text text-anchor="middle" x="655" y="-302.3" font-family="Times,serif" font-size="14.00">new_inverter_wire4</text>
</g>
<!-- NAND_8_&#45;&gt;new_inverter_wire4 -->
<g id="edge16" class="edge">
<title>NAND_8_&#45;&gt;new_inverter_wire4</title>
<path fill="none" stroke="black" d="M691.38,-360.05C685.75,-351.84 678.86,-341.79 672.6,-332.66"/>
<polygon fill="black" stroke="black" points="675.39,-330.54 666.85,-324.28 669.61,-334.5 675.39,-330.54"/>
</g>
<!-- keygate_XNOR_0 -->
<g id="node33" class="node">
<title>keygate_XNOR_0</title>
<ellipse fill="none" stroke="black" cx="204" cy="-954" rx="90.18" ry="18"/>
<text text-anchor="middle" x="204" y="-950.3" font-family="Times,serif" font-size="14.00">keygate_XNOR_0</text>
</g>
<!-- keywire8&#45;&gt;keygate_XNOR_0 -->
<g id="edge43" class="edge">
<title>keywire8&#45;&gt;keygate_XNOR_0</title>
<path fill="none" stroke="black" d="M311.82,-1010.5C292.21,-1000.4 265.79,-986.8 244.01,-975.59"/>
<polygon fill="black" stroke="black" points="245.48,-972.41 234.99,-970.95 242.28,-978.64 245.48,-972.41"/>
</g>
<!-- _3_ -->
<g id="node10" class="node">
<title>_3_</title>
<ellipse fill="none" stroke="black" cx="121" cy="-882" rx="27" ry="18"/>
<text text-anchor="middle" x="121" y="-878.3" font-family="Times,serif" font-size="14.00">_3_</text>
</g>
<!-- NAND_7_ -->
<g id="node11" class="node">
<title>NAND_7_</title>
<ellipse fill="none" stroke="black" cx="121" cy="-810" rx="54.69" ry="18"/>
<text text-anchor="middle" x="121" y="-806.3" font-family="Times,serif" font-size="14.00">NAND_7_</text>
</g>
<!-- _3_&#45;&gt;NAND_7_ -->
<g id="edge8" class="edge">
<title>_3_&#45;&gt;NAND_7_</title>
<path fill="none" stroke="black" d="M121,-863.7C121,-855.98 121,-846.71 121,-838.11"/>
<polygon fill="black" stroke="black" points="124.5,-838.1 121,-828.1 117.5,-838.1 124.5,-838.1"/>
</g>
<!-- NAND_9_ -->
<g id="node12" class="node">
<title>NAND_9_</title>
<ellipse fill="none" stroke="black" cx="589" cy="-90" rx="54.69" ry="18"/>
<text text-anchor="middle" x="589" y="-86.3" font-family="Times,serif" font-size="14.00">NAND_9_</text>
</g>
<!-- _3_&#45;&gt;NAND_9_ -->
<g id="edge9" class="edge">
<title>_3_&#45;&gt;NAND_9_</title>
<path fill="none" stroke="black" d="M101.15,-869.65C86.67,-860.32 67.76,-845.77 57,-828 36.04,-793.41 38,-779.45 38,-739 38,-739 38,-739 38,-665 38,-568.4 0,-547.6 0,-451 0,-451 0,-451 0,-233 0,-181.84 27.94,-168.22 73,-144 149.5,-102.89 403.64,-93.64 524.31,-91.58"/>
<polygon fill="black" stroke="black" points="524.57,-95.08 534.51,-91.42 524.46,-88.08 524.57,-95.08"/>
</g>
<!-- new_inverter_wire7 -->
<g id="node17" class="node">
<title>new_inverter_wire7</title>
<ellipse fill="none" stroke="black" cx="374" cy="-738" rx="102.88" ry="18"/>
<text text-anchor="middle" x="374" y="-734.3" font-family="Times,serif" font-size="14.00">new_inverter_wire7</text>
</g>
<!-- NAND_7_&#45;&gt;new_inverter_wire7 -->
<g id="edge14" class="edge">
<title>NAND_7_&#45;&gt;new_inverter_wire7</title>
<path fill="none" stroke="black" d="M161.37,-797.83C201.87,-786.62 264.82,-769.21 311.73,-756.23"/>
<polygon fill="black" stroke="black" points="312.77,-759.57 321.48,-753.53 310.91,-752.82 312.77,-759.57"/>
</g>
<!-- N22 -->
<g id="node23" class="node">
<title>N22</title>
<ellipse fill="none" stroke="black" cx="720" cy="-18" rx="30.59" ry="18"/>
<text text-anchor="middle" x="720" y="-14.3" font-family="Times,serif" font-size="14.00">N22</text>
</g>
<!-- NAND_9_&#45;&gt;N22 -->
<g id="edge19" class="edge">
<title>NAND_9_&#45;&gt;N22</title>
<path fill="none" stroke="black" d="M616.46,-74.33C637.73,-62.96 667.19,-47.22 689.25,-35.43"/>
<polygon fill="black" stroke="black" points="691.03,-38.45 698.2,-30.65 687.74,-32.27 691.03,-38.45"/>
</g>
<!-- N2 -->
<g id="node13" class="node">
<title>N2</title>
<ellipse fill="none" stroke="black" cx="813" cy="-450" rx="27" ry="18"/>
<text text-anchor="middle" x="813" y="-446.3" font-family="Times,serif" font-size="14.00">N2</text>
</g>
<!-- N2&#45;&gt;NAND_5_ -->
<g id="edge10" class="edge">
<title>N2&#45;&gt;NAND_5_</title>
<path fill="none" stroke="black" d="M806.48,-467.76C796.86,-494.02 780,-546.68 780,-593 780,-955 780,-955 780,-955 780,-1059.89 629.61,-1087.48 540.38,-1094.62"/>
<polygon fill="black" stroke="black" points="540.07,-1091.13 530.35,-1095.35 540.58,-1098.11 540.07,-1091.13"/>
</g>
<!-- NOT_inserted_1_ -->
<g id="node30" class="node">
<title>NOT_inserted_1_</title>
<ellipse fill="none" stroke="black" cx="172" cy="-234" rx="89.08" ry="18"/>
<text text-anchor="middle" x="172" y="-230.3" font-family="Times,serif" font-size="14.00">NOT_inserted_1_</text>
</g>
<!-- new_inverter_wire5&#45;&gt;NOT_inserted_1_ -->
<g id="edge33" class="edge">
<title>new_inverter_wire5&#45;&gt;NOT_inserted_1_</title>
<path fill="none" stroke="black" d="M172,-287.7C172,-279.98 172,-270.71 172,-262.11"/>
<polygon fill="black" stroke="black" points="175.5,-262.1 172,-252.1 168.5,-262.1 175.5,-262.1"/>
</g>
<!-- _0_ -->
<g id="node15" class="node">
<title>_0_</title>
<ellipse fill="none" stroke="black" cx="109" cy="-162" rx="27" ry="18"/>
<text text-anchor="middle" x="109" y="-158.3" font-family="Times,serif" font-size="14.00">_0_</text>
</g>
<!-- _0_&#45;&gt;NAND_7_ -->
<g id="edge12" class="edge">
<title>_0_&#45;&gt;NAND_7_</title>
<path fill="none" stroke="black" d="M95.65,-177.94C75.08,-202.56 38,-254.01 38,-305 38,-379 38,-379 38,-379 38,-475.6 76,-496.4 76,-593 76,-667 76,-667 76,-667 76,-709.1 94.2,-755.09 107.45,-782.98"/>
<polygon fill="black" stroke="black" points="104.35,-784.62 111.89,-792.06 110.64,-781.54 104.35,-784.62"/>
</g>
<!-- N7 -->
<g id="node16" class="node">
<title>N7</title>
<ellipse fill="none" stroke="black" cx="555" cy="-450" rx="27" ry="18"/>
<text text-anchor="middle" x="555" y="-446.3" font-family="Times,serif" font-size="14.00">N7</text>
</g>
<!-- N7&#45;&gt;NAND_6_ -->
<g id="edge13" class="edge">
<title>N7&#45;&gt;NAND_6_</title>
<path fill="none" stroke="black" d="M534.47,-438.06C529.51,-435.77 524.16,-433.57 519,-432 422.48,-402.53 305.62,-389.01 235.14,-383.13"/>
<polygon fill="black" stroke="black" points="235.33,-379.64 225.08,-382.32 234.77,-386.61 235.33,-379.64"/>
</g>
<!-- NOT_inserted_3_ -->
<g id="node32" class="node">
<title>NOT_inserted_3_</title>
<ellipse fill="none" stroke="black" cx="413" cy="-666" rx="89.08" ry="18"/>
<text text-anchor="middle" x="413" y="-662.3" font-family="Times,serif" font-size="14.00">NOT_inserted_3_</text>
</g>
<!-- new_inverter_wire7&#45;&gt;NOT_inserted_3_ -->
<g id="edge37" class="edge">
<title>new_inverter_wire7&#45;&gt;NOT_inserted_3_</title>
<path fill="none" stroke="black" d="M383.44,-720.05C387.92,-712.01 393.39,-702.2 398.39,-693.23"/>
<polygon fill="black" stroke="black" points="401.57,-694.71 403.38,-684.28 395.45,-691.31 401.57,-694.71"/>
</g>
<!-- N23 -->
<g id="node18" class="node">
<title>N23</title>
<ellipse fill="none" stroke="black" cx="577" cy="-594" rx="30.59" ry="18"/>
<text text-anchor="middle" x="577" y="-590.3" font-family="Times,serif" font-size="14.00">N23</text>
</g>
<!-- module#c17 -->
<g id="node19" class="node">
<title>module#c17</title>
<ellipse fill="none" stroke="black" cx="665" cy="-522" rx="69.59" ry="18"/>
<text text-anchor="middle" x="665" y="-518.3" font-family="Times,serif" font-size="14.00">module#c17</text>
</g>
<!-- N23&#45;&gt;module#c17 -->
<g id="edge15" class="edge">
<title>N23&#45;&gt;module#c17</title>
<path fill="none" stroke="black" d="M594.39,-579.17C606.45,-569.58 622.78,-556.59 636.7,-545.51"/>
<polygon fill="black" stroke="black" points="638.91,-548.22 644.56,-539.26 634.56,-542.74 638.91,-548.22"/>
</g>
<!-- module#c17&#45;&gt;N6 -->
<g id="edge21" class="edge">
<title>module#c17&#45;&gt;N6</title>
<path fill="none" stroke="black" d="M734.57,-520.19C827.2,-517.53 995.36,-507.13 1133,-468 1134.94,-467.45 1136.91,-466.8 1138.88,-466.08"/>
<polygon fill="black" stroke="black" points="1140.61,-469.15 1148.51,-462.09 1137.93,-462.69 1140.61,-469.15"/>
</g>
<!-- module#c17&#45;&gt;N3 -->
<g id="edge22" class="edge">
<title>module#c17&#45;&gt;N3</title>
<path fill="none" stroke="black" d="M733.23,-518.24C813.22,-513.55 949.07,-501.05 1061,-468 1062.94,-467.43 1064.9,-466.76 1066.87,-466.04"/>
<polygon fill="black" stroke="black" points="1068.61,-469.1 1076.49,-462.01 1065.91,-462.64 1068.61,-469.1"/>
</g>
<!-- module#c17&#45;&gt;N2 -->
<g id="edge23" class="edge">
<title>module#c17&#45;&gt;N2</title>
<path fill="none" stroke="black" d="M696.75,-505.98C722.06,-494.01 757.27,-477.36 782.3,-465.52"/>
<polygon fill="black" stroke="black" points="783.81,-468.68 791.35,-461.24 780.81,-462.35 783.81,-468.68"/>
</g>
<!-- module#c17&#45;&gt;N7 -->
<g id="edge24" class="edge">
<title>module#c17&#45;&gt;N7</title>
<path fill="none" stroke="black" d="M640.04,-505.12C622.98,-494.26 600.36,-479.87 582.74,-468.65"/>
<polygon fill="black" stroke="black" points="584.35,-465.53 574.04,-463.12 580.6,-471.44 584.35,-465.53"/>
</g>
<!-- N1 -->
<g id="node22" class="node">
<title>N1</title>
<ellipse fill="none" stroke="black" cx="703" cy="-450" rx="27" ry="18"/>
<text text-anchor="middle" x="703" y="-446.3" font-family="Times,serif" font-size="14.00">N1</text>
</g>
<!-- module#c17&#45;&gt;N1 -->
<g id="edge25" class="edge">
<title>module#c17&#45;&gt;N1</title>
<path fill="none" stroke="black" d="M674.2,-504.05C678.75,-495.68 684.32,-485.4 689.36,-476.13"/>
<polygon fill="black" stroke="black" points="692.45,-477.77 694.15,-467.31 686.3,-474.43 692.45,-477.77"/>
</g>
<!-- lockingkeyinput[0] -->
<g id="node24" class="node">
<title>lockingkeyinput[0]</title>
<ellipse fill="none" stroke="black" cx="534" cy="-378" rx="96.68" ry="18"/>
<text text-anchor="middle" x="534" y="-374.3" font-family="Times,serif" font-size="14.00">lockingkeyinput[0]</text>
</g>
<!-- module#c17&#45;&gt;lockingkeyinput[0] -->
<g id="edge26" class="edge">
<title>module#c17&#45;&gt;lockingkeyinput[0]</title>
<path fill="none" stroke="black" d="M660.49,-503.85C654.7,-484.53 643.05,-453.07 624,-432 612,-418.73 595.89,-407.82 580.61,-399.42"/>
<polygon fill="black" stroke="black" points="582.23,-396.32 571.75,-394.76 578.98,-402.51 582.23,-396.32"/>
</g>
<!-- lockingkeyinput[1] -->
<g id="node25" class="node">
<title>lockingkeyinput[1]</title>
<ellipse fill="none" stroke="black" cx="396" cy="-306" rx="96.68" ry="18"/>
<text text-anchor="middle" x="396" y="-302.3" font-family="Times,serif" font-size="14.00">lockingkeyinput[1]</text>
</g>
<!-- module#c17&#45;&gt;lockingkeyinput[1] -->
<g id="edge27" class="edge">
<title>module#c17&#45;&gt;lockingkeyinput[1]</title>
<path fill="none" stroke="black" d="M651.98,-504.18C632.92,-479.73 598.81,-436.76 591,-432 527.65,-393.39 483.7,-445 428,-396 410.23,-380.37 402.33,-354.14 398.81,-334.19"/>
<polygon fill="black" stroke="black" points="402.25,-333.51 397.31,-324.14 395.33,-334.55 402.25,-333.51"/>
</g>
<!-- lockingkeyinput[2] -->
<g id="node26" class="node">
<title>lockingkeyinput[2]</title>
<ellipse fill="none" stroke="black" cx="413" cy="-450" rx="96.68" ry="18"/>
<text text-anchor="middle" x="413" y="-446.3" font-family="Times,serif" font-size="14.00">lockingkeyinput[2]</text>
</g>
<!-- module#c17&#45;&gt;lockingkeyinput[2] -->
<g id="edge28" class="edge">
<title>module#c17&#45;&gt;lockingkeyinput[2]</title>
<path fill="none" stroke="black" d="M619.36,-508.32C578.75,-497.04 519.02,-480.45 474.26,-468.02"/>
<polygon fill="black" stroke="black" points="474.94,-464.57 464.37,-465.27 473.07,-471.32 474.94,-464.57"/>
</g>
<!-- lockingkeyinput[3] -->
<g id="node27" class="node">
<title>lockingkeyinput[3]</title>
<ellipse fill="none" stroke="black" cx="955" cy="-450" rx="96.68" ry="18"/>
<text text-anchor="middle" x="955" y="-446.3" font-family="Times,serif" font-size="14.00">lockingkeyinput[3]</text>
</g>
<!-- module#c17&#45;&gt;lockingkeyinput[3] -->
<g id="edge29" class="edge">
<title>module#c17&#45;&gt;lockingkeyinput[3]</title>
<path fill="none" stroke="black" d="M714.19,-509.13C762.09,-497.56 835.23,-479.91 888.34,-467.09"/>
<polygon fill="black" stroke="black" points="889.45,-470.42 898.35,-464.67 887.8,-463.62 889.45,-470.42"/>
</g>
<!-- lockingkeyinput[4] -->
<g id="node28" class="node">
<title>lockingkeyinput[4]</title>
<ellipse fill="none" stroke="black" cx="201" cy="-450" rx="96.68" ry="18"/>
<text text-anchor="middle" x="201" y="-446.3" font-family="Times,serif" font-size="14.00">lockingkeyinput[4]</text>
</g>
<!-- module#c17&#45;&gt;lockingkeyinput[4] -->
<g id="edge30" class="edge">
<title>module#c17&#45;&gt;lockingkeyinput[4]</title>
<path fill="none" stroke="black" d="M605.74,-512.45C534.71,-502.15 412.1,-484.21 307,-468 298.73,-466.72 290.09,-465.37 281.48,-464.01"/>
<polygon fill="black" stroke="black" points="281.82,-460.52 271.4,-462.41 280.73,-467.44 281.82,-460.52"/>
</g>
<!-- NOT_inserted_0_ -->
<g id="node29" class="node">
<title>NOT_inserted_0_</title>
<ellipse fill="none" stroke="black" cx="589" cy="-234" rx="89.08" ry="18"/>
<text text-anchor="middle" x="589" y="-230.3" font-family="Times,serif" font-size="14.00">NOT_inserted_0_</text>
</g>
<!-- new_inverter_wire4&#45;&gt;NOT_inserted_0_ -->
<g id="edge31" class="edge">
<title>new_inverter_wire4&#45;&gt;NOT_inserted_0_</title>
<path fill="none" stroke="black" d="M639.02,-288.05C630.84,-279.37 620.72,-268.64 611.74,-259.11"/>
<polygon fill="black" stroke="black" points="614.24,-256.66 604.83,-251.79 609.14,-261.47 614.24,-256.66"/>
</g>
<!-- _1_ -->
<g id="node21" class="node">
<title>_1_</title>
<ellipse fill="none" stroke="black" cx="589" cy="-162" rx="27" ry="18"/>
<text text-anchor="middle" x="589" y="-158.3" font-family="Times,serif" font-size="14.00">_1_</text>
</g>
<!-- _1_&#45;&gt;NAND_9_ -->
<g id="edge17" class="edge">
<title>_1_&#45;&gt;NAND_9_</title>
<path fill="none" stroke="black" d="M589,-143.7C589,-135.98 589,-126.71 589,-118.11"/>
<polygon fill="black" stroke="black" points="592.5,-118.1 589,-108.1 585.5,-118.1 592.5,-118.1"/>
</g>
<!-- N1&#45;&gt;NAND_8_ -->
<g id="edge18" class="edge">
<title>N1&#45;&gt;NAND_8_</title>
<path fill="none" stroke="black" d="M703,-431.7C703,-423.98 703,-414.71 703,-406.11"/>
<polygon fill="black" stroke="black" points="706.5,-406.1 703,-396.1 699.5,-406.1 706.5,-406.1"/>
</g>
<!-- N22&#45;&gt;module#c17 -->
<g id="edge20" class="edge">
<title>N22&#45;&gt;module#c17</title>
<path fill="none" stroke="black" d="M732.73,-34.51C751.9,-59.51 786,-110.98 786,-161 786,-307 786,-307 786,-307 786,-381.54 784.71,-409.12 739,-468 729.24,-480.58 715.7,-491.46 702.87,-500.04"/>
<polygon fill="black" stroke="black" points="700.7,-497.27 694.15,-505.6 704.46,-503.17 700.7,-497.27"/>
</g>
<!-- lockingkeyinput[0]&#45;&gt;NOT_inserted_0_ -->
<g id="edge39" class="edge">
<title>lockingkeyinput[0]&#45;&gt;NOT_inserted_0_</title>
<path fill="none" stroke="black" d="M532.74,-359.84C532.05,-341.33 532.9,-311.38 543,-288 547.59,-277.38 555.1,-267.35 562.73,-258.93"/>
<polygon fill="black" stroke="black" points="565.3,-261.32 569.7,-251.68 560.25,-256.47 565.3,-261.32"/>
</g>
<!-- lockingkeyinput[1]&#45;&gt;NOT_inserted_1_ -->
<g id="edge40" class="edge">
<title>lockingkeyinput[1]&#45;&gt;NOT_inserted_1_</title>
<path fill="none" stroke="black" d="M348.77,-290.24C313.54,-279.23 265.28,-264.15 228.09,-252.53"/>
<polygon fill="black" stroke="black" points="228.99,-249.14 218.4,-249.5 226.9,-255.82 228.99,-249.14"/>
</g>
<!-- lockingkeyinput[2]&#45;&gt;NOT_inserted_3_ -->
<g id="edge41" class="edge">
<title>lockingkeyinput[2]&#45;&gt;NOT_inserted_3_</title>
<path fill="none" stroke="black" d="M413,-468.23C413,-505.32 413,-592.98 413,-637.71"/>
<polygon fill="black" stroke="black" points="409.5,-637.85 413,-647.85 416.5,-637.85 409.5,-637.85"/>
</g>
<!-- lockingkeyinput[3]&#45;&gt;NOT_inserted_2_ -->
<g id="edge42" class="edge">
<title>lockingkeyinput[3]&#45;&gt;NOT_inserted_2_</title>
<path fill="none" stroke="black" d="M955,-468.05C955,-494.71 955,-547.89 955,-593 955,-1099 955,-1099 955,-1099 955,-1139 955,-1185.35 955,-1213.92"/>
<polygon fill="black" stroke="black" points="951.5,-1213.95 955,-1223.95 958.5,-1213.95 951.5,-1213.95"/>
</g>
<!-- lockingkeyinput[4]&#45;&gt;keygate_XNOR_0 -->
<g id="edge45" class="edge">
<title>lockingkeyinput[4]&#45;&gt;keygate_XNOR_0</title>
<path fill="none" stroke="black" d="M201.59,-468.05C202.47,-494.7 204,-547.88 204,-593 204,-811 204,-811 204,-811 204,-851 204,-897.35 204,-925.92"/>
<polygon fill="black" stroke="black" points="200.5,-925.95 204,-935.95 207.5,-925.95 200.5,-925.95"/>
</g>
<!-- NOT_inserted_0_&#45;&gt;_1_ -->
<g id="edge32" class="edge">
<title>NOT_inserted_0_&#45;&gt;_1_</title>
<path fill="none" stroke="black" d="M589,-215.7C589,-207.98 589,-198.71 589,-190.11"/>
<polygon fill="black" stroke="black" points="592.5,-190.1 589,-180.1 585.5,-190.1 592.5,-190.1"/>
</g>
<!-- NOT_inserted_1_&#45;&gt;_0_ -->
<g id="edge34" class="edge">
<title>NOT_inserted_1_&#45;&gt;_0_</title>
<path fill="none" stroke="black" d="M156.75,-216.05C148.47,-206.86 138.14,-195.38 129.2,-185.45"/>
<polygon fill="black" stroke="black" points="131.69,-182.98 122.4,-177.89 126.49,-187.66 131.69,-182.98"/>
</g>
<!-- NOT_inserted_2_&#45;&gt;_2_ -->
<g id="edge36" class="edge">
<title>NOT_inserted_2_&#45;&gt;_2_</title>
<path fill="none" stroke="black" d="M885.09,-1230.78C781.59,-1215.66 591.3,-1187.85 512.08,-1176.27"/>
<polygon fill="black" stroke="black" points="512.5,-1172.8 502.1,-1174.81 511.49,-1179.72 512.5,-1172.8"/>
</g>
<!-- NOT_inserted_3_&#45;&gt;N23 -->
<g id="edge38" class="edge">
<title>NOT_inserted_3_&#45;&gt;N23</title>
<path fill="none" stroke="black" d="M449.4,-649.46C477.47,-637.48 515.99,-621.04 543.35,-609.36"/>
<polygon fill="black" stroke="black" points="545.06,-612.44 552.88,-605.29 542.31,-606 545.06,-612.44"/>
</g>
<!-- keygate_XNOR_0&#45;&gt;_3_ -->
<g id="edge44" class="edge">
<title>keygate_XNOR_0&#45;&gt;_3_</title>
<path fill="none" stroke="black" d="M184.33,-936.41C172.53,-926.46 157.45,-913.74 144.96,-903.2"/>
<polygon fill="black" stroke="black" points="147.09,-900.42 137.18,-896.65 142.57,-905.77 147.09,-900.42"/>
</g>
</g>
</svg>
