<?xml version="1.0" encoding="UTF-8" standalone="no"?>
<!DOCTYPE svg PUBLIC "-//W3C//DTD SVG 1.1//EN"
 "http://www.w3.org/Graphics/SVG/1.1/DTD/svg11.dtd">
<!-- Generated by graphviz version 2.43.0 (0)
 -->
<!-- Pages: 1 -->
<svg width="1433pt" height="1556pt"
 viewBox="0.00 0.00 1432.60 1556.00" xmlns="http://www.w3.org/2000/svg" xmlns:xlink="http://www.w3.org/1999/xlink">
<g id="graph0" class="graph" transform="scale(1 1) rotate(0) translate(4 1552)">
<polygon fill="white" stroke="transparent" points="-4,4 -4,-1552 1428.6,-1552 1428.6,4 -4,4"/>
<!-- NAND_4_ -->
<g id="node1" class="node">
<title>NAND_4_</title>
<ellipse fill="none" stroke="black" cx="1370" cy="-1530" rx="54.69" ry="18"/>
<text text-anchor="middle" x="1370" y="-1526.3" font-family="Times,serif" font-size="14.00">NAND_4_</text>
</g>
<!-- new_inverter_wire7 -->
<g id="node2" class="node">
<title>new_inverter_wire7</title>
<ellipse fill="none" stroke="black" cx="1217" cy="-1458" rx="102.88" ry="18"/>
<text text-anchor="middle" x="1217" y="-1454.3" font-family="Times,serif" font-size="14.00">new_inverter_wire7</text>
</g>
<!-- NAND_4_&#45;&gt;new_inverter_wire7 -->
<g id="edge1" class="edge">
<title>NAND_4_&#45;&gt;new_inverter_wire7</title>
<path fill="none" stroke="black" d="M1339.41,-1515C1317.06,-1504.78 1286.42,-1490.76 1261.38,-1479.31"/>
<polygon fill="black" stroke="black" points="1262.64,-1476.03 1252.09,-1475.05 1259.73,-1482.4 1262.64,-1476.03"/>
</g>
<!-- NOT_inserted_3_ -->
<g id="node33" class="node">
<title>NOT_inserted_3_</title>
<ellipse fill="none" stroke="black" cx="1129" cy="-1386" rx="89.08" ry="18"/>
<text text-anchor="middle" x="1129" y="-1382.3" font-family="Times,serif" font-size="14.00">NOT_inserted_3_</text>
</g>
<!-- new_inverter_wire7&#45;&gt;NOT_inserted_3_ -->
<g id="edge38" class="edge">
<title>new_inverter_wire7&#45;&gt;NOT_inserted_3_</title>
<path fill="none" stroke="black" d="M1195.7,-1440.05C1184.37,-1431.05 1170.29,-1419.84 1157.98,-1410.05"/>
<polygon fill="black" stroke="black" points="1159.81,-1407.03 1149.8,-1403.55 1155.45,-1412.51 1159.81,-1407.03"/>
</g>
<!-- _2_ -->
<g id="node3" class="node">
<title>_2_</title>
<ellipse fill="none" stroke="black" cx="916" cy="-1314" rx="27" ry="18"/>
<text text-anchor="middle" x="916" y="-1310.3" font-family="Times,serif" font-size="14.00">_2_</text>
</g>
<!-- NAND_5_ -->
<g id="node4" class="node">
<title>NAND_5_</title>
<ellipse fill="none" stroke="black" cx="916" cy="-1242" rx="54.69" ry="18"/>
<text text-anchor="middle" x="916" y="-1238.3" font-family="Times,serif" font-size="14.00">NAND_5_</text>
</g>
<!-- _2_&#45;&gt;NAND_5_ -->
<g id="edge2" class="edge">
<title>_2_&#45;&gt;NAND_5_</title>
<path fill="none" stroke="black" d="M916,-1295.7C916,-1287.98 916,-1278.71 916,-1270.11"/>
<polygon fill="black" stroke="black" points="919.5,-1270.1 916,-1260.1 912.5,-1270.1 919.5,-1270.1"/>
</g>
<!-- NAND_6_ -->
<g id="node5" class="node">
<title>NAND_6_</title>
<ellipse fill="none" stroke="black" cx="194" cy="-378" rx="54.69" ry="18"/>
<text text-anchor="middle" x="194" y="-374.3" font-family="Times,serif" font-size="14.00">NAND_6_</text>
</g>
<!-- _2_&#45;&gt;NAND_6_ -->
<g id="edge3" class="edge">
<title>_2_&#45;&gt;NAND_6_</title>
<path fill="none" stroke="black" d="M889.08,-1311.74C737.78,-1304.33 0,-1263.43 0,-1171 0,-1171 0,-1171 0,-521 0,-450.37 84.76,-411.07 142.23,-392.54"/>
<polygon fill="black" stroke="black" points="143.4,-395.85 151.9,-389.53 141.32,-389.16 143.4,-395.85"/>
</g>
<!-- new_inverter_wire5 -->
<g id="node9" class="node">
<title>new_inverter_wire5</title>
<ellipse fill="none" stroke="black" cx="838" cy="-1170" rx="102.88" ry="18"/>
<text text-anchor="middle" x="838" y="-1166.3" font-family="Times,serif" font-size="14.00">new_inverter_wire5</text>
</g>
<!-- NAND_5_&#45;&gt;new_inverter_wire5 -->
<g id="edge7" class="edge">
<title>NAND_5_&#45;&gt;new_inverter_wire5</title>
<path fill="none" stroke="black" d="M897.91,-1224.76C887.99,-1215.86 875.5,-1204.65 864.5,-1194.78"/>
<polygon fill="black" stroke="black" points="866.59,-1191.95 856.81,-1187.88 861.91,-1197.16 866.59,-1191.95"/>
</g>
<!-- new_inverter_wire4 -->
<g id="node14" class="node">
<title>new_inverter_wire4</title>
<ellipse fill="none" stroke="black" cx="194" cy="-306" rx="102.88" ry="18"/>
<text text-anchor="middle" x="194" y="-302.3" font-family="Times,serif" font-size="14.00">new_inverter_wire4</text>
</g>
<!-- NAND_6_&#45;&gt;new_inverter_wire4 -->
<g id="edge11" class="edge">
<title>NAND_6_&#45;&gt;new_inverter_wire4</title>
<path fill="none" stroke="black" d="M194,-359.7C194,-351.98 194,-342.71 194,-334.11"/>
<polygon fill="black" stroke="black" points="197.5,-334.1 194,-324.1 190.5,-334.1 197.5,-334.1"/>
</g>
<!-- N6 -->
<g id="node6" class="node">
<title>N6</title>
<ellipse fill="none" stroke="black" cx="1343" cy="-450" rx="27" ry="18"/>
<text text-anchor="middle" x="1343" y="-446.3" font-family="Times,serif" font-size="14.00">N6</text>
</g>
<!-- N6&#45;&gt;NAND_4_ -->
<g id="edge4" class="edge">
<title>N6&#45;&gt;NAND_4_</title>
<path fill="none" stroke="black" d="M1356.94,-465.68C1365.83,-475.76 1376.96,-489.83 1384,-504 1402.22,-540.69 1408,-552.03 1408,-593 1408,-1387 1408,-1387 1408,-1387 1408,-1428.37 1392.77,-1474.28 1381.59,-1502.39"/>
<polygon fill="black" stroke="black" points="1378.24,-1501.33 1377.69,-1511.91 1384.72,-1503.98 1378.24,-1501.33"/>
</g>
<!-- N3 -->
<g id="node7" class="node">
<title>N3</title>
<ellipse fill="none" stroke="black" cx="1271" cy="-450" rx="27" ry="18"/>
<text text-anchor="middle" x="1271" y="-446.3" font-family="Times,serif" font-size="14.00">N3</text>
</g>
<!-- N3&#45;&gt;NAND_4_ -->
<g id="edge5" class="edge">
<title>N3&#45;&gt;NAND_4_</title>
<path fill="none" stroke="black" d="M1288.7,-464.14C1317.18,-486.94 1370,-536.8 1370,-593 1370,-1387 1370,-1387 1370,-1387 1370,-1427 1370,-1473.35 1370,-1501.92"/>
<polygon fill="black" stroke="black" points="1366.5,-1501.95 1370,-1511.95 1373.5,-1501.95 1366.5,-1501.95"/>
</g>
<!-- NAND_8_ -->
<g id="node8" class="node">
<title>NAND_8_</title>
<ellipse fill="none" stroke="black" cx="1087" cy="-378" rx="54.69" ry="18"/>
<text text-anchor="middle" x="1087" y="-374.3" font-family="Times,serif" font-size="14.00">NAND_8_</text>
</g>
<!-- N3&#45;&gt;NAND_8_ -->
<g id="edge6" class="edge">
<title>N3&#45;&gt;NAND_8_</title>
<path fill="none" stroke="black" d="M1249.83,-438.59C1245,-436.32 1239.85,-434.01 1235,-432 1201.58,-418.16 1163.1,-404.45 1133.76,-394.44"/>
<polygon fill="black" stroke="black" points="1134.77,-391.09 1124.18,-391.19 1132.52,-397.72 1134.77,-391.09"/>
</g>
<!-- _1_ -->
<g id="node20" class="node">
<title>_1_</title>
<ellipse fill="none" stroke="black" cx="1087" cy="-306" rx="27" ry="18"/>
<text text-anchor="middle" x="1087" y="-302.3" font-family="Times,serif" font-size="14.00">_1_</text>
</g>
<!-- NAND_8_&#45;&gt;_1_ -->
<g id="edge16" class="edge">
<title>NAND_8_&#45;&gt;_1_</title>
<path fill="none" stroke="black" d="M1087,-359.7C1087,-351.98 1087,-342.71 1087,-334.11"/>
<polygon fill="black" stroke="black" points="1090.5,-334.1 1087,-324.1 1083.5,-334.1 1090.5,-334.1"/>
</g>
<!-- NOT_inserted_1_ -->
<g id="node31" class="node">
<title>NOT_inserted_1_</title>
<ellipse fill="none" stroke="black" cx="791" cy="-1098" rx="89.08" ry="18"/>
<text text-anchor="middle" x="791" y="-1094.3" font-family="Times,serif" font-size="14.00">NOT_inserted_1_</text>
</g>
<!-- new_inverter_wire5&#45;&gt;NOT_inserted_1_ -->
<g id="edge34" class="edge">
<title>new_inverter_wire5&#45;&gt;NOT_inserted_1_</title>
<path fill="none" stroke="black" d="M826.62,-1152.05C821.11,-1143.84 814.36,-1133.79 808.23,-1124.66"/>
<polygon fill="black" stroke="black" points="811.08,-1122.63 802.6,-1116.28 805.27,-1126.53 811.08,-1122.63"/>
</g>
<!-- _3_ -->
<g id="node10" class="node">
<title>_3_</title>
<ellipse fill="none" stroke="black" cx="791" cy="-1026" rx="27" ry="18"/>
<text text-anchor="middle" x="791" y="-1022.3" font-family="Times,serif" font-size="14.00">_3_</text>
</g>
<!-- NAND_7_ -->
<g id="node11" class="node">
<title>NAND_7_</title>
<ellipse fill="none" stroke="black" cx="767" cy="-954" rx="54.69" ry="18"/>
<text text-anchor="middle" x="767" y="-950.3" font-family="Times,serif" font-size="14.00">NAND_7_</text>
</g>
<!-- _3_&#45;&gt;NAND_7_ -->
<g id="edge8" class="edge">
<title>_3_&#45;&gt;NAND_7_</title>
<path fill="none" stroke="black" d="M785.19,-1008.05C782.49,-1000.18 779.21,-990.62 776.19,-981.79"/>
<polygon fill="black" stroke="black" points="779.48,-980.6 772.92,-972.28 772.86,-982.87 779.48,-980.6"/>
</g>
<!-- NAND_9_ -->
<g id="node12" class="node">
<title>NAND_9_</title>
<ellipse fill="none" stroke="black" cx="1087" cy="-234" rx="54.69" ry="18"/>
<text text-anchor="middle" x="1087" y="-230.3" font-family="Times,serif" font-size="14.00">NAND_9_</text>
</g>
<!-- _3_&#45;&gt;NAND_9_ -->
<g id="edge9" class="edge">
<title>_3_&#45;&gt;NAND_9_</title>
<path fill="none" stroke="black" d="M817.83,-1023.82C926.99,-1018.29 1332,-990.54 1332,-883 1332,-883 1332,-883 1332,-593 1332,-518.46 1413.99,-497.82 1379,-432 1327.08,-334.34 1202.79,-276.35 1134.29,-250.71"/>
<polygon fill="black" stroke="black" points="1135.2,-247.32 1124.6,-247.17 1132.79,-253.89 1135.2,-247.32"/>
</g>
<!-- keywire9 -->
<g id="node17" class="node">
<title>keywire9</title>
<ellipse fill="none" stroke="black" cx="767" cy="-882" rx="53.09" ry="18"/>
<text text-anchor="middle" x="767" y="-878.3" font-family="Times,serif" font-size="14.00">keywire9</text>
</g>
<!-- NAND_7_&#45;&gt;keywire9 -->
<g id="edge14" class="edge">
<title>NAND_7_&#45;&gt;keywire9</title>
<path fill="none" stroke="black" d="M767,-935.7C767,-927.98 767,-918.71 767,-910.11"/>
<polygon fill="black" stroke="black" points="770.5,-910.1 767,-900.1 763.5,-910.1 770.5,-910.1"/>
</g>
<!-- new_inverter_wire6 -->
<g id="node22" class="node">
<title>new_inverter_wire6</title>
<ellipse fill="none" stroke="black" cx="976" cy="-162" rx="102.88" ry="18"/>
<text text-anchor="middle" x="976" y="-158.3" font-family="Times,serif" font-size="14.00">new_inverter_wire6</text>
</g>
<!-- NAND_9_&#45;&gt;new_inverter_wire6 -->
<g id="edge19" class="edge">
<title>NAND_9_&#45;&gt;new_inverter_wire6</title>
<path fill="none" stroke="black" d="M1062.91,-217.81C1047.71,-208.22 1027.82,-195.68 1010.9,-185.01"/>
<polygon fill="black" stroke="black" points="1012.69,-182 1002.37,-179.63 1008.96,-187.92 1012.69,-182"/>
</g>
<!-- N2 -->
<g id="node13" class="node">
<title>N2</title>
<ellipse fill="none" stroke="black" cx="987" cy="-450" rx="27" ry="18"/>
<text text-anchor="middle" x="987" y="-446.3" font-family="Times,serif" font-size="14.00">N2</text>
</g>
<!-- N2&#45;&gt;NAND_5_ -->
<g id="edge10" class="edge">
<title>N2&#45;&gt;NAND_5_</title>
<path fill="none" stroke="black" d="M985.81,-468.04C984.07,-494.69 981,-547.85 981,-593 981,-1099 981,-1099 981,-1099 981,-1143.28 954.54,-1188.86 935.39,-1216.05"/>
<polygon fill="black" stroke="black" points="932.51,-1214.06 929.47,-1224.21 938.17,-1218.18 932.51,-1214.06"/>
</g>
<!-- NOT_inserted_0_ -->
<g id="node30" class="node">
<title>NOT_inserted_0_</title>
<ellipse fill="none" stroke="black" cx="194" cy="-234" rx="89.08" ry="18"/>
<text text-anchor="middle" x="194" y="-230.3" font-family="Times,serif" font-size="14.00">NOT_inserted_0_</text>
</g>
<!-- new_inverter_wire4&#45;&gt;NOT_inserted_0_ -->
<g id="edge32" class="edge">
<title>new_inverter_wire4&#45;&gt;NOT_inserted_0_</title>
<path fill="none" stroke="black" d="M194,-287.7C194,-279.98 194,-270.71 194,-262.11"/>
<polygon fill="black" stroke="black" points="197.5,-262.1 194,-252.1 190.5,-262.1 197.5,-262.1"/>
</g>
<!-- _0_ -->
<g id="node15" class="node">
<title>_0_</title>
<ellipse fill="none" stroke="black" cx="80" cy="-162" rx="27" ry="18"/>
<text text-anchor="middle" x="80" y="-158.3" font-family="Times,serif" font-size="14.00">_0_</text>
</g>
<!-- _0_&#45;&gt;NAND_7_ -->
<g id="edge12" class="edge">
<title>_0_&#45;&gt;NAND_7_</title>
<path fill="none" stroke="black" d="M71.7,-179.58C59.46,-205.61 38,-257.95 38,-305 38,-379 38,-379 38,-379 38,-475.6 76,-496.4 76,-593 76,-811 76,-811 76,-811 76,-938.07 530.03,-952.44 702.02,-953.32"/>
<polygon fill="black" stroke="black" points="702.19,-956.82 712.2,-953.36 702.21,-949.82 702.19,-956.82"/>
</g>
<!-- N7 -->
<g id="node16" class="node">
<title>N7</title>
<ellipse fill="none" stroke="black" cx="517" cy="-450" rx="27" ry="18"/>
<text text-anchor="middle" x="517" y="-446.3" font-family="Times,serif" font-size="14.00">N7</text>
</g>
<!-- N7&#45;&gt;NAND_6_ -->
<g id="edge13" class="edge">
<title>N7&#45;&gt;NAND_6_</title>
<path fill="none" stroke="black" d="M496.43,-438.17C491.48,-435.88 486.13,-433.65 481,-432 405.25,-407.58 314.42,-393.17 255.52,-385.69"/>
<polygon fill="black" stroke="black" points="255.62,-382.17 245.27,-384.41 254.76,-389.12 255.62,-382.17"/>
</g>
<!-- keygate_XNOR_1 -->
<g id="node36" class="node">
<title>keygate_XNOR_1</title>
<ellipse fill="none" stroke="black" cx="767" cy="-810" rx="90.18" ry="18"/>
<text text-anchor="middle" x="767" y="-806.3" font-family="Times,serif" font-size="14.00">keygate_XNOR_1</text>
</g>
<!-- keywire9&#45;&gt;keygate_XNOR_1 -->
<g id="edge47" class="edge">
<title>keywire9&#45;&gt;keygate_XNOR_1</title>
<path fill="none" stroke="black" d="M767,-863.7C767,-855.98 767,-846.71 767,-838.11"/>
<polygon fill="black" stroke="black" points="770.5,-838.1 767,-828.1 763.5,-838.1 770.5,-838.1"/>
</g>
<!-- N23 -->
<g id="node18" class="node">
<title>N23</title>
<ellipse fill="none" stroke="black" cx="654" cy="-594" rx="30.59" ry="18"/>
<text text-anchor="middle" x="654" y="-590.3" font-family="Times,serif" font-size="14.00">N23</text>
</g>
<!-- module#c17 -->
<g id="node19" class="node">
<title>module#c17</title>
<ellipse fill="none" stroke="black" cx="654" cy="-522" rx="69.59" ry="18"/>
<text text-anchor="middle" x="654" y="-518.3" font-family="Times,serif" font-size="14.00">module#c17</text>
</g>
<!-- N23&#45;&gt;module#c17 -->
<g id="edge15" class="edge">
<title>N23&#45;&gt;module#c17</title>
<path fill="none" stroke="black" d="M654,-575.7C654,-567.98 654,-558.71 654,-550.11"/>
<polygon fill="black" stroke="black" points="657.5,-550.1 654,-540.1 650.5,-550.1 657.5,-550.1"/>
</g>
<!-- module#c17&#45;&gt;N6 -->
<g id="edge21" class="edge">
<title>module#c17&#45;&gt;N6</title>
<path fill="none" stroke="black" d="M722.34,-518.56C866.66,-512.9 1198.14,-497.08 1307,-468 1308.95,-467.48 1310.93,-466.85 1312.9,-466.16"/>
<polygon fill="black" stroke="black" points="1314.62,-469.24 1322.54,-462.21 1311.96,-462.76 1314.62,-469.24"/>
</g>
<!-- module#c17&#45;&gt;N3 -->
<g id="edge22" class="edge">
<title>module#c17&#45;&gt;N3</title>
<path fill="none" stroke="black" d="M721.77,-517.79C853.59,-511.06 1139.9,-493.92 1235,-468 1236.95,-467.47 1238.93,-466.84 1240.89,-466.13"/>
<polygon fill="black" stroke="black" points="1242.62,-469.21 1250.53,-462.17 1239.95,-462.74 1242.62,-469.21"/>
</g>
<!-- module#c17&#45;&gt;N2 -->
<g id="edge23" class="edge">
<title>module#c17&#45;&gt;N2</title>
<path fill="none" stroke="black" d="M717.46,-514.6C778.4,-507.31 872.54,-493.04 951,-468 952.93,-467.39 954.88,-466.69 956.84,-465.94"/>
<polygon fill="black" stroke="black" points="958.61,-468.99 966.44,-461.85 955.87,-462.55 958.61,-468.99"/>
</g>
<!-- module#c17&#45;&gt;N7 -->
<g id="edge24" class="edge">
<title>module#c17&#45;&gt;N7</title>
<path fill="none" stroke="black" d="M623.93,-505.64C601.09,-493.97 569.81,-477.98 546.99,-466.32"/>
<polygon fill="black" stroke="black" points="548.57,-463.2 538.08,-461.77 545.39,-469.44 548.57,-463.2"/>
</g>
<!-- N1 -->
<g id="node21" class="node">
<title>N1</title>
<ellipse fill="none" stroke="black" cx="703" cy="-450" rx="27" ry="18"/>
<text text-anchor="middle" x="703" y="-446.3" font-family="Times,serif" font-size="14.00">N1</text>
</g>
<!-- module#c17&#45;&gt;N1 -->
<g id="edge25" class="edge">
<title>module#c17&#45;&gt;N1</title>
<path fill="none" stroke="black" d="M665.86,-504.05C671.93,-495.38 679.43,-484.67 686.1,-475.15"/>
<polygon fill="black" stroke="black" points="689.05,-477.03 691.92,-466.83 683.32,-473.01 689.05,-477.03"/>
</g>
<!-- lockingkeyinput[0] -->
<g id="node24" class="node">
<title>lockingkeyinput[0]</title>
<ellipse fill="none" stroke="black" cx="1129" cy="-450" rx="96.68" ry="18"/>
<text text-anchor="middle" x="1129" y="-446.3" font-family="Times,serif" font-size="14.00">lockingkeyinput[0]</text>
</g>
<!-- module#c17&#45;&gt;lockingkeyinput[0] -->
<g id="edge26" class="edge">
<title>module#c17&#45;&gt;lockingkeyinput[0]</title>
<path fill="none" stroke="black" d="M713.8,-512.72C786.82,-502.53 914.07,-484.56 1023,-468 1031.28,-466.74 1039.91,-465.4 1048.53,-464.05"/>
<polygon fill="black" stroke="black" points="1049.28,-467.47 1058.61,-462.45 1048.18,-460.56 1049.28,-467.47"/>
</g>
<!-- lockingkeyinput[1] -->
<g id="node25" class="node">
<title>lockingkeyinput[1]</title>
<ellipse fill="none" stroke="black" cx="461" cy="-306" rx="96.68" ry="18"/>
<text text-anchor="middle" x="461" y="-302.3" font-family="Times,serif" font-size="14.00">lockingkeyinput[1]</text>
</g>
<!-- module#c17&#45;&gt;lockingkeyinput[1] -->
<g id="edge27" class="edge">
<title>module#c17&#45;&gt;lockingkeyinput[1]</title>
<path fill="none" stroke="black" d="M634.86,-504.66C623.26,-494.48 608.36,-480.9 596,-468 552.21,-422.31 505.77,-364.6 480.38,-332.15"/>
<polygon fill="black" stroke="black" points="483.01,-329.82 474.1,-324.08 477.48,-334.12 483.01,-329.82"/>
</g>
<!-- lockingkeyinput[2] -->
<g id="node26" class="node">
<title>lockingkeyinput[2]</title>
<ellipse fill="none" stroke="black" cx="735" cy="-378" rx="96.68" ry="18"/>
<text text-anchor="middle" x="735" y="-374.3" font-family="Times,serif" font-size="14.00">lockingkeyinput[2]</text>
</g>
<!-- module#c17&#45;&gt;lockingkeyinput[2] -->
<g id="edge28" class="edge">
<title>module#c17&#45;&gt;lockingkeyinput[2]</title>
<path fill="none" stroke="black" d="M652.85,-503.7C652.39,-484.81 654.04,-454.27 667,-432 674.08,-419.83 685.13,-409.46 696.28,-401.19"/>
<polygon fill="black" stroke="black" points="698.56,-403.87 704.77,-395.29 694.56,-398.13 698.56,-403.87"/>
</g>
<!-- lockingkeyinput[3] -->
<g id="node27" class="node">
<title>lockingkeyinput[3]</title>
<ellipse fill="none" stroke="black" cx="163" cy="-450" rx="96.68" ry="18"/>
<text text-anchor="middle" x="163" y="-446.3" font-family="Times,serif" font-size="14.00">lockingkeyinput[3]</text>
</g>
<!-- module#c17&#45;&gt;lockingkeyinput[3] -->
<g id="edge29" class="edge">
<title>module#c17&#45;&gt;lockingkeyinput[3]</title>
<path fill="none" stroke="black" d="M593.26,-513.06C517.34,-503.04 383.45,-485.05 269,-468 260.65,-466.76 251.94,-465.42 243.26,-464.06"/>
<polygon fill="black" stroke="black" points="243.52,-460.56 233.1,-462.47 242.43,-467.48 243.52,-460.56"/>
</g>
<!-- lockingkeyinput[4] -->
<g id="node28" class="node">
<title>lockingkeyinput[4]</title>
<ellipse fill="none" stroke="black" cx="375" cy="-450" rx="96.68" ry="18"/>
<text text-anchor="middle" x="375" y="-446.3" font-family="Times,serif" font-size="14.00">lockingkeyinput[4]</text>
</g>
<!-- module#c17&#45;&gt;lockingkeyinput[4] -->
<g id="edge30" class="edge">
<title>module#c17&#45;&gt;lockingkeyinput[4]</title>
<path fill="none" stroke="black" d="M605.72,-508.89C559.95,-497.4 490.86,-480.07 440.22,-467.36"/>
<polygon fill="black" stroke="black" points="440.9,-463.92 430.34,-464.89 439.19,-470.71 440.9,-463.92"/>
</g>
<!-- lockingkeyinput[5] -->
<g id="node29" class="node">
<title>lockingkeyinput[5]</title>
<ellipse fill="none" stroke="black" cx="845" cy="-450" rx="96.68" ry="18"/>
<text text-anchor="middle" x="845" y="-446.3" font-family="Times,serif" font-size="14.00">lockingkeyinput[5]</text>
</g>
<!-- module#c17&#45;&gt;lockingkeyinput[5] -->
<g id="edge31" class="edge">
<title>module#c17&#45;&gt;lockingkeyinput[5]</title>
<path fill="none" stroke="black" d="M692.65,-506.83C721.69,-496.19 761.77,-481.5 793.52,-469.87"/>
<polygon fill="black" stroke="black" points="794.91,-473.09 803.09,-466.36 792.5,-466.51 794.91,-473.09"/>
</g>
<!-- _1_&#45;&gt;NAND_9_ -->
<g id="edge17" class="edge">
<title>_1_&#45;&gt;NAND_9_</title>
<path fill="none" stroke="black" d="M1087,-287.7C1087,-279.98 1087,-270.71 1087,-262.11"/>
<polygon fill="black" stroke="black" points="1090.5,-262.1 1087,-252.1 1083.5,-262.1 1090.5,-262.1"/>
</g>
<!-- N1&#45;&gt;NAND_8_ -->
<g id="edge18" class="edge">
<title>N1&#45;&gt;NAND_8_</title>
<path fill="none" stroke="black" d="M723.53,-438.05C728.49,-435.77 733.84,-433.57 739,-432 835.8,-402.46 952.99,-388.96 1023.68,-383.11"/>
<polygon fill="black" stroke="black" points="1024.08,-386.59 1033.77,-382.3 1023.52,-379.61 1024.08,-386.59"/>
</g>
<!-- NOT_inserted_2_ -->
<g id="node32" class="node">
<title>NOT_inserted_2_</title>
<ellipse fill="none" stroke="black" cx="735" cy="-90" rx="89.08" ry="18"/>
<text text-anchor="middle" x="735" y="-86.3" font-family="Times,serif" font-size="14.00">NOT_inserted_2_</text>
</g>
<!-- new_inverter_wire6&#45;&gt;NOT_inserted_2_ -->
<g id="edge36" class="edge">
<title>new_inverter_wire6&#45;&gt;NOT_inserted_2_</title>
<path fill="none" stroke="black" d="M925.48,-146.33C886.97,-135.14 833.87,-119.72 793.52,-108"/>
<polygon fill="black" stroke="black" points="794.39,-104.61 783.81,-105.18 792.44,-111.33 794.39,-104.61"/>
</g>
<!-- N22 -->
<g id="node23" class="node">
<title>N22</title>
<ellipse fill="none" stroke="black" cx="672" cy="-18" rx="30.59" ry="18"/>
<text text-anchor="middle" x="672" y="-14.3" font-family="Times,serif" font-size="14.00">N22</text>
</g>
<!-- N22&#45;&gt;module#c17 -->
<g id="edge20" class="edge">
<title>N22&#45;&gt;module#c17</title>
<path fill="none" stroke="black" d="M660.05,-34.63C642.03,-59.8 610,-111.5 610,-161 610,-379 610,-379 610,-379 610,-421.02 627.8,-467.02 640.75,-494.95"/>
<polygon fill="black" stroke="black" points="637.63,-496.53 645.1,-504.04 643.94,-493.51 637.63,-496.53"/>
</g>
<!-- lockingkeyinput[0]&#45;&gt;NOT_inserted_3_ -->
<g id="edge40" class="edge">
<title>lockingkeyinput[0]&#45;&gt;NOT_inserted_3_</title>
<path fill="none" stroke="black" d="M1129,-468.05C1129,-494.71 1129,-547.89 1129,-593 1129,-1243 1129,-1243 1129,-1243 1129,-1283 1129,-1329.35 1129,-1357.92"/>
<polygon fill="black" stroke="black" points="1125.5,-1357.95 1129,-1367.95 1132.5,-1357.95 1125.5,-1357.95"/>
</g>
<!-- lockingkeyinput[1]&#45;&gt;NOT_inserted_0_ -->
<g id="edge41" class="edge">
<title>lockingkeyinput[1]&#45;&gt;NOT_inserted_0_</title>
<path fill="none" stroke="black" d="M407.29,-290.92C363.59,-279.46 301.88,-263.28 256.07,-251.27"/>
<polygon fill="black" stroke="black" points="256.82,-247.85 246.26,-248.7 255.05,-254.62 256.82,-247.85"/>
</g>
<!-- lockingkeyinput[2]&#45;&gt;NOT_inserted_2_ -->
<g id="edge42" class="edge">
<title>lockingkeyinput[2]&#45;&gt;NOT_inserted_2_</title>
<path fill="none" stroke="black" d="M735,-359.97C735,-312.29 735,-177.18 735,-118.63"/>
<polygon fill="black" stroke="black" points="738.5,-118.31 735,-108.31 731.5,-118.31 738.5,-118.31"/>
</g>
<!-- lockingkeyinput[3]&#45;&gt;NOT_inserted_1_ -->
<g id="edge43" class="edge">
<title>lockingkeyinput[3]&#45;&gt;NOT_inserted_1_</title>
<path fill="none" stroke="black" d="M133.69,-467.19C96.75,-490.01 38,-535.36 38,-593 38,-955 38,-955 38,-955 38,-1021.69 499.96,-1071.02 700.21,-1089.28"/>
<polygon fill="black" stroke="black" points="700.14,-1092.79 710.42,-1090.2 700.77,-1085.81 700.14,-1092.79"/>
</g>
<!-- keygate_XNOR_0 -->
<g id="node35" class="node">
<title>keygate_XNOR_0</title>
<ellipse fill="none" stroke="black" cx="654" cy="-666" rx="90.18" ry="18"/>
<text text-anchor="middle" x="654" y="-662.3" font-family="Times,serif" font-size="14.00">keygate_XNOR_0</text>
</g>
<!-- lockingkeyinput[4]&#45;&gt;keygate_XNOR_0 -->
<g id="edge46" class="edge">
<title>lockingkeyinput[4]&#45;&gt;keygate_XNOR_0</title>
<path fill="none" stroke="black" d="M396.79,-467.71C446.3,-505.69 567.34,-598.53 623.92,-641.93"/>
<polygon fill="black" stroke="black" points="622.04,-644.9 632.11,-648.21 626.3,-639.34 622.04,-644.9"/>
</g>
<!-- lockingkeyinput[5]&#45;&gt;keygate_XNOR_1 -->
<g id="edge49" class="edge">
<title>lockingkeyinput[5]&#45;&gt;keygate_XNOR_1</title>
<path fill="none" stroke="black" d="M838.12,-468.17C828.18,-494.56 811,-546.86 811,-593 811,-667 811,-667 811,-667 811,-709.02 793.2,-755.02 780.25,-782.95"/>
<polygon fill="black" stroke="black" points="777.06,-781.51 775.9,-792.04 783.37,-784.53 777.06,-781.51"/>
</g>
<!-- NOT_inserted_0_&#45;&gt;_0_ -->
<g id="edge33" class="edge">
<title>NOT_inserted_0_&#45;&gt;_0_</title>
<path fill="none" stroke="black" d="M167.56,-216.76C149.75,-205.83 126.28,-191.42 108.13,-180.27"/>
<polygon fill="black" stroke="black" points="109.53,-177.03 99.18,-174.78 105.87,-182.99 109.53,-177.03"/>
</g>
<!-- NOT_inserted_1_&#45;&gt;_3_ -->
<g id="edge35" class="edge">
<title>NOT_inserted_1_&#45;&gt;_3_</title>
<path fill="none" stroke="black" d="M791,-1079.7C791,-1071.98 791,-1062.71 791,-1054.11"/>
<polygon fill="black" stroke="black" points="794.5,-1054.1 791,-1044.1 787.5,-1054.1 794.5,-1054.1"/>
</g>
<!-- NOT_inserted_2_&#45;&gt;N22 -->
<g id="edge37" class="edge">
<title>NOT_inserted_2_&#45;&gt;N22</title>
<path fill="none" stroke="black" d="M719.75,-72.05C711.59,-62.99 701.42,-51.69 692.57,-41.86"/>
<polygon fill="black" stroke="black" points="695.11,-39.45 685.82,-34.36 689.91,-44.13 695.11,-39.45"/>
</g>
<!-- NOT_inserted_3_&#45;&gt;_2_ -->
<g id="edge39" class="edge">
<title>NOT_inserted_3_&#45;&gt;_2_</title>
<path fill="none" stroke="black" d="M1084.35,-1370.33C1044.09,-1357.1 985.8,-1337.94 949.44,-1325.99"/>
<polygon fill="black" stroke="black" points="950.39,-1322.62 939.8,-1322.82 948.21,-1329.27 950.39,-1322.62"/>
</g>
<!-- keywire8 -->
<g id="node34" class="node">
<title>keywire8</title>
<ellipse fill="none" stroke="black" cx="724" cy="-738" rx="53.09" ry="18"/>
<text text-anchor="middle" x="724" y="-734.3" font-family="Times,serif" font-size="14.00">keywire8</text>
</g>
<!-- keywire8&#45;&gt;keygate_XNOR_0 -->
<g id="edge44" class="edge">
<title>keywire8&#45;&gt;keygate_XNOR_0</title>
<path fill="none" stroke="black" d="M707.76,-720.76C699.01,-712.01 688.03,-701.03 678.28,-691.28"/>
<polygon fill="black" stroke="black" points="680.67,-688.72 671.12,-684.12 675.72,-693.67 680.67,-688.72"/>
</g>
<!-- keygate_XNOR_0&#45;&gt;N23 -->
<g id="edge45" class="edge">
<title>keygate_XNOR_0&#45;&gt;N23</title>
<path fill="none" stroke="black" d="M654,-647.7C654,-639.98 654,-630.71 654,-622.11"/>
<polygon fill="black" stroke="black" points="657.5,-622.1 654,-612.1 650.5,-622.1 657.5,-622.1"/>
</g>
<!-- keygate_XNOR_1&#45;&gt;keywire8 -->
<g id="edge48" class="edge">
<title>keygate_XNOR_1&#45;&gt;keywire8</title>
<path fill="none" stroke="black" d="M756.59,-792.05C751.52,-783.8 745.32,-773.7 739.69,-764.54"/>
<polygon fill="black" stroke="black" points="742.53,-762.48 734.31,-755.79 736.57,-766.14 742.53,-762.48"/>
</g>
</g>
</svg>
